<?xml version="1.0" encoding="UTF-8"?>
<svg id="Lag_1" data-name="Lag 1" xmlns="http://www.w3.org/2000/svg" viewBox="0 0 591.67 87.8">
  <defs>
    <style>
      .cls-1 {
        fill: #151515;
      }
    </style>
  </defs>
  <g>
    <path class="cls-1" d="M135.48,39.6c-2.06-3.81-4.85-6.66-8.39-8.55-3.54-1.89-7.51-2.83-11.9-2.83-3.16,0-5.92.46-8.29,1.39-1.18.46-2.26.92-3.25,1.4v-14.52c0-2.19-.55-3.72-1.65-4.58s-2.85-1.29-5.25-1.29c-1.24,0-2.37.11-3.4.31-1.03.2-1.82.37-2.37.51v26.26h.02v30.38c0,1.58.33,2.9.98,3.96.65,1.06,1.7,2.11,3.14,3.14,1.99,1.24,4.44,2.32,7.36,3.25,2.92.93,6.34,1.39,10.25,1.39,5.15,0,9.66-.96,13.54-2.88,3.87-1.92,6.9-4.8,9.06-8.65,2.16-3.84,3.24-8.72,3.24-14.42s-1.03-10.46-3.09-14.27ZM122.05,65.81c-2.36,2.61-5.51,3.91-9.42,3.91-1.99,0-3.76-.25-5.3-.77-1.55-.52-2.77-1.08-3.66-1.7v-25.96c.87-.59,1.83-1.14,2.87-1.64,1.86-.89,3.99-1.34,6.39-1.34,3.78,0,6.84,1.24,9.17,3.71,2.33,2.47,3.5,6.48,3.5,11.84s-1.18,9.34-3.55,11.95Z"/>
    <path class="cls-1" d="M192.59,53.9c.99-.92,1.49-2.35,1.49-4.27,0-4.18-.98-7.89-2.94-11.12-1.95-3.23-4.63-5.75-8.03-7.57-3.4-1.82-7.37-2.73-11.9-2.73-3.23,0-6.32.54-9.27,1.6-2.96,1.07-5.55,2.65-7.78,4.74-2.23,2.1-4,4.72-5.3,7.88-1.31,3.16-1.96,6.83-1.96,11.02,0,5.84,1.15,10.72,3.45,14.63,2.3,3.92,5.49,6.85,9.58,8.81,4.08,1.96,8.77,2.94,14.06,2.94,3.44,0,6.49-.34,9.17-1.03,2.68-.69,4.81-1.67,6.39-2.94s2.37-2.79,2.37-4.58c0-1.1-.3-2.11-.88-3.04-.59-.93-1.36-1.7-2.32-2.32-1.44,1.03-3.4,1.97-5.87,2.83-2.47.86-5.15,1.29-8.03,1.29-4.26,0-7.78-1.03-10.56-3.09-2.23-1.65-3.76-4.04-4.6-7.19l28.76-4.16c1.78-.21,3.17-.77,4.17-1.7ZM158.88,50.94c.21-4.06,1.41-7.22,3.57-9.48,2.34-2.44,5.33-3.66,8.76-3.66s6.04.96,7.83,2.88c1.79,1.92,2.78,4.19,2.99,6.8l-23.15,3.46Z"/>
    <path class="cls-1" d="M247.55,11.91c-1.1-.86-2.89-1.29-5.36-1.29-1.17,0-2.29.1-3.35.31-1.07.2-1.84.37-2.32.51v18.72c-.84-.37-1.79-.7-2.83-1.01-2.09-.62-4.41-.93-6.95-.93-4.61,0-8.79.91-12.57,2.73-3.77,1.82-6.78,4.66-9.01,8.5-2.23,3.85-3.35,8.89-3.35,14.73s1.1,10.66,3.3,14.47,5.3,6.63,9.32,8.45c4.01,1.82,8.73,2.73,14.16,2.73,3.64,0,6.88-.43,9.73-1.29,2.85-.86,5.1-1.84,6.75-2.94,1.44-.89,2.49-1.83,3.14-2.83.65-1,.98-2.25.98-3.76v-31.11h.01s0-21.41,0-21.41c0-2.19-.55-3.72-1.65-4.58ZM236.52,67.67c-.9.55-1.99,1.03-3.29,1.44-1.31.41-2.89.62-4.74.62-4.19,0-7.52-1.24-9.99-3.71-2.47-2.47-3.71-6.38-3.71-11.74,0-3.78.58-6.85,1.75-9.22,1.17-2.37,2.78-4.08,4.84-5.15s4.36-1.6,6.9-1.6c2.33,0,4.39.38,6.18,1.13.75.32,1.44.66,2.06,1.02v27.21Z"/>
    <path class="cls-1" d="M295.02,34.19c0,.96-.14,1.84-.41,2.63-.28.79-.62,1.49-1.03,2.11-.69-.14-1.55-.26-2.58-.36-1.03-.1-2.13-.15-3.3-.15-2.47,0-4.79.26-6.95.77s-4,1.22-5.51,2.11v36.89c-.55.21-1.34.39-2.37.57-1.03.17-2.16.26-3.4.26-2.34,0-4.07-.43-5.2-1.29s-1.7-2.38-1.7-4.58v-32.87c0-1.72.41-3.18,1.24-4.38.82-1.2,1.99-2.32,3.5-3.35,2.06-1.24,4.67-2.27,7.83-3.09,3.16-.82,6.56-1.24,10.2-1.24,6.45,0,9.68,1.99,9.68,5.97Z"/>
    <path class="cls-1" d="M345.13,53.9c.99-.92,1.49-2.35,1.49-4.27,0-4.18-.98-7.89-2.94-11.12-1.95-3.23-4.63-5.75-8.03-7.57-3.4-1.82-7.37-2.73-11.9-2.73-3.23,0-6.32.54-9.27,1.6-2.96,1.07-5.55,2.65-7.78,4.74-2.23,2.1-4,4.72-5.3,7.88-1.31,3.16-1.96,6.83-1.96,11.02,0,5.84,1.15,10.72,3.45,14.63,2.3,3.92,5.49,6.85,9.58,8.81,4.08,1.96,8.77,2.94,14.06,2.94,3.44,0,6.49-.34,9.17-1.03s4.81-1.67,6.39-2.94c1.58-1.27,2.37-2.79,2.37-4.58,0-1.1-.3-2.11-.88-3.04-.59-.93-1.36-1.7-2.32-2.32-1.44,1.03-3.4,1.97-5.87,2.83-2.47.86-5.15,1.29-8.03,1.29-4.26,0-7.78-1.03-10.56-3.09-2.23-1.65-3.76-4.04-4.6-7.19l28.76-4.16c1.78-.21,3.17-.77,4.17-1.7ZM311.42,50.94c.22-4.06,1.42-7.22,3.58-9.48,2.33-2.44,5.32-3.66,8.75-3.66s6.04.96,7.83,2.88c1.79,1.92,2.78,4.19,2.99,6.8l-23.15,3.46Z"/>
    <path class="cls-1" d="M400.7,71.8c-.21,2.27-.89,4.05-2.06,5.36-1.17,1.3-2.78,1.96-4.84,1.96-1.58,0-3.02-.4-4.33-1.18-1.3-.79-2.64-2.01-4.02-3.66l-15.76-17.33v21.23c-.55.21-1.34.39-2.37.57-1.03.17-2.16.26-3.4.26-2.33,0-4.07-.43-5.2-1.29-1.13-.86-1.7-2.38-1.7-4.58V11.44c.55-.14,1.34-.31,2.37-.51,1.03-.21,2.16-.31,3.4-.31,2.4,0,4.15.43,5.25,1.29,1.1.86,1.65,2.39,1.65,4.58v32.45l20.29-20.2c2.54.07,4.57.67,6.08,1.8s2.27,2.59,2.27,4.38c0,1.44-.5,2.75-1.49,3.91-1,1.17-2.49,2.61-4.48,4.33l-11.48,10.01,19.82,18.63Z"/>
    <path class="cls-1" d="M423.78,16.49v41.82h-.01s0,19.87,0,19.87c-.55.21-1.34.39-2.37.57-1.03.17-2.16.26-3.4.26-2.33,0-4.07-.43-5.2-1.29s-1.7-2.38-1.7-4.58V11.44c.48-.14,1.25-.31,2.32-.51,1.06-.21,2.18-.31,3.35-.31,2.47,0,4.26.43,5.36,1.29s1.65,2.39,1.65,4.58Z"/>
    <path class="cls-1" d="M449.76,10.09c-1.34-1.37-3.17-2.06-5.3-2.06s-3.89.69-5.3,2.06c-1.41,1.38-2.11,3.06-2.11,5.05s.7,3.59,2.11,5c1.4,1.41,3.11,2.11,5.3,2.11s3.96-.7,5.3-2.11c1.34-1.41,2.01-3.01,2.01-5s-.67-3.68-2.01-5.05Z"/>
    <path class="cls-1" d="M450.85,35.23v42.95c-.55.21-1.34.39-2.37.57-1.03.17-2.16.26-3.4.26-2.33,0-4.09-.43-5.25-1.29-1.17-.86-1.75-2.38-1.75-4.58V30.08c.55-.21,1.36-.39,2.42-.57,1.06-.17,2.21-.26,3.45-.26,2.4,0,4.15.43,5.25,1.29,1.1.86,1.65,2.42,1.65,4.69Z"/>
    <path class="cls-1" d="M536.86,45.74v32.45c-.48.21-1.25.39-2.32.57-1.07.17-2.18.26-3.35.26-2.4,0-4.17-.43-5.3-1.29s-1.7-2.38-1.7-4.58v-27c0-2.68-.76-4.65-2.27-5.92s-3.54-1.91-6.08-1.91c-1.85,0-3.66.38-5.41,1.13-1.39.6-2.62,1.35-3.68,2.25.23.97.34,1.96.34,2.98v33.51c-.55.21-1.36.39-2.42.57-1.07.17-2.18.26-3.35.26-2.4,0-4.16-.43-5.25-1.29-1.1-.86-1.65-2.38-1.65-4.58v-27c0-2.68-.81-4.65-2.42-5.92s-3.66-1.91-6.13-1.91c-1.79,0-3.42.26-4.89.77-1.48.52-2.73,1.12-3.76,1.8v37.3c-.55.21-1.34.39-2.37.57-1.03.17-2.16.26-3.4.26-2.34,0-4.07-.43-5.2-1.29s-1.7-2.38-1.7-4.58v-33.09c0-1.65.34-3,1.03-4.07.69-1.06,1.71-2.04,3.09-2.94,2.13-1.44,4.75-2.61,7.88-3.5,3.12-.89,6.37-1.34,9.73-1.34s6.45.52,9.27,1.54c2.31.85,4.27,2.01,5.89,3.53,1.69-1.19,3.57-2.24,5.64-3.15,2.88-1.27,6.32-1.91,10.3-1.91,3.64,0,6.93.58,9.89,1.75,2.95,1.17,5.29,3.06,7,5.67,1.71,2.61,2.57,5.97,2.57,10.09h.02Z"/>
    <path class="cls-1" d="M568.79,28.23c6.73,0,12.08,1.43,16.07,4.27,3.98,2.85,5.97,7.33,5.97,13.44v23.69c0,1.65-.4,2.95-1.18,3.91-.79.96-1.8,1.82-3.04,2.58-1.92,1.1-4.36,2.01-7.31,2.73s-6.28,1.08-9.99,1.08c-6.87,0-12.26-1.32-16.17-3.97s-5.87-6.57-5.87-11.79c0-4.6,1.46-8.12,4.38-10.56,2.92-2.44,7.16-3.93,12.72-4.48l14.01-1.44v-1.85c0-2.75-.95-4.74-2.83-5.97-1.89-1.24-4.55-1.85-7.98-1.85-2.68,0-5.29.34-7.83,1.03-2.54.69-4.81,1.51-6.8,2.47-.69-.55-1.3-1.3-1.85-2.27-.55-.96-.82-1.96-.82-2.99,0-2.47,1.37-4.29,4.12-5.46,1.92-.89,4.17-1.54,6.75-1.96s5.13-.62,7.67-.62h-.02ZM569.3,70.25c2.06,0,3.91-.21,5.56-.62s2.85-.86,3.6-1.34v-11.74l-10.2,1.03c-2.82.21-4.96.81-6.44,1.8-1.48,1-2.21,2.46-2.21,4.38s.79,3.57,2.37,4.74,4.02,1.75,7.31,1.75h.01Z"/>
  </g>
  <path class="cls-1" d="M35.52,87.26c-2.45,0-4.49-2.01-4.49-4.46-.02-17.04,12.7-31.17,29.14-33.38v-5.88l-24.64-25.32-24.64,25.32v20.89h13.34c2.57,0,4.66,2.09,4.66,4.66v4.34H6.39c-2.48,0-4.5-2.01-4.5-4.5v-27.22c0-1.17.46-2.3,1.28-3.14l29.14-29.95c.85-.87,2.01-1.36,3.22-1.36s2.38.49,3.22,1.36l29.14,29.95c.82.84,1.28,1.97,1.28,3.14v11.91c0,18.55-15.1,33.64-33.65,33.64ZM59.66,58.63c-9.57,1.99-17.13,9.54-19.12,19.12,9.57-1.99,17.13-9.54,19.12-19.12Z"/>
</svg>