<?xml version="1.0" encoding="UTF-8"?>
<svg id="Layer_1" data-name="Layer 1" xmlns="http://www.w3.org/2000/svg" viewBox="0 0 220.08 44.16">
  <path d="M220.07,20.14v1.27c-.07.06-.59.33-.8.34l-9.3.02-.03,5.98,9.38.08c.46.24.45,1.65-.01,1.95l-9.35.05v6.84s9.1,0,9.1,0c.3,0,.87.21,1.01.27v1.4c-.16.06-.71.25-.94.25l-11.34-.07.03-18.66,11.57-.03c.2,0,.71.31.68.31Z"/>
  <path d="M133.05-.57l.06,39.08c-.72.04-1.31.04-2.03,0l.06-39.08h1.92Z"/>
  <path d="M76.61,21.82l-4.6,12.98c-1.01.29-1.84.29-2.95-.01l-4.4-12.87c-.09-.26-.78-.29-.95-.17l-1.53,16.42c-.19.64-2.08.57-2.03-.03l1.49-18.26,4.74-.03,4.26,13.12,4.43-13.06h4.7s1.56,18.34,1.56,18.34c-.72.36-1.62.44-2.25-.03l-1.51-16.25c-.03-.3-.86-.39-.95-.15Z"/>
  <path d="M32.63,33.81c-1.16,5.16-6.88,5.66-11.06,4.74-2.47-.54-4.22-2.34-4.76-4.82-.66-3.01-.66-6.16,0-9.17,1.14-5.13,6.72-5.65,10.93-4.82,2.49.49,4.32,2.24,4.88,4.74.68,3.05.69,6.27,0,9.33ZM30.56,32.93c.36-2.48.36-5.08,0-7.56-.61-4.12-5.32-4.37-8.41-3.61-1.7.42-2.87,1.78-3.15,3.52-.42,2.63-.44,5.34.03,7.95.32,1.77,1.6,3.07,3.33,3.44,3.16.68,7.62.33,8.21-3.73Z"/>
  <path d="M53.97,38.31c-.66.29-1.41.3-2.19.21l-.3-4.45c-.12-1.73-1.5-3.04-3.34-3.1l-6.65-.22-.06,7.4c-.33.51-1.55.5-2.18.09v-18.4s9.59-.02,9.59-.02c1.43,0,3.07.61,3.86,1.8,1.18,1.77,1.22,4.15.36,6.04-.76,1.68-2.89,1.51-3.5,2.19-.46.51,3.88.07,4.09,3.53l.31,4.92ZM51.38,24.84c-.13-1.86-1.17-3.15-3.03-3.15h-6.88s0,7.37,0,7.37l6.87-.32c2.14-.1,3.18-1.79,3.04-3.91Z"/>
  <path d="M121.02,29.77l-9.35.06-.02,6.84h9.69c.42.45.46,1.11.22,1.9h-12.11s-.01-18.7-.01-18.7h11.84c.55.02.56,1.32.21,1.86l-9.83.05v5.98s9.22.04,9.22.04c.52,0,.6,1.54.15,1.97Z"/>
  <path d="M100.47,20.04c.35-.49,1.46-.61,2.16-.46l-.04,13.72c0,2.68-1.76,4.73-4.3,5.27-2,.42-4.04.41-6.05.06-2.77-.48-4.55-2.69-4.57-5.58l-.07-12.98c.55-.51,1.42-.64,2.26-.48l.07,13.67c0,1.7,1.27,3.08,2.81,3.42,2.93.65,7.64.32,7.66-3.38l.06-13.26Z"/>
  <path d="M191.08,29.77l-9.34.04-.03,6.9,9.65.02c.54.09.6,1.66.12,1.81h-11.96s0-18.68,0-18.68h11.77c.59.13.59,1.45.14,1.93l-9.71.03v6.01s9.33.02,9.33.02c.42.27.44,1.44.03,1.93Z"/>
  <path d="M151.98,31.03l-7.4.12-.06,7.1c-.33.52-2.15.5-2.15-.11v-18.27s9.85.02,9.85.02c2.1,0,3.65,1.34,4.25,3.26.32,1.44.36,2.91,0,4.36-.51,2.04-2.22,3.49-4.5,3.52ZM154.46,25.29c-.04-1.8-.94-3.44-2.9-3.53-2.31-.1-4.67-.07-7.01-.04v7.68s6.48-.25,6.48-.25c2.2-.08,3.48-1.53,3.43-3.85Z"/>
  <path d="M10.71,29.08c.52,0,.53,1.91.02,2l-8.32.07-.06,7.26c-.77.23-1.51.24-2.12-.11v-18.45c3.82-.09,7.42-.11,11.22,0,.67.05.67,1.76.04,1.96l-9.1.03v7.19s8.31.06,8.31.06Z"/>
  <path d="M174,36.54c.42.46.41,1.19.16,2.03l-11.66-.02-.02-18.56c.66-.44,1.39-.54,2.21-.42v16.95s9.31.01,9.31.01Z"/>
  <path d="M194.76,43.25c-.39-.06-.35-1.33-.11-1.57l2.42-.19c.66-.05,1.42-.72,1.42-1.49v-20.04c.65-.38,1.33-.49,2.16-.39v20.91c0,2.88-3.48,3.17-5.89,2.78Z"/>
</svg>