<?xml version="1.0" encoding="UTF-8"?>
<svg id="Layer_1" data-name="Layer 1" xmlns="http://www.w3.org/2000/svg" xmlns:xlink="http://www.w3.org/1999/xlink" viewBox="0 0 1399.81 374.29">
  <defs>
    <style>
      .cls-1 {
        filter: url(#drop-shadow-2);
      }

      .cls-2 {
        fill: url(#linear-gradient);
      }

      .cls-3 {
        fill: #f66617;
      }

      .cls-4 {
        fill: #fff;
      }

      .cls-5 {
        fill: #121212;
        font-family: MyriadPro-Bold, 'Myriad Pro';
        font-size: 289.54px;
        font-weight: 700;
      }

      .cls-6 {
        letter-spacing: -.04em;
      }

      .cls-7 {
        fill: #fdfdfd;
      }
    </style>
    <linearGradient id="linear-gradient" x1="0" y1="191.96" x2="382.47" y2="191.96" gradientUnits="userSpaceOnUse">
      <stop offset="0" stop-color="#e1490a"/>
      <stop offset="1" stop-color="#f65a15"/>
    </linearGradient>
    <filter id="drop-shadow-2" x="-2.7" y="48.74" width="345" height="270" filterUnits="userSpaceOnUse">
      <feOffset dx="0" dy="8"/>
      <feGaussianBlur result="blur" stdDeviation="3"/>
      <feFlood flood-color="#000" flood-opacity=".15"/>
      <feComposite in2="blur" operator="in"/>
      <feComposite in="SourceGraphic"/>
    </filter>
  </defs>
  <text class="cls-5" transform="translate(510.08 279.44)"><tspan class="cls-6" x="0" y="0">W</tspan><tspan x="244.95" y="0">eblio</tspan></text>
  <g>
    <path class="cls-7" d="M210.64,126.69l16.89,38.68c3.89,8.92,7.29,17.64,12.33,25.79,1.34,2.17,3.71,3.37,5.87,3.27,1.83-.08,3.44-1.82,4.13-4.05,4.34-14.09,6.73-28.18,9.2-42.78l5.35-31.64c5.34-33.07,16.73-64.13,56.56-65.63-24.68-22.53-53.79-37.41-85.59-45.12-2.15.72-3.38-.75-5.04-1.1C139.69-14.92,47.96,33.6,12.59,119c21.86-11.71,44.83-10.83,60.64,7.91,6.94,8.23,12.14,17.39,16.35,27.51l25.27,60.7c.62,1.48,1.94,2.35,2.52,3.06s3.72.99,3.94-.56l9.73-67.12c1.62-11.14,3.36-21.76,6.69-32.25,5.12-16.17,19.48-26.77,36.32-26.13,17.7.67,30.25,20.05,36.6,34.57ZM61.73,224.12l-23.35-48.71c-4.67-9.74-18.83-36.1-31.8-38.11-21.39,79.44,10.48,161.07,79.22,205.91,53.98,35.21,122.99,40.85,181.92,15.14,6.03-2.63,11.22-5.09,16.8-8.39l11.36-6.7c45.61-26.92,78.21-80.62,84.53-134.45l1.05-8.98c5.84-49.77-14-100.2-48.63-137.29-10.39,11.82-19.09,43.14-21.87,56.85l-11.6,57.33c-4.45,21.98-8.83,49.78-21.21,67.85-10.06,14.68-29.3,16.92-42.83,5.12-6.08-5.3-10.79-11.72-14.99-19l-29.23-50.66c-1.06-1.84-3.47-2.32-5.05-1.88-1.28.35-2.28,2-2.71,3.75-4.83,19.47-7.96,38.7-11.36,58.56-2.29,13.38-4.54,26.14-9.4,38.59-4.83,12.38-14.81,20.95-28.27,21.94-10.71.78-20.81-2.55-29.18-9.21-17.6-14.01-33.51-46.94-43.43-67.63Z"/>
    <g>
      <path class="cls-3" d="M61.73,224.12c9.92,20.69,25.82,53.62,43.43,67.63,8.36,6.66,18.47,9.99,29.18,9.21,13.46-.99,23.44-9.56,28.27-21.94,4.85-12.44,7.1-25.2,9.4-38.59,3.4-19.86,6.53-39.1,11.36-58.56.43-1.75,1.43-3.4,2.71-3.75,1.58-.43,3.99.05,5.05,1.88l29.23,50.66c4.2,7.28,8.91,13.7,14.99,19,13.52,11.8,32.77,9.56,42.83-5.12,12.38-18.07,16.76-45.86,21.21-67.85l11.6-57.33c2.77-13.7,11.48-45.02,21.87-56.85,34.63,37.09,54.47,87.52,48.63,137.29l-1.05,8.98c-6.32,53.83-38.92,107.54-84.53,134.45l-11.36,6.7c-5.58,3.3-10.77,5.76-16.8,8.39-58.93,25.7-127.94,20.07-181.92-15.14C17.06,298.36-14.81,216.74,6.58,137.29c12.97,2.01,27.13,28.38,31.8,38.11l23.35,48.71Z"/>
      <path class="cls-3" d="M210.64,126.69c-6.34-14.53-18.9-33.9-36.6-34.57-16.84-.64-31.2,9.96-36.32,26.13-3.32,10.49-5.07,21.1-6.69,32.25l-9.73,67.12c-.22,1.55-3.36,1.27-3.94.56s-1.9-1.57-2.52-3.06l-25.27-60.7c-4.21-10.11-9.41-19.27-16.35-27.51-15.8-18.74-38.78-19.62-60.64-7.91C47.96,33.6,139.69-14.92,230.33,4.11c1.66.35,2.9,1.82,5.04,1.1,31.8,7.71,60.91,22.59,85.59,45.12-39.83,1.5-51.22,32.56-56.56,65.63l-5.35,31.64c-2.47,14.6-4.86,28.7-9.2,42.78-.69,2.23-2.3,3.97-4.13,4.05-2.16.1-4.53-1.11-5.87-3.27-5.04-8.15-8.43-16.87-12.33-25.79l-16.89-38.68Z"/>
    </g>
  </g>
  <path class="cls-2" d="M382.47,182.56c.05-43.99-19-87.22-49.63-120.03-10.39,11.82-19.09,43.14-21.87,56.85l-11.6,57.33c-4.45,21.98-8.83,49.78-21.21,67.85-10.06,14.68-29.3,16.92-42.83,5.12-6.08-5.3-10.79-11.72-14.99-19l-29.23-50.66c-1.06-1.84-3.47-2.32-5.05-1.88-1.28.35-2.28,2-2.71,3.75-4.83,19.47-7.96,38.7-11.36,58.56-2.29,13.38-4.54,26.14-9.4,38.59-4.83,12.38-14.81,20.95-28.27,21.94-10.71.78-20.81-2.55-29.18-9.21-17.6-14.01-33.51-46.94-43.43-67.63l-23.35-48.71c-4.67-9.74-18.83-36.1-31.8-38.11-7.46,27.73-8.43,55.73-3.62,82.33,38.48,44.28,217.29,224.59,379.5-37.06Z"/>
  <g class="cls-1">
    <path class="cls-4" d="M264.46,116.01l-5.34,31.6c-2.47,14.59-4.86,28.66-9.19,42.73-.69,2.23-2.3,3.96-4.13,4.05-2.16.1-4.53-1.1-5.86-3.27-5.03-8.14-8.42-16.85-12.31-25.76l-16.88-38.64c-6.34-14.51-18.87-33.86-36.56-34.53-16.82-.64-31.16,9.95-36.28,26.1-3.32,10.48-5.07,21.08-6.68,32.21l-9.72,67.04c-.22,1.55-3.36,1.27-3.94.56-.58-.71-1.9-1.57-2.51-3.05l-25.24-60.63c-4.21-10.1-9.4-19.25-16.33-27.47-15.77-18.7-38.92-19.72-60.73-8.07-2.37,5.96-4.43,12.07-6.19,18.3,12.93,2.11,27.46,28.5,32.11,38.2l23.32,48.66c9.91,20.67,25.79,53.56,43.38,67.55,8.35,6.65,18.45,9.98,29.14,9.2,13.44-.99,23.41-9.55,28.23-21.91,4.85-12.43,7.1-25.18,9.38-38.54,3.4-19.83,6.52-39.05,11.35-58.49.43-1.75,1.43-3.39,2.71-3.74,1.58-.43,3.99.05,5.05,1.88l29.19,50.6c4.2,7.27,8.9,13.68,14.98,18.98,13.51,11.79,32.73,9.55,42.78-5.12,12.36-18.04,16.74-45.81,21.19-67.77l11.59-57.26c2.77-13.68,11.45-45.13,21.81-56.95-3.77-4.18-7.73-8.19-11.87-12.02-39.76,1.51-51.13,32.53-56.46,65.55Z"/>
  </g>
</svg>