<?xml version="1.0" encoding="UTF-8"?>
<svg id="Layer_1" data-name="Layer 1" xmlns="http://www.w3.org/2000/svg" viewBox="0 0 1152 387.75">
  <defs>
    <style>
      .cls-1 {
        fill: #fff;
      }
    </style>
  </defs>
  <path class="cls-1" d="M528.93,266.26l-19.79-27.57-18.83-.02-.23,27.28c-2.56.57-4.97.46-8.13.12l.02-68.29,35.55.25c9.85.07,17.14,7.12,17.6,16.76,1.51,10.98-4.99,20.89-16.64,23.15l20.02,28.08c-3.2.5-5.84.18-9.58.23ZM526.75,215.67c-.53-6.33-4.95-10.52-10.98-10.58l-25.5-.22-.03,26.61c10.64-.65,28.09,2.76,34.22-5.09,2.21-2.84,2.9-6.68,2.3-10.73Z"/>
  <path class="cls-1" d="M822.12,365.55c-3.23.77-5.94.52-8.93.08l-42.05-58.39-.23,58.5c-2.88.35-5.25.4-7.81-.06v-69.87c3.13-.51,5.97-.47,9.19,0l41.83,58.06.41-58.03c2.59-.52,4.84-.48,7.56-.05l.03,69.78Z"/>
  <path class="cls-1" d="M800.9,265.84l-19.79-27.5-18.66.13-.24,27.24c-2.82.36-5.54.63-8.24-.11v-68.16s36.32.23,36.32.23c9.85,1.03,16.77,7.74,16.88,17.46,1.29,10.81-5.4,20.17-16.64,22.53l20.03,28.07c-3.31.41-6.12.36-9.65.11ZM798.97,215.76c-.71-6.53-4.96-10.87-11.55-11.04-8.41-.21-16.69-.2-25.28.02l.13,26.52c8.76-.13,16.76.42,24.66-.43,8.17-.87,12.96-6.7,12.05-15.07Z"/>
  <path class="cls-1" d="M1149.46,265.95c-2.86.65-5.48.31-8.77.19l-42.26-56.78-.44,56.67c-2.64.41-4.87.44-7.56-.03l-.03-68.05c2.93-.53,5.68-.36,8.96-.09l42.04,56.68.19-56.54c2.49-.6,5-.46,7.81-.06l.04,68.01Z"/>
  <path class="cls-1" d="M308.97,266.43l-19.82-27.63-19.08-.13-.18,27.49c-2.83.2-5.24.24-8.15-.04l-.03-68.36,35.49.15c10.09.79,17.76,7.37,17.74,17.48,1.36,10.97-5.45,20.31-16.65,22.51l20,27.9c-2.93,1.08-5.44.09-9.33.63ZM306.62,216.51c0-6.83-4.86-11.46-11.31-11.49l-25.3-.11.07,26.67c8.67-.18,16.9.5,25.17-.53,7.53-.94,12.61-6.6,11.36-14.55Z"/>
  <path class="cls-1" d="M402.51,330.7c0,19.34-15.71,35.01-35.08,35.01s-35.08-15.68-35.08-35.01,15.71-35.01,35.08-35.01,35.08,15.68,35.08,35.01ZM396.1,330.69c0-15.8-12.83-28.61-28.66-28.61s-28.66,12.81-28.66,28.61,12.83,28.61,28.66,28.61,28.66-12.81,28.66-28.61Z"/>
  <path class="cls-1" d="M736.26,330.69c0,19.34-15.71,35.01-35.08,35.01s-35.08-15.68-35.08-35.01,15.71-35.01,35.08-35.01,35.08,15.68,35.08,35.01ZM729.84,330.69c0-15.8-12.83-28.61-28.66-28.61s-28.66,12.81-28.66,28.61,12.83,28.61,28.66,28.61,28.66-12.81,28.66-28.61Z"/>
  <path class="cls-1" d="M721.14,235.58l-31.2.11v23.27s35.42.1,35.42.1c.62,2.35.54,4.84.04,7.22l-43.08-.03-.04-68.46,43.23-.07c.34,2.48.34,4.55.06,7.07l-35.6.15-.03,23.29,31,.06c.78,2.22.47,4.59.2,7.29Z"/>
  <path class="cls-1" d="M379.22,235.57l-31.26.12v23.25s35.28.13,35.28.13c.61,2.31.66,4.76-.05,7.19h-42.84s-.04-68.47-.04-68.47l43.08-.06c.29,2.62.46,4.81-.06,7.1l-35.35.1-.02,23.26,31.19.15c.39,2.3.35,4.18.06,7.23Z"/>
  <path class="cls-1" d="M894,353.34c-6.06,17.04-36.23,14.49-49.15,6.86-.54-2.56-.47-4.98-.01-7.93,9.76,7.02,39.17,12.32,41.6-3.33,2.4-15.49-25.51-14.29-35.68-23.8-4.41-4.12-5.75-10.21-4.1-16.39,4.47-16.72,31.48-15.45,43.9-8.54.22,2.71.54,5.02-.29,7.7-9.74-6.99-34.87-9.4-35.54,4.4-.74,15.43,27.7,11.43,37.58,24.54,3.55,4.72,3.77,10.6,1.68,16.48Z"/>
  <path class="cls-1" d="M1071.09,231.97c0,18.89-15.34,34.2-34.27,34.2s-34.27-15.31-34.27-34.2,15.34-34.2,34.27-34.2,34.27,15.31,34.27,34.2ZM1064.81,231.96c0-15.44-12.54-27.95-28-27.95s-28,12.51-28,27.95,12.54,27.95,28,27.95,28-12.51,28-27.95Z"/>
  <path class="cls-1" d="M300.72,363.84c-12.86,4.26-26.27,2.3-38-3.53-.57-2.62-.52-5.06-.02-7.94,10.01,7.08,40.11,12.3,41.63-4.17,1.74-18.87-40.46-10.75-40.59-34.39-.04-7.28,4.37-13.91,11.89-16.43,10.68-3.58,22.42-2.21,32.5,2.78.43,2.58.73,4.77-.13,7.68-9.69-6.9-35.04-9.25-35.47,4.59-.49,15.55,28.69,11.52,37.67,24.62,6.43,9.37,1.97,23.01-9.45,26.8Z"/>
  <path class="cls-1" d="M873.47,245.07l-29.32-.06-8.3,21.01c-2.58.45-5.12.5-8.11-.09l27.04-67.9c2.57-.68,4.84-.4,7.76-.16l27.08,67.94c-2.59.87-5.28.54-8.07.24l-8.08-20.98ZM870.49,237.32l-11.86-29.9-11.65,30.31,23.51-.4Z"/>
  <path class="cls-1" d="M643.17,256.96l.29-25.68c2.65-.42,4.88-.36,7.39.03l-.04,29.71c-17.06,8.24-45.88,9.24-52.6-13.17-3.07-10.24-3.11-21.08-.15-31.33,6.26-21.69,32.88-21.85,49.92-14.56.58,2.61.5,5.01.07,7.86-14.39-7.32-37.89-8.82-42.97,9.25-2.34,8.32-2.33,17.21-.04,25.55,4.48,16.34,23.7,16.65,38.13,12.34Z"/>
  <path class="cls-1" d="M535.52,295.96c2.44-.8,4.71-.58,7.32-.16l-.28,45.18c-.05,8-3.75,16.17-10.65,20.55-9.52,6.05-22.62,6.08-32.25.33-7.45-4.45-11.15-12.89-11.21-21.44l-.31-44.71c2.77-.39,5-.33,7.59.08l.39,45.04c.05,5.89,2.58,11.87,7.68,14.89,7.24,4.28,16.97,4.21,24.04-.35,4.77-3.07,7.3-8.9,7.35-14.55l.34-44.87Z"/>
  <path class="cls-1" d="M451.29,228.29c.74,2.44.53,4.73.09,7.29l-29.93.09-.2,30.41c-2.59.29-4.99.49-7.58-.2v-68.14s42.08-.05,42.08-.05c.34,2.43.33,4.59.03,7.11l-34.37.12-.02,23.29,29.89.07Z"/>
  <path class="cls-1" d="M929.16,265.91c-2.53.72-4.74.41-7.66.15l-.17-61.12-23.95-.17c-.29-2.49-.31-4.6.08-7.07h55.53c.37,2.42.32,4.6.05,7.07l-23.84.19-.03,60.95Z"/>
  <path class="cls-1" d="M596.3,365.06c-2.17,1.28-4.78.59-7.75.41l-.1-62.33-24.36-.21c-.64-2.49-.7-4.8,0-7.29l56.68.04c.37,2.5.29,4.69.02,7.25l-24.51.13v62Z"/>
  <path class="cls-1" d="M468.29,358.26c.66,2.67.42,4.9.15,7.38l-43.45.04v-69.83c2.9-.36,5.06-.35,7.74.03l.06,62.3,35.51.08Z"/>
  <g>
    <path class="cls-1" d="M188.61,102.06l-27.34.09c-5.51.02-8.87-4.17-8.65-9.34s3.44-8.54,8.66-8.54l27,.04c5.27,0,8.4,4.05,8.33,9.13-.06,4.45-2.81,8.61-8.01,8.63Z"/>
    <path class="cls-1" d="M188.67,140.61h-28.14c-5.12.01-7.93-4.27-7.9-9.06s3.02-8.64,7.94-8.65l27.65-.05c5.12,0,8.38,3.82,8.39,8.72.02,4.58-2.55,9.03-7.95,9.03Z"/>
    <path class="cls-1" d="M188.6,180.06l-27.32.1c-5.29.02-8.69-3.78-8.67-8.89.02-4.72,2.82-8.92,7.9-8.93l27.72-.06c5.26-.01,8.42,3.97,8.38,8.99-.03,4.57-2.74,8.77-8.02,8.78Z"/>
  </g>
  <rect class="cls-1" x="636.12" y="295.51" width="7.46" height="70.43"/>
  <rect class="cls-1" x="559.4" y="197.68" width="7.6" height="68.6"/>
  <rect class="cls-1" x="969.81" y="197.67" width="7.49" height="68.61"/>
  <g>
    <polygon class="cls-1" points="391.63 165.86 363.89 165.95 296.76 87.35 296.47 165.86 262.39 166 262.4 27.63 289.5 27.6 357.63 108.6 357.81 27.57 391.61 27.6 391.63 165.86"/>
    <g>
      <path class="cls-1" d="M432.38,113.05l25.06.43c10.84-3.5,19.76-10.36,30.9-15.62-10.37-5.29-18.59-12.59-28.77-15.96l-27.2-.19c-.66-1.29-.43-3.57-.26-5.65l16.71-.99-18-11.05c.37-1.92,1.44-3.63,2.8-5.11l15.91,8.66-5.38-11.89c.22-1.51,3.36-2.46,5.14-2.8l11.44,21.65,29.63,17.24.38-36.39-14.34-18.08c1.17-1.7,2.69-2.69,4.54-3.8l9.55,11.54.37-17.25c1.97-.34,4.01-.48,5.93.12v138.2c-2.06.39-3.86.23-5.8,0l-.51-16.23c-3.85,3.14-6.04,7.05-9.33,10.59-1.86-.65-3.33-2-4.78-3.67l14.39-17.75-.28-35.28-29.8,15.88-11.37,23.91c-2.19-.31-3.81-1.13-5.5-2.38l7.08-15.95-17.37,8.56c-1.16-1.53-2.04-3.26-2.72-5.26l15.55-8.62-14.21-1.26c-.33-1.65-.34-3.46.24-5.6Z"/>
      <path class="cls-1" d="M504.76,122.3v-50.87c13.47,1.24,23.1,12.76,22.9,25.92s-9.88,23.98-22.9,24.94Z"/>
      <path class="cls-1" d="M582.53,99.88l-45.04-.03c-.6-2.09-.67-3.98.07-5.94l44.9-.05c.46,1.77.5,3.43.07,6.02Z"/>
      <polygon class="cls-1" points="522.15 125.16 546.6 161.77 541.15 165.4 516.7 128.79 522.15 125.16"/>
      <polygon class="cls-1" points="541.23 28.49 546.42 31.94 521.99 68.51 516.8 65.06 541.23 28.49"/>
      <polygon class="cls-1" points="556.91 66.08 559.64 71.75 532.83 84.63 530.1 78.96 556.91 66.08"/>
      <path class="cls-1" d="M556.67,127.47l-26.16-12.6c.35-2.09,1.29-3.63,2.43-5.61l26.32,12.75c-.3,1.95-1.13,3.34-2.59,5.47Z"/>
      <rect class="cls-1" x="504.75" y="129.64" width="3" height="32.18"/>
      <rect class="cls-1" x="504.75" y="31.99" width="3.01" height="32.19"/>
    </g>
    <g>
      <path class="cls-1" d="M697.63,166.12l-29.05-44.74-23.15-.12-.2,44.61-34.72.19-.09-138.55,70.59-.02c22.51,1.39,40.78,17.23,45.75,39.03,3.38,19.51-5.81,38.41-23.73,47.97l32.82,51.34-38.22.3ZM687.69,87.71c5.03-6.84,5.61-15.74,1.91-23.06-3.23-5.81-8.72-9.12-15.35-9.09l-28.89.11-.03,37.39,31.92.07c4.19,0,7.63-2.06,10.44-5.43Z"/>
      <path class="cls-1" d="M1056.81,118.28c8.58,16.23,25.63,23.05,42.89,18.8,9.84-2.42,18.2-8.13,22.23-17.87l27.53,15.41c-3.7,8.85-10.23,14.77-18.02,20-18,10.57-39.59,15.09-60.29,9.71-25.55-6.64-45.18-27.13-51.59-52.51-5.72-22.64,1.06-45.77,17.09-62.43,13.95-14.5,32.9-21.74,53.06-21.57,11.41.1,22.08,1.73,32.28,6.62,10.65,5.2,19.63,12.61,25.7,23.25l-25.95,17.24c-3.24-7.58-8.8-12.99-16.35-15.92-6.46-2.36-13.09-3.28-20.01-2.8-10.65.87-20.15,6.16-26.12,15.12-9.34,14.02-10.48,31.8-2.46,46.96Z"/>
      <rect class="cls-1" x="947.93" y="27.47" width="33.04" height="138.55"/>
      <path class="cls-1" d="M907.38,98.27c-.22,25.79-13.83,47.67-36.68,58.72-12.14,5.95-25.15,8.88-39.03,8.91l-63.04.13V27.49s60.81,0,60.81,0c9.58,0,18.38,1.1,27.54,3.4,31.92,9.12,50.68,33.23,50.39,67.39ZM847.77,59.5c-12.5-5.57-28.28-3.62-42.33-3.71v81.93c10.16-.04,19.83.6,29.7-.41,15.42-1.58,27.85-11.5,32.41-26.21,5.99-19.34.46-42.58-19.78-51.6Z"/>
    </g>
  </g>
  <g>
    <path class="cls-1" d="M141.9,214.27c50.08,29.15,61.52,95.57,24.68,139.36s-104.4,44.23-141.69.48C-12.57,310.17-.9,243.4,49.12,214.31l.19-166.28c.03-24.01,20.03-43.09,43.65-43.77,25.58-1.8,48.7,17.56,48.73,43.64l.2,166.37ZM151.99,345.52c17.32-19.03,24.04-44.6,17.44-70.56-5.41-21.26-21.49-41.14-43.71-50.63l-.18-175.66c-.02-16.34-13.74-28.21-29.61-28.4s-30.32,11.15-30.34,27.64l-.3,176.45c-22.49,9.61-38.85,29.94-44.06,52.22-6.1,26.1,1.43,51.86,19.15,70.37,30.6,31.95,81.6,31.56,111.61-1.42Z"/>
    <path class="cls-1" d="M108.02,249.66c22.72,6.64,36.62,28.32,33.47,51.08-3.15,22.81-22.86,39.85-45.91,39.89-22.95.03-42.51-16.78-45.92-39.22-3.52-23.11,10.53-45.11,33.33-51.7l.07-198.85c0-6.77,6.18-11.13,11.89-11.44s12.96,3.88,12.96,10.8l.1,199.44Z"/>
  </g>
</svg>