<?xml version="1.0" encoding="UTF-8"?>
<svg id="Layer_1" data-name="Layer 1" xmlns="http://www.w3.org/2000/svg" viewBox="0 0 911.13 122.3">
  <defs>
    <style>
      .cls-1 {
        fill: #fff;
      }
    </style>
  </defs>
  <path class="cls-1" d="M.01,18.77C16.6,17.93,39.55,6.88,50.77.01v38.53L67.86,4.36C72.22,1.85,77.24,0,83.44,0,104.72,0,117.78,12.23,117.78,37.53v61.31c0,8.38,2.01,17.59,5.86,20.94h-46.07c3.85-3.35,5.86-12.4,5.86-20.77v-53.11c0-10.72-6.37-16.75-14.57-16.75-10.55,0-15.75,8.04-18.09,15.92v53.78c0,8.38,2.01,17.59,5.86,20.94H10.56c3.85-3.35,5.86-12.4,5.86-20.77v-55.45c0-4.69-.33-23.96-16.42-23.96v-.84h.01Z"/>
  <path class="cls-1" d="M132.01,61.15C132.01,24.46,154.79,0,188.8,0s56.96,24.46,56.96,61.15-22.78,61.15-56.96,61.15-56.79-24.46-56.79-61.15ZM188.8,90.63c13.4,0,21.78-11.73,21.78-29.32s-8.38-29.48-21.78-29.48-21.61,11.73-21.61,29.48,8.21,29.32,21.61,29.32Z"/>
  <path class="cls-1" d="M244.08,18.77c16.59-.84,39.54-11.89,50.76-18.76v38.53l17.09-34.18C316.29,1.85,321.31,0,327.51,0,348.79,0,361.85,12.23,361.85,37.53v61.31c0,8.38,2.01,17.59,5.86,20.94h-46.07c3.85-3.35,5.86-12.4,5.86-20.77v-53.11c0-10.72-6.37-16.75-14.57-16.75-10.55,0-15.75,8.04-18.09,15.92v53.78c0,8.38,2.01,17.59,5.86,20.94h-46.07c3.85-3.35,5.86-12.4,5.86-20.77v-55.45c0-4.69-.33-23.96-16.42-23.96v-.84h.01Z"/>
  <path class="cls-1" d="M423.33,0C439.08,0,458.01,4.52,468.56,11.39c-3.18,8.38-7.54,23.29-9.88,34.01-5.86-6.03-26.97-15.08-41.88-15.08-5.36,0-8.54,2.01-8.54,5.36,0,11.39,60.31,8.38,60.31,46.74,0,25.13-25.3,39.87-50.26,39.87-17.59,0-30.32-4.36-43.89-12.56,3.52-10.05,6.2-21.78,8.38-32.33,4.52,3.85,21.44,12.9,38.87,12.9,4.86,0,12.9-.5,12.9-5.53,0-12.56-60.14-6.2-60.14-47.41,0-25.46,24.96-37.36,48.92-37.36h-.02Z"/>
  <path class="cls-1" d="M476.93,61.15C476.93,27.98,496.53,0,536.57,0,562.03,0,578.95,18.26,578.95,36.02s-12.06,34.01-46.4,34.01h-19.6c2.68,11.89,10.89,18.93,23.45,18.93s19.6-9.38,22.11-13.74c5.53,8.71,13.9,17.26,20.77,23.45-9.88,15.58-26.97,23.62-44.39,23.62-39.54,0-57.96-27.98-57.96-61.15h0ZM545.62,40.54c0-4.52-2.85-9.72-10.05-9.72-9.72,0-23.45,10.55-23.45,30.32,0,2.51.17,4.86.5,7.04,16.08-3.02,33-13.07,33-27.64Z"/>
  <path class="cls-1" d="M575.93,18.77c16.58-.84,39.54-11.89,50.76-18.76v38.53l17.09-34.18C648.14,1.85,653.16,0,659.36,0,680.64,0,693.7,12.23,693.7,37.53v61.31c0,8.38,2.01,17.59,5.86,20.94h-46.07c3.85-3.35,5.86-12.4,5.86-20.77v-53.11c0-10.72-6.37-16.75-14.57-16.75-10.55,0-15.75,8.04-18.09,15.92v53.78c0,8.38,2.01,17.59,5.86,20.94h-46.07c3.85-3.35,5.86-12.4,5.86-20.77v-55.45c0-4.69-.33-23.96-16.42-23.96v-.84h.01Z"/>
  <path class="cls-1" d="M755.18,0C770.93,0,789.86,4.52,800.41,11.39c-3.18,8.38-7.54,23.29-9.88,34.01-5.86-6.03-26.97-15.08-41.88-15.08-5.36,0-8.54,2.01-8.54,5.36,0,11.39,60.31,8.38,60.31,46.74,0,25.13-25.3,39.87-50.26,39.87-17.59,0-30.32-4.36-43.89-12.56,3.52-10.05,6.2-21.78,8.38-32.33,4.52,3.85,21.44,12.9,38.87,12.9,4.86,0,12.9-.5,12.9-5.53,0-12.56-60.14-6.2-60.14-47.41,0-25.46,24.96-37.36,48.92-37.36h-.02Z"/>
  <path class="cls-1" d="M808.78,61.15C808.78,27.98,828.38,0,868.42,0,893.88,0,910.8,18.26,910.8,36.02s-12.06,34.01-46.4,34.01h-19.6c2.68,11.89,10.89,18.93,23.45,18.93s19.6-9.38,22.11-13.74c5.53,8.71,13.9,17.26,20.77,23.45-9.88,15.58-26.97,23.62-44.39,23.62-39.54,0-57.96-27.98-57.96-61.15h0ZM877.47,40.54c0-4.52-2.85-9.72-10.05-9.72-9.72,0-23.45,10.55-23.45,30.32,0,2.51.17,4.86.5,7.04,16.08-3.02,33-13.07,33-27.64Z"/>
</svg>