<?xml version="1.0" encoding="UTF-8"?>
<svg id="Layer_1" data-name="Layer 1" xmlns="http://www.w3.org/2000/svg" viewBox="0 0 125.53 40">
  <defs>
    <style>
      .cls-1 {
        fill-rule: evenodd;
      }

      .cls-1, .cls-2 {
        fill: #fff;
      }
    </style>
  </defs>
  <path class="cls-2" d="M36.9,21.37c-.03.41-.08.84-.14,1.27-.03.2-.08.41-.13.61-.02.06-.03.13-.05.19-.1.64-.29,1.25-.49,1.86-.31.94-.7,1.86-1.18,2.73-.58,1.07-1.28,2.05-2.07,2.98-1.04,1.22-2.25,2.25-3.6,3.13-.54.36-1.1.68-1.7.96-.41.29-.89.47-1.36.64-.08.03-.16.06-.24.09-.82.3-1.66.56-2.52.72-.12.02-.23.04-.35.06-.57.11-1.14.22-1.73.25,1.99,1.9,4.7,3.07,7.69,3.07,6.11,0,11.06-4.88,11.06-10.9,0-2.99-1.22-5.7-3.2-7.67h.01Z"/>
  <path class="cls-2" d="M18.75,36.87c-.4-.02-.81-.06-1.21-.13-1-.17-2-.37-2.96-.71-1.11-.39-2.18-.86-3.21-1.43-1.54-.85-2.86-1.96-4.06-3.22-.06-.06-.11-.13-.13-.21-1-1.14-1.85-2.38-2.51-3.74-.91-1.89-1.48-3.85-1.65-5.88-1.88,1.95-3.02,4.59-3.02,7.5,0,6.02,4.95,10.9,11.06,10.9,2.99,0,5.7-1.17,7.69-3.07h0Z"/>
  <path class="cls-2" d="M40.1,11.31c0,2.95-1.19,5.63-3.13,7.6v-2.11c0-.38-.31-.64-.7-.64h-14.45c-.96,0-1.79.28-2.54.84-1.51,1.12-1.97,3.11-1.28,4.72.73,1.69,2.1,2.51,3.95,2.53.38,0,.76,0,1.15.01,1.42.02,2.84.03,4.26-.04.25-.01.32.11.19.32-.04.06-.07.11-.1.16-.16.25-.3.48-.52.76-.36.46-.62.73-1.03,1.08s-.47.39-.72.57h-.01c-2.36,1.67-4.93,2.11-7.72,1.34-.26-.07-.5-.17-.74-.28-.26-.11-.52-.22-.79-.29-.03-.02-.05-.03-.08-.05-.07-.05-.14-.09-.22-.13-1.86-1.07-3.16-2.6-3.9-4.59-.64-1.73-.69-3.5-.17-5.27.48-1.63,1.37-3.02,2.69-4.13,1.6-1.36,3.46-2.09,5.55-2.12,1.69-.03,1.82-.03,2.29-.02h1.84c.74,0,1.48-.06,2.2-.24,1.74-.45,3.21-1.34,4.34-2.73,1.07-1.34,1.72-2.84,1.8-4.56.02-.53-.27-.53-.52-.53h-10.39c1.99-1.91,4.71-3.08,7.7-3.08,6.11,0,11.06,4.88,11.06,10.9v-.02h-.01Z"/>
  <path class="cls-2" d="M49.89,28.79c-.56,0-1.08-.08-1.55-.25-.47-.17-.88-.41-1.23-.73-.35-.31-.61-.69-.81-1.12-.19-.44-.28-.93-.28-1.47s.09-1.02.27-1.46c.19-.44.44-.82.78-1.14s.73-.57,1.18-.74c.46-.17.96-.26,1.51-.26.26,0,.51.02.76.06.25.04.49.1.73.19.23.09.45.2.64.34l-.35.6c-.26-.16-.55-.29-.86-.37s-.63-.12-.94-.12c-.44,0-.85.07-1.21.2-.36.13-.67.33-.93.58-.26.25-.45.55-.59.91-.14.35-.21.75-.21,1.19,0,.61.13,1.14.39,1.57s.63.76,1.09.99c.47.23,1.01.34,1.63.34.34,0,.63-.03.89-.1s.45-.14.59-.22v-1.95h-1.68v-.66h2.39v3.01c-.17.12-.38.23-.65.32s-.54.16-.82.2c-.28.05-.53.07-.74.07,0,0,0,.02,0,.02Z"/>
  <path class="cls-2" d="M53.09,28.64v-7.06h.74v7.06h-.74Z"/>
  <path class="cls-2" d="M57.1,28.79c-.49,0-.93-.11-1.32-.34s-.69-.53-.92-.92c-.22-.39-.33-.81-.33-1.27,0-.34.06-.67.19-.97.13-.3.31-.57.54-.8.23-.24.5-.42.82-.55.31-.13.65-.2,1.02-.2.49,0,.93.11,1.32.34s.69.54.92.92c.22.38.33.8.33,1.26,0,.34-.06.66-.19.97-.13.3-.3.57-.53.81-.23.23-.5.42-.82.55-.31.13-.65.2-1.03.2ZM57.1,28.11c.35,0,.66-.08.94-.23.27-.15.48-.37.64-.64.16-.28.23-.61.23-.99s-.08-.71-.23-.99c-.15-.28-.37-.49-.64-.64s-.58-.23-.94-.23-.66.08-.94.23c-.27.15-.49.36-.64.64-.15.28-.23.61-.23.99s.08.71.23.99c.16.27.37.49.64.64s.58.23.94.23Z"/>
  <path class="cls-2" d="M62.94,28.79c-.34,0-.64-.05-.9-.15-.27-.09-.5-.23-.7-.4s-.36-.37-.49-.59l.11-.16v1.14h-.7v-7.06h.74v3.42l-.13-.16c.21-.32.49-.58.83-.79.34-.21.76-.31,1.24-.31s.91.11,1.27.34c.37.23.65.53.86.92.21.38.31.8.31,1.27,0,.35-.06.68-.18.99-.12.3-.28.57-.5.8s-.47.41-.77.54c-.3.13-.62.2-.99.2ZM62.8,28.11c.35,0,.66-.08.93-.23s.49-.37.64-.64c.16-.28.23-.61.23-.99s-.08-.71-.23-.99-.36-.49-.64-.64c-.27-.15-.58-.23-.94-.23s-.66.08-.94.23c-.27.15-.49.36-.64.64-.15.28-.23.61-.23.99s.08.71.23.99c.16.27.37.49.64.64s.58.23.94.23h0Z"/>
  <path class="cls-2" d="M67.5,28.79c-.35,0-.64-.06-.9-.19s-.45-.3-.58-.52c-.14-.23-.2-.49-.2-.79,0-.25.06-.48.19-.68.13-.21.34-.38.62-.52.29-.14.66-.23,1.11-.28.46-.05,1.02-.03,1.67.04l.02.57c-.54-.07-1-.09-1.37-.07s-.67.07-.9.16c-.23.08-.39.19-.49.33-.1.13-.15.28-.15.44,0,.27.1.49.29.64.2.15.47.23.82.23.29,0,.55-.05.79-.16.23-.11.42-.26.55-.45.14-.19.2-.41.2-.65v-1.39c0-.24-.05-.45-.16-.62s-.26-.31-.47-.4c-.2-.09-.45-.14-.74-.14-.25,0-.5.04-.76.11-.25.08-.49.2-.73.37l-.24-.59c.29-.2.59-.34.9-.42.31-.08.6-.12.88-.12.44,0,.81.07,1.11.21s.53.34.69.61.23.6.23,1v3.14h-.7v-.6c-.17.24-.41.43-.71.56-.3.13-.64.19-1,.19h.03Z"/>
  <path class="cls-2" d="M70.88,28.64v-7.06h.74v7.06h-.74Z"/>
  <path class="cls-2" d="M74.75,28.64v-6.87h.74l2.97,4.71h-.28l2.89-4.71h.71v6.87h-.75v-5.82l.16.05-2.61,4.17h-.62l-2.63-4.17.11-.05v5.82h-.69Z"/>
  <path class="cls-2" d="M85.1,28.79c-.51,0-.96-.1-1.34-.31-.39-.21-.69-.5-.91-.88s-.33-.82-.33-1.32c0-.36.06-.7.18-1.01.13-.31.3-.58.53-.81.23-.23.49-.41.8-.53.31-.13.64-.19,1-.19.38,0,.72.07,1.02.2.3.13.55.32.75.56s.35.52.43.84c.09.32.11.67.07,1.04h-4.01c-.02.35.05.66.2.93.15.26.37.47.66.61.29.15.63.22,1.03.22.26,0,.52-.04.78-.13.26-.09.48-.21.67-.38l.36.56c-.16.13-.35.24-.56.33s-.43.15-.65.2c-.22.04-.44.06-.66.06h-.02,0ZM83.31,25.77h3.22c-.02-.44-.15-.79-.41-1.04s-.63-.37-1.11-.37-.86.12-1.16.37c-.31.25-.48.59-.53,1.04h0Z"/>
  <path class="cls-2" d="M90.35,28.79c-.48,0-.9-.11-1.27-.34-.37-.23-.65-.53-.86-.91s-.31-.81-.31-1.28c0-.35.06-.67.17-.98.12-.31.29-.58.5-.81.22-.23.47-.41.77-.54.3-.13.63-.2.99-.2.49,0,.9.1,1.24.29s.62.45.83.77l-.13.16v-3.39h.74v7.06h-.7v-1.08l.11.17c-.2.3-.47.55-.8.76-.33.2-.76.3-1.29.3v.02h.01ZM90.49,28.11c.35,0,.66-.08.94-.23.27-.15.48-.37.64-.64.16-.28.23-.61.23-.99s-.08-.71-.23-.99-.36-.49-.64-.64c-.27-.15-.58-.23-.94-.23s-.66.08-.94.23c-.27.15-.48.36-.64.64-.16.28-.23.61-.23.99s.08.71.23.99c.16.27.37.49.64.64s.58.23.94.23Z"/>
  <path class="cls-2" d="M94.07,28.64v-4.76h.74v4.76h-.74ZM94.44,22.93c-.15,0-.28-.05-.39-.15s-.16-.23-.16-.38.05-.28.16-.38c.11-.1.24-.15.39-.15s.28.05.39.15.16.23.16.38-.05.28-.16.38c-.11.1-.24.15-.39.15Z"/>
  <path class="cls-2" d="M98.2,28.79c-.5,0-.95-.11-1.34-.33s-.7-.52-.92-.9-.33-.82-.33-1.3c0-.37.06-.71.19-1.01.13-.31.32-.57.56-.8s.53-.41.85-.53c.33-.12.69-.19,1.07-.19.3,0,.58.04.83.11.26.08.49.19.71.36l-.4.57c-.15-.12-.32-.21-.52-.27-.2-.07-.41-.1-.64-.1-.38,0-.72.07-1,.22-.28.14-.5.35-.66.63-.16.27-.23.61-.23.99,0,.58.17,1.04.51,1.37.34.33.8.5,1.38.5.26,0,.49-.05.72-.14.22-.09.4-.2.53-.34l.43.55c-.25.18-.52.33-.81.44-.29.1-.6.16-.92.16h-.01Z"/>
  <path class="cls-2" d="M101.87,28.79c-.35,0-.64-.06-.9-.19s-.45-.3-.58-.52c-.14-.23-.2-.49-.2-.79,0-.25.06-.48.19-.68.13-.21.34-.38.62-.52.29-.14.66-.23,1.12-.28.46-.05,1.01-.03,1.67.04l.03.57c-.54-.07-1-.09-1.37-.07s-.67.07-.9.16c-.22.08-.39.19-.49.33-.1.13-.15.28-.15.44,0,.27.1.49.29.64.2.15.47.23.82.23.29,0,.55-.05.79-.16.23-.11.42-.26.55-.45.14-.19.2-.41.2-.65v-1.39c0-.24-.05-.45-.16-.62s-.26-.31-.47-.4c-.2-.09-.45-.14-.74-.14-.25,0-.5.04-.76.11-.25.08-.49.2-.73.37l-.24-.59c.29-.2.59-.34.9-.42.31-.08.6-.12.88-.12.44,0,.81.07,1.11.21s.53.34.69.61.23.6.23,1v3.14h-.7v-.6c-.17.24-.41.43-.71.56-.3.13-.64.19-1,.19h0Z"/>
  <path class="cls-2" d="M105.25,28.64v-7.06h.74v7.06h-.74Z"/>
  <path class="cls-2" d="M46.46,37.79v-6.87h.76v3.91l3.23-3.91h.92l-2.53,3.08,2.95,3.79h-.99l-2.46-3.21-1.12,1.32v1.88h-.76Z"/>
  <path class="cls-2" d="M52.38,37.79v-4.76h.74v.68c.22-.29.46-.51.75-.63.29-.13.58-.19.87-.19.43,0,.79.09,1.08.26s.5.39.64.66c.14.26.21.53.21.81v3.18h-.74v-2.96c0-.38-.12-.68-.37-.91-.24-.24-.57-.35-.99-.35-.27,0-.52.06-.74.18s-.39.29-.52.51c-.13.22-.19.47-.19.76v2.78h-.74s0-.02,0-.02Z"/>
  <path class="cls-2" d="M59.89,37.94c-.49,0-.93-.11-1.32-.34s-.69-.53-.92-.92c-.22-.39-.33-.81-.33-1.27,0-.34.06-.67.19-.97.13-.3.31-.57.54-.8.23-.24.5-.42.82-.55.31-.13.65-.2,1.02-.2.49,0,.93.11,1.32.34s.69.54.92.92c.22.38.33.8.33,1.26,0,.34-.06.66-.19.97-.13.3-.3.57-.53.81-.23.23-.5.42-.82.55-.31.13-.65.2-1.03.2ZM59.89,37.27c.35,0,.66-.08.94-.23.27-.15.48-.37.64-.64.16-.28.23-.61.23-.99s-.08-.71-.23-.99c-.15-.28-.37-.49-.64-.64-.27-.15-.58-.23-.94-.23s-.66.08-.94.23c-.27.15-.49.36-.64.64-.15.28-.23.61-.23.99s.08.71.23.99c.16.27.37.49.64.64.27.15.58.23.94.23Z"/>
  <path class="cls-2" d="M64.14,37.79l-1.56-4.76h.77l1.21,3.91,1.29-3.91h.78l1.19,3.91,1.25-3.91h.72l-1.56,4.76h-.8l-1.22-3.79-1.26,3.79h-.81Z"/>
  <path class="cls-2" d="M70.4,37.79v-7.06h.74v7.06h-.74Z"/>
  <path class="cls-2" d="M74.32,37.94c-.51,0-.96-.1-1.34-.31-.39-.21-.69-.5-.91-.88s-.33-.82-.33-1.32c0-.36.06-.7.18-1.01.13-.31.3-.58.53-.81.23-.23.49-.41.8-.53.31-.13.64-.19,1-.19.38,0,.72.07,1.02.2.3.13.55.32.75.56s.35.52.43.84c.09.32.11.67.07,1.04h-4.01c-.02.35.05.66.2.93.15.26.37.47.66.61.29.15.63.22,1.03.22.26,0,.52-.04.78-.13s.48-.21.67-.38l.36.56c-.16.13-.35.24-.56.33s-.43.15-.65.2c-.22.04-.44.06-.66.06h-.02,0ZM72.53,34.93h3.22c-.02-.44-.15-.79-.41-1.04s-.63-.37-1.11-.37-.86.12-1.16.37c-.31.25-.48.59-.53,1.04h0Z"/>
  <path class="cls-2" d="M79.57,37.94c-.48,0-.9-.11-1.27-.34-.37-.23-.65-.53-.86-.91s-.31-.81-.31-1.28c0-.35.06-.67.17-.98.12-.31.29-.58.5-.81s.47-.41.77-.54c.3-.13.63-.2.99-.2.49,0,.9.1,1.24.29.34.19.62.45.83.77l-.13.16v-3.39h.74v7.06h-.7v-1.08l.11.17c-.2.3-.47.55-.8.76-.33.2-.76.3-1.29.3v.02h.01ZM79.71,37.27c.35,0,.66-.08.94-.23.27-.15.48-.37.64-.64.16-.28.23-.61.23-.99s-.08-.71-.23-.99c-.15-.28-.37-.49-.64-.64-.27-.15-.58-.23-.94-.23s-.66.08-.94.23c-.27.15-.48.36-.64.64-.16.28-.23.61-.23.99s.08.71.23.99c.16.27.37.49.64.64.27.15.58.23.94.23Z"/>
  <path class="cls-2" d="M85.2,40c-.36,0-.69-.03-.98-.1s-.53-.16-.73-.28c-.2-.12-.36-.27-.46-.44-.11-.17-.16-.36-.16-.57,0-.17.05-.33.14-.48.09-.15.23-.27.41-.38.19-.11.42-.19.69-.24-.2-.09-.34-.2-.44-.31-.1-.12-.14-.25-.14-.41,0-.13.04-.25.11-.36.08-.11.18-.21.32-.3s.31-.16.5-.22c.2-.06.41-.1.65-.12l.2.38c-.22,0-.4.02-.57.06-.16.04-.29.09-.38.17-.09.07-.13.16-.13.26,0,.13.08.23.23.28s.35.09.59.11l.83.06c.41.03.76.09,1.05.2.29.1.5.24.65.42s.22.4.22.67c0,.23-.06.44-.19.63-.12.2-.3.37-.53.51-.23.15-.5.26-.82.34s-.67.12-1.05.12c0,0-.01,0-.01,0ZM85.23,39.43c.56,0,1-.09,1.32-.26s.48-.4.48-.67c0-.21-.11-.37-.34-.49-.22-.12-.56-.19-1.01-.23l-.87-.06c-.25.02-.46.06-.65.13-.18.07-.32.17-.41.28-.09.12-.14.25-.14.4,0,.18.06.33.19.47.13.13.31.24.55.31.24.08.53.11.86.11h.02ZM85.22,36.27c-.39,0-.74-.08-1.06-.23-.32-.15-.57-.35-.75-.61-.19-.26-.28-.54-.28-.86s.09-.6.28-.85c.19-.26.44-.46.75-.61.32-.15.67-.23,1.06-.23s.73.08,1.05.23c.32.15.57.35.75.61.19.26.28.54.28.85s-.09.6-.28.85c-.19.26-.44.46-.75.61-.32.15-.67.23-1.05.23h0ZM85.22,35.64c.26,0,.49-.04.69-.13.2-.09.36-.22.47-.38s.17-.35.17-.56c0-.32-.12-.57-.37-.77s-.57-.29-.96-.29c-.27,0-.5.05-.7.14s-.36.21-.47.37-.17.35-.17.55c0,.32.12.58.37.78.25.2.57.29.97.29ZM85.99,33.66l-.27-.55,2.39-.07v.64h-2.13v-.02h0Z"/>
  <path class="cls-2" d="M90.7,37.94c-.51,0-.96-.1-1.34-.31-.39-.21-.69-.5-.91-.88s-.33-.82-.33-1.32c0-.36.06-.7.18-1.01.13-.31.3-.58.53-.81.23-.23.49-.41.8-.53.31-.13.64-.19,1-.19.38,0,.72.07,1.02.2.3.13.55.32.75.56s.35.52.43.84c.09.32.11.67.07,1.04h-4.01c-.02.35.05.66.2.93.15.26.37.47.66.61.29.15.63.22,1.03.22.26,0,.52-.04.78-.13s.48-.21.67-.38l.36.56c-.16.13-.35.24-.56.33s-.43.15-.65.2c-.22.04-.44.06-.66.06h-.02,0ZM88.91,34.93h3.22c-.02-.44-.15-.79-.41-1.04s-.63-.37-1.11-.37-.86.12-1.16.37c-.31.25-.48.59-.53,1.04h0Z"/>
  <path class="cls-2" d="M94.78,37.79l2.77-6.87h.74l2.88,6.87h-.85l-.75-1.8h-3.25l-.71,1.8s-.83,0-.83,0ZM96.56,35.32h2.77l-1.42-3.4-1.35,3.4Z"/>
  <path class="cls-2" d="M101.55,37.79v-7.06h.74v7.06h-.74Z"/>
  <path class="cls-2" d="M103.32,37.79v-7.06h.74v7.06h-.74Z"/>
  <path class="cls-2" d="M105.1,37.79v-4.76h.74v4.76h-.74ZM105.47,32.08c-.15,0-.28-.05-.39-.15s-.16-.23-.16-.38.05-.28.16-.38c.11-.1.24-.15.39-.15s.28.05.39.15.16.23.16.38-.06.28-.16.38c-.11.1-.24.15-.39.15Z"/>
  <path class="cls-2" d="M108.2,37.94c-.34,0-.64-.06-.9-.19-.25-.12-.45-.3-.58-.52-.14-.23-.2-.49-.2-.79,0-.25.06-.48.19-.68.13-.21.34-.38.62-.52.29-.14.66-.23,1.11-.28s1.02-.03,1.67.04l.02.57c-.54-.07-1-.09-1.37-.07s-.67.07-.9.16c-.23.08-.39.19-.49.33-.1.13-.15.28-.15.44,0,.27.1.49.29.64.2.15.47.23.82.23.29,0,.55-.05.79-.16.23-.11.42-.26.55-.45.14-.19.2-.41.2-.65v-1.39c0-.24-.05-.45-.16-.62s-.26-.31-.47-.4c-.2-.09-.45-.14-.74-.14-.25,0-.5.04-.76.11-.25.08-.49.2-.73.37l-.24-.59c.29-.2.59-.34.9-.42.31-.08.6-.12.88-.12.44,0,.81.07,1.12.21.3.14.53.34.69.61s.23.6.23,1v3.14h-.7v-.6c-.17.24-.41.43-.71.56-.3.13-.64.19-1,.19h.02Z"/>
  <path class="cls-2" d="M111.58,37.79v-4.76h.74v.68c.22-.29.46-.51.75-.63.29-.13.58-.19.87-.19.43,0,.79.09,1.07.26.29.17.5.39.64.66.14.26.21.53.21.81v3.18h-.74v-2.96c0-.38-.12-.68-.37-.91-.24-.24-.57-.35-.99-.35-.27,0-.52.06-.74.18s-.39.29-.52.51c-.13.22-.19.47-.19.76v2.78h-.74v-.02h0Z"/>
  <path class="cls-2" d="M119.02,37.94c-.5,0-.95-.11-1.34-.33s-.7-.52-.92-.9-.33-.82-.33-1.3c0-.37.07-.71.19-1.01.13-.31.32-.57.56-.8s.53-.41.85-.53c.33-.12.68-.19,1.07-.19.3,0,.58.04.83.11.26.08.49.19.71.36l-.4.57c-.15-.12-.32-.21-.52-.27-.2-.07-.41-.1-.64-.1-.39,0-.72.07-1,.22-.28.14-.5.35-.66.63-.16.27-.23.61-.23.99,0,.58.17,1.04.51,1.37.34.33.8.5,1.38.5.26,0,.5-.05.72-.14s.4-.2.53-.34l.43.55c-.25.18-.52.33-.81.44-.29.1-.6.16-.92.16h-.01Z"/>
  <path class="cls-2" d="M123.31,37.94c-.51,0-.96-.1-1.34-.31s-.69-.5-.91-.88-.33-.82-.33-1.32c0-.36.06-.7.18-1.01.13-.31.3-.58.53-.81.23-.23.5-.41.8-.53.31-.13.64-.19.99-.19.38,0,.72.07,1.02.2.3.13.55.32.75.56s.35.52.43.84c.09.32.11.67.07,1.04h-4.01c-.02.35.05.66.2.93.15.26.37.47.66.61.29.15.63.22,1.03.22.26,0,.52-.04.78-.13s.48-.21.67-.38l.36.56c-.16.13-.35.24-.56.33s-.43.15-.65.2c-.22.04-.44.06-.66.06h0ZM121.52,34.93h3.22c-.02-.44-.15-.79-.41-1.04-.25-.25-.62-.37-1.11-.37s-.86.12-1.16.37c-.31.25-.48.59-.53,1.04h0Z"/>
  <path class="cls-2" d="M52.13,18.46c1.2.48,2.51.72,3.91.72s2.62-.24,3.77-.72,2.15-1.14,2.99-1.99c.84-.87,1.5-1.88,1.97-3.03.49-1.17.73-2.44.73-3.82v-.59c0-.32-.26-.58-.59-.58h-8.58c-.33,0-.59.26-.59.58v2.18c0,.32.26.58.59.58h4.26c.38,0,.66.34.52.69-.18.48-.45.92-.79,1.33-.49.58-1.09,1.04-1.81,1.38-.72.32-1.53.48-2.43.48s-1.66-.15-2.4-.45c-.72-.32-1.36-.74-1.91-1.27-.54-.55-.96-1.2-1.27-1.94-.31-.74-.46-1.55-.46-2.42s.14-1.66.43-2.39c.31-.74.73-1.38,1.27-1.91.54-.55,1.17-.97,1.89-1.27.72-.32,1.5-.48,2.34-.48,1.01,0,1.95.2,2.83.61.7.32,1.32.77,1.87,1.34.24.24.63.28.88.05l1.85-1.68c.23-.21.26-.56.05-.78-.84-.9-1.86-1.61-3.06-2.14-1.38-.62-2.86-.94-4.42-.94-1.38,0-2.69.25-3.91.74-1.2.48-2.25,1.16-3.15,2.05-.9.87-1.61,1.89-2.13,3.05-.5,1.15-.75,2.4-.75,3.75s.25,2.6.75,3.77c.52,1.15,1.24,2.17,2.16,3.05.92.87,1.98,1.55,3.18,2.05h.01Z"/>
  <path class="cls-2" d="M67.23,18.54c0,.32.26.58.59.58h2.43c.33,0,.59-.26.59-.58V7.77c0-.61.83-.81,1.11-.27l4.89,9.29c.22.42.83.42,1.05,0l4.91-9.26c.29-.54,1.11-.34,1.11.27v10.73c0,.32.26.58.59.58h2.51c.33,0,.59-.26.59-.58V1.11c0-.32-.26-.58-.59-.58h-4.06c-.22,0-.42.12-.53.32l-4.48,8.68c-.22.42-.83.42-1.05,0l-4.48-8.68c-.1-.19-.3-.32-.53-.32h-4.06c-.33,0-.59.26-.59.58v17.43Z"/>
  <path class="cls-1" d="M89.65,18.54c0,.32.26.58.59.58h2.73c.33,0,.59-.26.59-.58v-6.58c0-.53.65-.78,1.02-.4l7.02,7.38c.11.12.27.18.43.18h7.5c.24,0,.46-.15.55-.37l1.65-4.15c.09-.22.31-.37.55-.37h6.98c.24,0,.46.15.55.37l1.62,4.14c.09.22.31.37.55.37h3c.14,0,.25-.08.25-.08.24-.14.37-.44.25-.72L118.27.89c-.09-.22-.31-.36-.55-.36h-3.71c-.24,0-.45.14-.54.36l-7.27,17.42-8.39-8.52c-.23-.23-.22-.6.01-.82l7.71-7.44c.38-.36.12-1-.41-1h-3.08c-.16,0-.31.06-.42.17l-7.06,7.12c-.37.37-1.01.11-1.01-.41V1.11c0-.32-.26-.58-.59-.58h-2.73c-.33,0-.59.26-.59.58v17.43h.01ZM113.39,10.36c-.15.38.14.79.55.79h3.67c.42,0,.7-.41.55-.79l-1.83-4.66c-.19-.5-.9-.5-1.1,0l-1.83,4.66h-.01Z"/>
</svg>