<?xml version="1.0" encoding="UTF-8"?>
<svg id="Layer_1" data-name="Layer 1" xmlns="http://www.w3.org/2000/svg" viewBox="0 0 1542.16 368.26">
  <defs>
    <style>
      .cls-1 {
        fill: #fff;
      }
    </style>
  </defs>
  <path class="cls-1" d="M982.51,261.54v15.78c0,4-.36,5.47-1.7,6.84s-3.45,1.82-9.14,1.82c-6.38,0-8.81-.43-10.33-1.82-1.31-1.23-1.56-2.28-1.56-6.38v-.94h2.83v1.71c0,2.86.43,3.81,2,4.31,2.26.51,4.58.71,6.89.59,3.19,0,5.37-.26,6.38-.77,1.34-.69,1.74-2.07,1.74-6.27v-14.87h2.89Z"/>
  <path class="cls-1" d="M1017.09,261.54h24.07v2.46h-21.16v8.09h20.41v2.28h-20.41v9h21.35v2.44h-24.25v-24.27Z"/>
  <path class="cls-1" d="M1076,261.54l10,21.54,10.19-21.54h3.41l10.18,21.54,10.08-21.54h3l-11.42,24.19h-3.44l-10.07-21.36-10.12,21.36h-3.55l-11.42-24.19h3.16Z"/>
  <path class="cls-1" d="M1155.21,261.54h24.07v2.46h-21.17v8.09h20.41v2.28h-20.41v9h21.35v2.44h-24.25v-24.27Z"/>
  <path class="cls-1" d="M1213,261.54h2.9v21.75h19.18v2.44h-22.08v-24.19Z"/>
  <path class="cls-1" d="M1267.24,261.54h19.94c3.66,0,5.36.47,6.63,1.86,1,1.08,1.49,2.93,1.49,5.54,0,3.92-.91,5.29-3.88,6,2.46.48,3.4,1.74,3.4,4.53v6.28h-2.89v-4.61c.07-4.17-1-5.18-5.19-5.15h-16.6v9.76h-2.9v-24.21ZM1286.05,273.69c5,0,6.24-1,6.24-4.9s-1.29-4.79-6.42-4.79h-15.73v9.72l15.91-.03Z"/>
  <path class="cls-1" d="M1352.69,261.54h4l-14,14v10.15h-2.9v-10.11l-14-14h4l11.53,11.64,11.37-11.68Z"/>
  <path class="cls-1" d="M773.19,133.51h32.07c2.35.02,4.69.27,7,.73,2.57.5,5.01,1.52,7.17,3,2.35,1.66,4.25,3.87,5.54,6.44,1.48,2.78,2.22,6.42,2.21,10.92,0,6.61-2.04,11.71-6.11,15.29-4.07,3.58-9.91,5.37-17.52,5.38h-25.72v33.55h-4.64v-75.31ZM777.83,171.27h26.48c2.94.09,5.87-.44,8.6-1.53,4.15-1.65,7.35-5.07,8.7-9.33.63-1.91.95-3.9.95-5.91-.03-1.68-.25-3.36-.63-5-.46-2.01-1.32-3.92-2.53-5.59-1.4-1.91-3.22-3.47-5.33-4.54-2.85-1.35-5.98-1.99-9.13-1.85h-27.11v33.75Z"/>
  <path class="cls-1" d="M847.25,133.51h31.44c3.12-.02,6.24.31,9.28,1,2.72.6,5.3,1.71,7.6,3.27,2.19,1.53,3.95,3.6,5.11,6,1.32,2.88,1.95,6.02,1.85,9.18.14,4.64-1.37,9.19-4.27,12.82-3.01,3.57-7.24,5.88-11.87,6.48v.21c2.91.24,5.72,1.18,8.18,2.75,1.91,1.31,3.46,3.09,4.48,5.17,1.01,2.13,1.65,4.41,1.9,6.75.28,2.45.42,4.91.42,7.38v4.33c-.01,1.34.06,2.67.21,4,.13,1.16.36,2.31.69,3.43.26.96.71,1.85,1.32,2.63h-5.17c-1.03-1.9-1.59-4.01-1.64-6.17-.1-2.35-.16-4.8-.16-7.33s-.1-5-.31-7.54c-.17-2.35-.85-4.64-2-6.7-1.25-2.09-3.11-3.74-5.33-4.75-2.42-1.2-5.85-1.8-10.28-1.79h-26.8v34.28h-4.64v-75.4ZM878.69,170.51c2.58.02,5.16-.31,7.65-1,2.22-.59,4.29-1.65,6.06-3.11,1.73-1.46,3.1-3.3,4-5.38,1.05-2.47,1.55-5.13,1.48-7.81.07-2.5-.47-4.97-1.58-7.21-1.01-1.94-2.45-3.62-4.22-4.91-1.84-1.3-3.92-2.23-6.12-2.74-2.38-.57-4.83-.86-7.28-.85h-26.8v33h26.81Z"/>
  <path class="cls-1" d="M993.68,171.17c.04,5.25-.78,10.47-2.43,15.45-1.49,4.6-3.87,8.87-7,12.56-3.1,3.58-6.94,6.44-11.25,8.39-9.66,4.08-20.56,4.08-30.22,0-4.33-1.94-8.18-4.8-11.29-8.39-3.13-3.69-5.51-7.96-7-12.56-3.23-10.05-3.23-20.86,0-30.91,1.49-4.6,3.87-8.86,7-12.55,3.11-3.59,6.96-6.45,11.29-8.39,9.66-4.08,20.56-4.08,30.22,0,4.31,1.95,8.14,4.81,11.24,8.39,3.13,3.69,5.51,7.95,7,12.55,1.65,4.99,2.47,10.21,2.44,15.46ZM926.68,171.17c-.03,4.65.68,9.28,2.11,13.71,1.3,4.1,3.38,7.92,6.12,11.24,9.01,10.26,23.69,13.37,36.09,7.65,3.75-1.84,7.08-4.44,9.76-7.65,2.74-3.32,4.81-7.14,6.12-11.24,2.81-8.93,2.81-18.5,0-27.43-1.31-4.1-3.38-7.91-6.12-11.23-2.68-3.21-6.01-5.81-9.76-7.65-12.41-5.74-27.11-2.63-36.13,7.65-2.74,3.32-4.82,7.13-6.12,11.23-1.43,4.43-2.13,9.06-2.1,13.72h.03Z"/>
  <path class="cls-1" d="M1020,133.51v45.15c0,1.48.07,3.2.21,5.17.33,4.25,1.49,8.39,3.43,12.18,1.04,2.04,2.46,3.86,4.17,5.38,1.9,1.67,4.1,2.96,6.49,3.8,3,1.02,6.16,1.51,9.33,1.43,3.98.1,7.94-.58,11.66-2,2.97-1.19,5.58-3.12,7.6-5.6,2.02-2.59,3.44-5.6,4.16-8.81.89-3.8,1.32-7.7,1.27-11.6v-45.1h4.68v45.15c.03,4.23-.44,8.44-1.42,12.55-.86,3.68-2.5,7.13-4.8,10.13-2.38,2.99-5.48,5.33-9,6.81-4.48,1.78-9.27,2.63-14.09,2.48-3.86.08-7.72-.49-11.39-1.69-2.87-.96-5.53-2.45-7.86-4.38-2.02-1.72-3.69-3.82-4.91-6.17-2.24-4.3-3.57-9.02-3.9-13.86-.14-2.21-.21-4.16-.21-5.85v-45.17h4.58Z"/>
  <path class="cls-1" d="M1097.91,133.51h24.69c6.75,0,12.36,1.05,16.83,3.16,4.2,1.9,7.88,4.8,10.71,8.44,2.69,3.57,4.61,7.65,5.64,12,1.1,4.56,1.65,9.23,1.64,13.92.04,5.05-.65,10.08-2.06,14.93-1.26,4.4-3.43,8.49-6.38,12-2.99,3.46-6.72,6.2-10.92,8-4.96,2.05-10.3,3.03-15.67,2.9h-24.48v-75.35ZM1122.81,204.82c3.6-.01,7.17-.56,10.61-1.63,3.58-1.11,6.87-2.98,9.65-5.49,3.09-2.87,5.48-6.41,7-10.34,1.8-4.32,2.7-9.75,2.69-16.3.08-4.44-.43-8.88-1.53-13.18-.84-3.27-2.19-6.38-4-9.23-1.49-2.33-3.43-4.33-5.7-5.91-2.06-1.4-4.3-2.52-6.65-3.33-2.22-.76-4.52-1.27-6.86-1.53-2.05-.23-4.11-.35-6.17-.37h-19.3v67.31h20.26Z"/>
  <path class="cls-1" d="M1229.16,155c-.07-2.93-.77-5.81-2.06-8.44-1.2-2.35-2.91-4.4-5-6-2.26-1.69-4.82-2.92-7.55-3.64-3.11-.83-6.32-1.24-9.54-1.21-2.29.02-4.57.27-6.81.74-2.38.47-4.66,1.34-6.75,2.58-2.07,1.24-3.83,2.96-5.12,5-1.4,2.34-2.1,5.03-2,7.76-.12,2.64.66,5.24,2.21,7.38,1.55,1.96,3.54,3.53,5.81,4.59,2.63,1.24,5.38,2.18,8.22,2.8l9.39,2c3.16.67,6.31,1.42,9.45,2.27,2.9.81,5.67,2.02,8.23,3.59,2.39,1.48,4.39,3.5,5.85,5.9,1.57,2.78,2.34,5.94,2.22,9.13.12,3.48-.76,6.92-2.54,9.92-1.63,2.62-3.81,4.85-6.38,6.54-2.61,1.71-5.5,2.94-8.54,3.64-2.95.72-5.97,1.09-9,1.11-4.19.03-8.37-.45-12.45-1.43-3.65-.85-7.1-2.43-10.13-4.64-2.91-2.17-5.24-5.01-6.81-8.28-1.75-3.87-2.56-8.1-2.37-12.35h4.64c-.31,3.6.31,7.21,1.8,10.5,1.35,2.78,3.36,5.18,5.85,7,2.64,1.91,5.63,3.28,8.81,4,3.49.82,7.07,1.23,10.66,1.22,2.43-.02,4.85-.3,7.22-.85,2.5-.53,4.9-1.5,7.07-2.85,2.16-1.34,3.99-3.14,5.38-5.27,1.52-2.47,2.27-5.33,2.16-8.23.12-2.75-.65-5.47-2.21-7.75-1.54-2.06-3.55-3.73-5.86-4.86-2.62-1.32-5.38-2.32-8.23-3-3.06-.74-6.2-1.43-9.44-2.06s-6.29-1.37-9.39-2.21c-2.89-.76-5.66-1.92-8.23-3.43-2.34-1.39-4.32-3.31-5.8-5.59-1.57-2.66-2.34-5.72-2.21-8.81-.09-3.22.69-6.41,2.26-9.23,1.46-2.51,3.48-4.64,5.91-6.23,2.51-1.62,5.28-2.79,8.18-3.48,2.94-.73,5.97-1.1,9-1.11,3.71-.03,7.4.42,11,1.32,3.23.79,6.29,2.19,9,4.12,2.59,1.89,4.7,4.37,6.17,7.22,1.61,3.31,2.49,6.94,2.57,10.62h-4.64Z"/>
  <path class="cls-1" d="M1247.72,137.51v-4h57.71v4h-26.58v71.32h-4.65v-71.32h-26.48Z"/>
  <path class="cls-1" d="M1386.14,171.17c.04,5.25-.78,10.47-2.43,15.45-1.49,4.6-3.87,8.87-7,12.56-3.1,3.58-6.93,6.44-11.24,8.39-9.66,4.08-20.56,4.08-30.22,0-4.33-1.94-8.18-4.8-11.29-8.39-3.13-3.69-5.51-7.96-7-12.56-3.24-10.05-3.24-20.86,0-30.91,1.49-4.6,3.87-8.86,7-12.55,3.11-3.59,6.96-6.45,11.29-8.39,9.66-4.08,20.56-4.08,30.22,0,4.31,1.95,8.14,4.81,11.24,8.39,3.13,3.69,5.51,7.95,7,12.55,1.65,4.99,2.47,10.21,2.43,15.46ZM1319.14,171.17c-.03,4.65.68,9.28,2.11,13.71,1.3,4.1,3.38,7.92,6.12,11.24,9.02,10.28,23.73,13.39,36.14,7.65,3.75-1.84,7.07-4.45,9.76-7.65,2.74-3.32,4.81-7.14,6.12-11.24,2.81-8.93,2.81-18.5,0-27.43-1.31-4.1-3.38-7.91-6.12-11.23-2.69-3.2-6.01-5.81-9.76-7.65-8.36-3.8-17.96-3.8-26.32,0-3.78,1.82-7.12,4.43-9.81,7.65-2.74,3.32-4.82,7.13-6.12,11.23-1.43,4.43-2.14,9.06-2.11,13.72h-.01Z"/>
  <path class="cls-1" d="M1407.77,133.51h5.8l47.58,69.1h.21v-69.1h4.64v75.32h-5.48l-47.9-69.63h-.21v69.63h-4.64v-75.32Z"/>
  <path class="cls-1" d="M1491,133.51h50.64v4h-46v30.18h43.25v4h-43.25v33.12h46.52v4h-51.16v-75.3Z"/>
  <path class="cls-1" d="M214.91.3l-120.2-.3,175.41,278.29c5.27-12.84,12.34-24.87,21-35.73L214.91.3Z"/>
  <path class="cls-1" d="M365.37,111.64l3.1-14c-4.18-2.05-5.91-7.1-3.86-11.28,2.05-4.18,7.1-5.91,11.28-3.86s5.91,7.1,3.86,11.28c-1.39,2.84-4.26,4.66-7.42,4.72l-3.33,15c1.76,1,3.44,2.12,5.05,3.35l10.5-10.95c-2.51-3.92-1.36-9.14,2.57-11.64,3.92-2.51,9.14-1.36,11.64,2.57,2.51,3.92,1.36,9.14-2.57,11.64-2.67,1.7-6.06,1.77-8.79.17l-10.35,10.79c1.59,1.51,3.05,3.15,4.36,4.91l12.95-3.34c-.09-4.67,3.61-8.52,8.28-8.62,4.67-.09,8.52,3.61,8.62,8.28s-3.61,8.52-8.28,8.62c-3.18.06-6.12-1.66-7.62-4.46l-11.62,3c.69,1.15,1.33,2.34,1.93,3.58,7,14.48,8.64,36.47-3.21,64.43-14.29,31.63-30.26,86.64-10.24,133.58L475.68.33l-120.27.3v108.07c2.52.31,4.99.92,7.36,1.82.89.36,1.76.73,2.6,1.12Z"/>
  <path class="cls-1" d="M345.65,159.6c-1.14-27-30.26-28.31-37.42-26.38,10.77-15.93,25-23.08,37.42-24.54V.63l-120.5-.3,73.34,233.29c22.36-25.59,46.12-42.41,47.16-70.43v-3.59Z"/>
  <path class="cls-1" d="M606.24,0l-120.32.3-107.38,341.57c1.93,3.25,4.03,6.39,6.29,9.42L606.24,0Z"/>
  <path class="cls-1" d="M398.23,366.14l2.51,2.12L701.08,88.32,615.62,3.43l-224.25,355.78c2.14,2.36,4.43,4.67,6.86,6.93Z"/>
  <path class="cls-1" d="M266,290L85.39,3.51,0,88.32l257.48,240,2-1.33c.72-12.54,2.91-24.96,6.52-36.99Z"/>
  <circle class="cls-1" cx="357.4" cy="132.17" r="8.5"/>
</svg>