<?xml version="1.0" encoding="UTF-8"?>
<svg id="Layer_1" data-name="Layer 1" xmlns="http://www.w3.org/2000/svg" viewBox="0 0 255.12 36.24">
  <defs>
    <style>
      .cls-1 {
        fill: #fff;
      }
    </style>
  </defs>
  <path class="cls-1" d="M192.33,36.24h-10.13c.78-.55,1.29-1.31,1.29-2.38l-.02-15.02c0-1.75-.48-3.31-.93-5.05l7.14-2.53,1,2.65c1.32-1.22,2.69-2.3,4.48-2.41,2.81-.17,5.21,1.4,5.94,4.09,1.15,4.27.71,8.89-3.19,11.66-2,1.42-4.43,1.61-6.65.53-.56.09-1.16.88-1.15,1.5l.1,6.03,2.11.92ZM191.26,27.12c1.02-.71,1.85-1.3,2.58-1.96.49-3.03.47-5.78,0-8.76l-2.64-1.84c-.7.75-1.06,1.42-1.06,2.34v7.66c0,1.03.36,1.89,1.12,2.55Z"/>
  <path class="cls-1" d="M40.66,25.13c1.15,1.56,4.82,4.49,3.18,4.49l-10.33-.02,1.21-2.21-7.34-9.98-.22,5.37c-.18,4.31,1.07,3.84,2.7,6.78h-12.15s2.12-2.7,2.12-2.7c.69-.87.8-2.04.71-3.15-.16-2.1.23-3.96-.2-6.31l-7.31,9.95,1.21,2.23-10.69-.04L15.79,13.43,6.08,4.7c-.48-.43-.77-.92-1.02-1.59l8.93.02-2.38,4.34,8.83,7.83c.15-2.76.26-5.35-.02-8-.17-1.56-1.65-2.61-2.44-4.18l11.82-.02c-1.71,3.49-2.72,2.15-2.61,6.94l.12,5.3,8.77-7.9-2.38-4.31,8.93-.02c-.23.67-.52,1.18-.99,1.6l-9.66,8.62,8.67,11.82Z"/>
  <path class="cls-1" d="M128.11,28.06c-1.98.14-3.67.14-5.62.12-.97-.01-1.97-.53-2.5-1.32l-3.72-5.55-.12,6.76h-7.45c.28-.95.69-1.85.69-2.78l-.04-15.77c0-1.04-.87-2.04-1.19-3.13l7.64-2.69.02,16.28,4.25-3.11.5-4.59,5.26.02c.51.77.18,2.03-.59,2.54l-4.38,2.87,7.25,10.35Z"/>
  <path class="cls-1" d="M64.95,28.13l-10.56-.02,2.3-.97.02-18.59c0-1.68-.9-2.96-2.31-3.92l11.37.02c-1.52,1-1.8,2.13-1.8,3.7l.06,17.15c0,.82.56,1.67.91,2.62Z"/>
  <path class="cls-1" d="M146.98,26.11c0,1.23.8,1.67,1.7,1.96h-10.57c.96-.28,1.49-.75,1.64-1.71V7.26c-.02-1.04-.96-1.75-1.66-2.53h10.9c-1.13.8-1.77,1.62-2,2.92l.05,8.57-.05,9.9Z"/>
  <path class="cls-1" d="M173.12,26.77c-2.32.85-6.77,3.56-8.33-.38-.71-1.79-.01-3.71,1.7-4.59,2.19-1.13,4.34-1.86,6.77-2.56-.19-.9-.4-1.83-.67-2.72-.84-2.74-3.99-2.1-6.13-1.89,2.08-2.57,5.48-3.62,8.81-2.94,7.07,1.44,3.3,11.05,4.97,16.43l-5.96.03c-.7,0-1.05-.51-1.16-1.38ZM173.3,25.43l-.03-4.83c-2.02.01-2.91,1.56-2.68,3.33.08.63.46,1.41.9,1.67s1.52.26,1.8-.17Z"/>
  <path class="cls-1" d="M236.7,26.6l-3.95,1.66c-1.72.72-3.51-.04-4.26-1.42-.89-1.64-.59-3.62.98-4.68,2.17-1.46,4.47-2.19,7.17-2.77-.06-1.76-.59-4.63-2.85-4.87l-3.14-.33c1.67-2.27,4.6-3,7.34-2.67,3.27.4,5.2,2.9,5.2,6.11v7.01c.02,1.19.32,2.28.67,3.49l-6.16-.05-1-1.49ZM236.65,25.69v-5.46c-1.17.25-2.07,1.03-2.42,1.9-.43,1.07-.36,2.21.32,3.13.38.52,1.46.69,2.1.44Z"/>
  <path class="cls-1" d="M246.99,28.07c.6-1.49.73-2.6.72-4l-.05-14.93-1.19-2.74,7.76-2.72.04,20.16c0,1.46.15,2.64.63,4.24h-7.91Z"/>
  <path class="cls-1" d="M222.14,22.07c0,1.07.5,2.14,1.1,2.63.82.67,1.94.7,3.12.69-1.2,2.49-4,3.46-6.7,2.99-2.01-.35-3.65-1.48-3.87-3.63-.4-3.92-.45-7.84-.44-11.72l-2.29-.71,8.65-6.32.49,4.53c.08.78.74,1.45,1.51,1.54l2.41.27c-.86.85-4.02-.18-4.01,2.38l.02,7.34Z"/>
  <path class="cls-1" d="M72.86,28.19c-.88,0-1.67-.51-2.23-1.14l-5.6-8.98c-.58-.93-.09-2.1.57-2.88,2.45-2.86,4.66-5.67,6.92-8.72l-2.09-1.69,9.47.02-7.69,5.03c-1,.65-1.85,1.63-2.68,2.5l10.62,15.74c-2.44.15-4.76.16-7.3.14Z"/>
  <path class="cls-1" d="M160.28,24.08c1,1.63,2.05,2.79,3.43,4.03l-8.37.11c-.6-.2-1.31-.54-1.64-1.06l-6.46-10.22c2.89-3.33,5.59-6.66,8.26-10.24l-1.78-1.79,9.14.05-8.22,5.32c-.84.55-1.53,1.27-2.16,2.12l4.25,6.3c1.19,1.77,2.37,3.46,3.54,5.38Z"/>
  <path class="cls-1" d="M100.88,27.14l1.84.96-9.3.05c1.69-3.06,1.24-10.9-.69-13.99l8.1-2.69.12,3.45,3.04-2.38c.75-.59,1.89-.91,2.83-1.13v7.78s-5.92-3.14-5.92-3.14l-.02,11.07Z"/>
  <path class="cls-1" d="M82.3,28.08c1.55-3.44,1.17-7.59.6-11.26l-1.16-2.85,8.45-2.95.04,15.92c0,.4.43.86.61,1.06l-8.54.09Z"/>
  <path class="cls-1" d="M203.8,28.05c1.44-3.68.98-10.88-.68-14.1l7.96-2.76c.46,6.02-.26,10.84.43,16.88l-7.71-.03Z"/>
  <ellipse class="cls-1" cx="86.58" cy="6.96" rx="3.72" ry="3.7"/>
  <path class="cls-1" d="M207.99,10.63c-2.32.06-3.82-1.53-3.76-3.72s1.49-3.65,3.66-3.61,3.6,1.54,3.66,3.61-1.4,3.66-3.56,3.72Z"/>
</svg>