<svg xmlns="http://www.w3.org/2000/svg" id="Lag_1" viewBox="0 0 591.67 87.8"><defs><style>.cls-1{stroke:#1c3663;stroke-miterlimit:10;stroke-width:2px;}.cls-1,.cls-2{fill:#1c3663;}.cls-3{fill:#15a066;}</style></defs><g><path class="cls-2" d="m103.65,36.37h-12.67V10.11c.55-.14,1.34-.31,2.37-.51s2.16-.31,3.4-.31c2.4,0,4.15.43,5.25,1.29,1.1.86,1.65,2.39,1.65,4.58v21.22Zm11.54-9.48c4.39,0,8.36.94,11.9,2.83,3.54,1.89,6.33,4.74,8.39,8.55s3.09,8.57,3.09,14.27-1.08,10.58-3.24,14.42c-2.16,3.85-5.19,6.73-9.06,8.65-3.88,1.92-8.39,2.88-13.54,2.88-3.91,0-7.33-.46-10.25-1.39-2.92-.93-5.37-2.01-7.36-3.25-1.44-1.03-2.49-2.08-3.14-3.14-.65-1.06-.98-2.38-.98-3.96v-33.27h12.67v32.44c.89.62,2.11,1.18,3.66,1.7,1.54.52,3.31.77,5.3.77,3.91,0,7.06-1.3,9.42-3.91,2.37-2.61,3.55-6.59,3.55-11.95s-1.17-9.37-3.5-11.84c-2.33-2.47-5.39-3.71-9.17-3.71-2.4,0-4.53.45-6.39,1.34-1.85.89-3.43,1.92-4.74,3.09l-.82-10.3c1.58-.96,3.55-1.91,5.92-2.83,2.37-.93,5.13-1.39,8.29-1.39Z"></path><path class="cls-2" d="m154.94,59.13l-.51-8.86,27.6-4.12c-.21-2.61-1.2-4.88-2.99-6.8-1.79-1.92-4.4-2.88-7.83-2.88s-6.42,1.22-8.76,3.66c-2.33,2.44-3.54,5.92-3.6,10.45l.31,5.36c.62,4.4,2.32,7.62,5.1,9.68,2.78,2.06,6.3,3.09,10.56,3.09,2.88,0,5.56-.43,8.03-1.29,2.47-.86,4.43-1.8,5.87-2.83.96.62,1.73,1.39,2.32,2.32.58.93.88,1.94.88,3.04,0,1.79-.79,3.31-2.37,4.58-1.58,1.27-3.71,2.25-6.39,2.94-2.68.69-5.73,1.03-9.17,1.03-5.29,0-9.98-.98-14.06-2.94-4.09-1.96-7.28-4.89-9.58-8.81-2.3-3.91-3.45-8.79-3.45-14.63,0-4.19.65-7.86,1.96-11.02,1.3-3.16,3.07-5.78,5.3-7.88,2.23-2.09,4.82-3.67,7.78-4.74,2.95-1.06,6.04-1.6,9.27-1.6,4.53,0,8.5.91,11.9,2.73,3.4,1.82,6.08,4.34,8.03,7.57,1.96,3.23,2.94,6.94,2.94,11.12,0,1.92-.5,3.35-1.49,4.27-1,.93-2.39,1.49-4.17,1.7l-33.48,4.84Z"></path><path class="cls-2" d="m236.52,66.34v-32.34h12.67v33.68c0,1.51-.33,2.76-.98,3.76-.65,1-1.7,1.94-3.14,2.83-1.65,1.1-3.9,2.08-6.75,2.94-2.85.86-6.09,1.29-9.73,1.29-5.43,0-10.15-.91-14.16-2.73-4.02-1.82-7.12-4.64-9.32-8.45-2.2-3.81-3.3-8.63-3.3-14.47s1.12-10.88,3.35-14.73c2.23-3.84,5.24-6.68,9.01-8.5,3.78-1.82,7.96-2.73,12.57-2.73,2.54,0,4.86.31,6.95.93,2.09.62,3.79,1.34,5.1,2.16v10.81c-1.1-1.03-2.54-1.92-4.33-2.68-1.79-.75-3.85-1.13-6.18-1.13-2.54,0-4.84.53-6.9,1.6-2.06,1.07-3.67,2.78-4.84,5.15-1.17,2.37-1.75,5.44-1.75,9.22,0,5.36,1.24,9.27,3.71,11.74,2.47,2.47,5.8,3.71,9.99,3.71,1.85,0,3.43-.21,4.74-.62,1.3-.41,2.4-.89,3.3-1.44Zm12.67-29.77l-12.67.1V10.11c.48-.14,1.25-.31,2.32-.51,1.06-.21,2.18-.31,3.35-.31,2.47,0,4.26.43,5.36,1.29,1.1.86,1.65,2.39,1.65,4.58v21.42Z"></path><path class="cls-2" d="m275.24,39.98v14.11h-12.67v-15.14c0-1.72.41-3.18,1.24-4.38.82-1.2,1.99-2.32,3.5-3.35,2.06-1.24,4.67-2.27,7.83-3.09,3.16-.82,6.56-1.24,10.2-1.24,6.45,0,9.68,1.99,9.68,5.97,0,.96-.14,1.84-.41,2.63-.28.79-.62,1.49-1.03,2.11-.69-.14-1.55-.26-2.58-.36s-2.13-.15-3.3-.15c-2.47,0-4.79.26-6.95.77s-4,1.22-5.51,2.11Zm-12.67,9.89l12.67.62v26.37c-.55.21-1.34.39-2.37.57-1.03.17-2.16.26-3.4.26-2.34,0-4.07-.43-5.2-1.29-1.13-.86-1.7-2.38-1.7-4.58v-21.94Z"></path><path class="cls-2" d="m307.48,59.13l-.51-8.86,27.6-4.12c-.21-2.61-1.2-4.88-2.99-6.8-1.79-1.92-4.4-2.88-7.83-2.88s-6.42,1.22-8.75,3.66c-2.33,2.44-3.54,5.92-3.61,10.45l.31,5.36c.62,4.4,2.32,7.62,5.1,9.68,2.78,2.06,6.3,3.09,10.56,3.09,2.88,0,5.56-.43,8.03-1.29,2.47-.86,4.43-1.8,5.87-2.83.96.62,1.73,1.39,2.32,2.32.58.93.88,1.94.88,3.04,0,1.79-.79,3.31-2.37,4.58-1.58,1.27-3.71,2.25-6.39,2.94s-5.73,1.03-9.17,1.03c-5.29,0-9.98-.98-14.06-2.94-4.09-1.96-7.28-4.89-9.58-8.81-2.3-3.91-3.45-8.79-3.45-14.63,0-4.19.65-7.86,1.96-11.02,1.3-3.16,3.07-5.78,5.3-7.88,2.23-2.09,4.82-3.67,7.78-4.74,2.95-1.06,6.04-1.6,9.27-1.6,4.53,0,8.5.91,11.9,2.73,3.4,1.82,6.08,4.34,8.03,7.57,1.96,3.23,2.94,6.94,2.94,11.12,0,1.92-.5,3.35-1.49,4.27-1,.93-2.39,1.49-4.17,1.7l-33.48,4.84Z"></path><path class="cls-3" d="m369.69,56.77l-12.67-.62V10.11c.55-.14,1.34-.31,2.37-.51,1.03-.21,2.16-.31,3.4-.31,2.4,0,4.15.43,5.25,1.29,1.1.86,1.65,2.39,1.65,4.58v41.61Zm-12.67-7.11l12.67.62v26.57c-.55.21-1.34.39-2.37.57-1.03.17-2.16.26-3.4.26-2.33,0-4.07-.43-5.2-1.29-1.13-.86-1.7-2.38-1.7-4.58v-22.14Zm18.44,6.9l-8.86-5.87,23.38-23.28c2.54.07,4.57.67,6.08,1.8,1.51,1.13,2.27,2.59,2.27,4.38,0,1.44-.5,2.75-1.49,3.91-1,1.17-2.49,2.61-4.48,4.33l-16.89,14.73Zm-8.55-4.02l9.79-4.63,24,22.56c-.21,2.27-.89,4.05-2.06,5.36-1.17,1.3-2.78,1.96-4.84,1.96-1.58,0-3.02-.4-4.33-1.18-1.3-.79-2.64-2.01-4.02-3.66l-18.54-20.39Z"></path><path class="cls-3" d="m423.77,56.97l-12.67-.62V10.11c.48-.14,1.25-.31,2.32-.51,1.06-.21,2.18-.31,3.35-.31,2.47,0,4.26.43,5.36,1.29,1.1.86,1.65,2.39,1.65,4.58v41.82Zm-12.67-7.11l12.67.62v26.37c-.55.21-1.34.39-2.37.57-1.03.17-2.16.26-3.4.26-2.33,0-4.07-.43-5.2-1.29-1.13-.86-1.7-2.38-1.7-4.58v-21.94Z"></path><path class="cls-3" d="m437.05,13.81c0-1.99.7-3.67,2.11-5.05,1.41-1.37,3.17-2.06,5.3-2.06s3.96.69,5.3,2.06c1.34,1.37,2.01,3.06,2.01,5.05s-.67,3.59-2.01,5c-1.34,1.41-3.11,2.11-5.3,2.11s-3.9-.7-5.3-2.11c-1.41-1.41-2.11-3.07-2.11-5Zm13.8,42.54h-12.77v-27.6c.55-.21,1.36-.39,2.42-.57,1.06-.17,2.21-.26,3.45-.26,2.4,0,4.15.43,5.25,1.29,1.1.86,1.65,2.42,1.65,4.69v22.45Zm-12.77-6.49h12.77v26.99c-.55.21-1.34.39-2.37.57-1.03.17-2.16.26-3.4.26-2.33,0-4.09-.43-5.25-1.29-1.17-.86-1.75-2.38-1.75-4.58v-21.94Z"></path><path class="cls-3" d="m507.09,43.38v11.74h-12.67v-10.3c0-2.68-.81-4.65-2.42-5.92-1.61-1.27-3.66-1.91-6.13-1.91-1.79,0-3.42.26-4.89.77-1.48.52-2.73,1.12-3.76,1.8v15.55h-12.67v-16.38c0-1.65.34-3,1.03-4.07.69-1.06,1.71-2.04,3.09-2.94,2.13-1.44,4.75-2.61,7.88-3.5,3.12-.89,6.37-1.34,9.73-1.34s6.45.52,9.27,1.54c2.81,1.03,5.11,2.54,6.9,4.53.48.41.93.82,1.34,1.24.41.41.75.89,1.03,1.44.62,1.03,1.15,2.21,1.6,3.55.45,1.34.67,2.73.67,4.17Zm-42.54,6.8h12.67v26.68c-.55.21-1.34.39-2.37.57-1.03.17-2.16.26-3.4.26-2.34,0-4.07-.43-5.2-1.29-1.13-.86-1.7-2.38-1.7-4.58v-21.63Zm29.87,0h12.67v26.68c-.55.21-1.36.39-2.42.57-1.07.17-2.18.26-3.35.26-2.4,0-4.16-.43-5.25-1.29-1.1-.86-1.65-2.38-1.65-4.58v-21.63Zm42.44-5.77v10.71h-12.67v-10.3c0-2.68-.76-4.65-2.27-5.92-1.51-1.27-3.54-1.91-6.08-1.91-1.85,0-3.66.38-5.41,1.13-1.75.76-3.25,1.75-4.48,2.99l-6.39-7.73c2.13-1.79,4.64-3.31,7.52-4.58,2.88-1.27,6.32-1.91,10.3-1.91,3.64,0,6.93.58,9.89,1.75,2.95,1.17,5.29,3.06,7,5.67,1.71,2.61,2.57,5.97,2.57,10.09Zm-12.67,5.77h12.67v26.68c-.48.21-1.25.39-2.32.57-1.07.17-2.18.26-3.35.26-2.4,0-4.17-.43-5.3-1.29-1.13-.86-1.7-2.38-1.7-4.58v-21.63Z"></path><path class="cls-3" d="m568.79,26.9c6.73,0,12.08,1.43,16.07,4.27,3.98,2.85,5.97,7.33,5.97,13.44v23.69c0,1.65-.4,2.95-1.18,3.91-.79.96-1.8,1.82-3.04,2.58-1.92,1.1-4.36,2.01-7.31,2.73-2.95.72-6.28,1.08-9.99,1.08-6.87,0-12.26-1.32-16.17-3.97s-5.87-6.57-5.87-11.79c0-4.6,1.46-8.12,4.38-10.56,2.92-2.44,7.16-3.93,12.72-4.48l14.01-1.44v-1.85c0-2.75-.95-4.74-2.83-5.97-1.89-1.24-4.55-1.85-7.98-1.85-2.68,0-5.29.34-7.83,1.03-2.54.69-4.81,1.51-6.8,2.47-.69-.55-1.3-1.3-1.85-2.27-.55-.96-.82-1.96-.82-2.99,0-2.47,1.37-4.29,4.12-5.46,1.92-.89,4.17-1.54,6.75-1.96s5.13-.62,7.67-.62Zm.51,42.02c2.06,0,3.91-.21,5.56-.62,1.65-.41,2.85-.86,3.6-1.34v-11.74l-10.2,1.03c-2.82.21-4.96.81-6.44,1.8-1.48,1-2.21,2.46-2.21,4.38s.79,3.57,2.37,4.74c1.58,1.17,4.02,1.75,7.31,1.75Z"></path></g><path class="cls-1" d="m35.52,85.93c-2.45,0-4.49-2.01-4.49-4.46-.02-17.04,12.7-31.17,29.14-33.38v-5.88l-24.64-25.32-24.64,25.32v20.89h13.34c2.57,0,4.66,2.09,4.66,4.66v4.34H6.39c-2.48,0-4.5-2.01-4.5-4.5v-27.22c0-1.17.46-2.3,1.28-3.14L32.31,7.29c.85-.87,2.01-1.36,3.22-1.36s2.38.49,3.22,1.36l29.14,29.95c.82.84,1.28,1.97,1.28,3.14v11.91c0,18.55-15.1,33.64-33.65,33.64Zm24.14-28.63c-9.57,1.99-17.13,9.54-19.12,19.12,9.57-1.99,17.13-9.54,19.12-19.12Z"></path></svg>