<?xml version="1.0" encoding="UTF-8"?>
<svg id="Layer_1" data-name="Layer 1" xmlns="http://www.w3.org/2000/svg" viewBox="0 0 691.07 146.21">
  <defs>
    <style>
      .cls-1 {
        fill: #3f8afd;
      }

      .cls-2 {
        fill: #488cf8;
      }

      .cls-3 {
        fill: #fff;
      }
    </style>
  </defs>
  <g>
    <path class="cls-3" d="M432.98,92.9l-11.91-.64c-.63-3.3-.37-6.55-.19-9.89l23.64.12-.08,27.26c-8.37,6.15-18.21,7.08-28.31,6.75-17.12-.56-29.92-12.94-30.21-30.12-.28-16.15,10.76-28.81,26.83-31.32,10.35-1.62,21.44-.95,29.88,5.62-.25,3.73-2.44,6.74-4.45,9.87-7.42-3.98-14.65-6.24-22.67-4.81-11.28,2.01-17.92,11.97-16.11,23.12,1.46,8.97,7.55,15.45,16.84,16.72,5.16.71,11.51,1.4,15.92-2.37,2.32-1.99.96-6.84.82-10.3h0Z"/>
    <path class="cls-3" d="M594.13,73.47c3.8-.7,7.65-.25,11.84.11l-14.46,41.9c-4.18.47-8.78.46-13.03,0l-9.51-26.79-9.35,26.98-12.94-.05-14.06-42.37,12.17-.11,9.23,28.9,9.85-28.83,10.97-.09,9.99,28.92,9.3-28.58h0Z"/>
    <path class="cls-2" d="M171.13,87.81c1.04,9.23,7.1,16.48,15.97,17.55,7.27.87,13.8-.41,20.32-4.38,1.8,3.32,3.37,5.85,5.04,9.98-10.55,5.87-23.84,7.96-35.53,3.71-14.8-5.38-22.24-20.18-19.45-35.3,2.59-14.03,15.46-24.72,30.57-25.06,8.44-.19,16.09,1.33,23.07,6.45-.74,3.32-2.29,6.52-4.26,9.66-9.91-5.99-22.77-7.55-30.61.66-4.17,4.37-5.88,9.98-5.12,16.73h0Z"/>
    <path class="cls-3" d="M679.18,115.69l-.11-23.33c-.01-2.85-.82-6.02-3.02-7.89-3.13-2.66-7.47-2.65-10.96-.9-3.07,1.54-5.65,4.83-5.72,9.08l-.39,22.83c-4.21.49-8.02.37-12.2.12v-62.51l12.07-.14.67,24.15c7.05-5.81,16.78-7.23,24.62-2.69,4.78,2.77,6.93,8.54,6.93,13.91v27.2l-11.89.16h0Z"/>
    <path class="cls-3" d="M528.25,81.71c5.19,7.55,4.34,16.89.02,24.26s-12.26,10.48-21.15,10.7c-12.9.31-23.35-8.15-24.14-20.68s8.41-22.97,21.5-23.95c9.08-.68,18.1,1.44,23.76,9.67h0ZM519.43,94.32c0-6.74-5.46-12.2-12.2-12.2s-12.2,5.46-12.2,12.2,5.46,12.2,12.2,12.2,12.2-5.46,12.2-12.2Z"/>
    <path class="cls-2" d="M290.74,82.54c-7.24.03-12.25,4.76-12.4,11.33l-.48,21.92-11.74-.22.08-42.01c3.93-.5,7.36-.55,10.93-.21.9,2.11-.24,3.9,1.27,6.35,5.02-7.51,13.91-9.47,22.42-6.8,15.63,4.9,8.75,27.82,10.3,42.78-4.12.27-7.67.11-11.98-.17l-.08-24.05c-.02-4.51-3.32-8.93-8.33-8.9v-.02h.01Z"/>
    <path class="cls-2" d="M362.67,105.91c8.44,3.5,5.15.77,17.61-2.58,1.09,2.5,3.75,6.01,2.54,9.02-9.52,5.63-23.04,6.68-32.43-.38-10.3-7.74-11.37-24.16-2.01-33.22s23.4-8.88,33.72-2.87c-1.03,3.47-1.35,6.01-2.58,8.71-2.95.36-5.5-1.23-8.49-1.95-6.57-1.58-14.03,1.39-15.59,7.37-1.8,6.89.64,13.15,7.23,15.89h0Z"/>
    <path class="cls-3" d="M639.21,114.38c-5.75,3.07-13.57,3-19.33.03-3.8-1.96-5.71-6.82-5.72-10.91l-.1-20.99c-1.99-.66-3.5-.51-5.31-.84l-.32-9.17c2.09,1.12,5.31,1.49,5.4-.07l.57-9.52c3.82-1.11,7.73,0,11.24-1.86,1.14,3.75.27,7.24.63,11.52,4.16,1.25,8.19.29,12.62.83.66,2.73.4,5.2.17,8.37l-12.9.47.18,17.4c.02,1.99.61,3.93,1.83,5.11,3.31,3.2,7.53.44,10.66.99.05,2.38,1.23,5.75.38,8.63h0Z"/>
    <rect class="cls-2" x="194.27" y="78.25" width="62.68" height="12.38" transform="translate(140.89 309.95) rotate(-89.93)"/>
    <path class="cls-3" d="M465.23,115.22c-4.13.84-7.97.44-12.13.28v-42.09l11.47-.37c1.11,2.04-.03,3.97.94,6.57,2.87-5.49,8.42-8.4,14.75-7.23.53,3.52.06,6.72.02,10.27-1.76.72-3.48,1-5.41,1.23-13.75,1.65-8.33,20.2-9.64,31.34h0Z"/>
    <rect class="cls-2" x="322.07" y="73.29" width="12.04" height="42.65"/>
    <path class="cls-2" d="M254.9,114.15c-2.29,2.65-8.11,1.67-11.69,1.15l-.13-41.83c4.2-.05,7.68-.45,12.05.05l-.23,40.64h0Z"/>
    <circle class="cls-2" cx="328.1" cy="59.35" r="7.25"/>
    <circle class="cls-2" cx="249.4" cy="59.34" r="7.19"/>
  </g>
  <g>
    <path class="cls-1" d="M54.06,136.14c12.4.51,23.89-3.1,34.56-8.97,4.21-2.32,7.47-4.98,10.91-8.31,24.61-23.88,18.92-59.16-2.38-83.5-1.35-1.54-3.15-1.91-4.44-3.88,11.5,5.43,20.04,15.05,25.45,26.95,6.09,13.4,6.9,28.37,2.65,42.62-6.8,22.82-26.08,40.84-49.59,44-4.2.56-8.24,1.16-12.55,1.15-12.78.15-21.01-5.38-21.01-5.38-9.89-6.53-16.22-15.2-17.16-27.15-1.87-23.87,26.82-39.16,39.65-60.23,7.29-11.97,10.59-25.6,8.8-39.41-.53-4.11-2.12-7.38-3.36-11.59,9.36,10.9,11.21,28.74,11.5,42.55.02.76.4,2.38,1.14,2.61,3.18,1,6.01-.56,9.39-1.48-1.14,3.8-4.41,5.96-8.17,7.15,2.66,6.66,6.88,10.01,13.16,13.81,2.43,1.47,4.21,4.59,2.68,7.23-1.67,2.87-7.72,2.78-7.83,5.41-.12,3.12,5.7,3.56,4.03,7.14-.84,1.8-2.88,2.12-4.91,3.08,2.2,1.71,3.9,4.02,2.59,6.62-.62,1.22-2.12,1.44-3.38,2.05,1.29,2.79,4.55,6.91,1.58,10.31-5.17,5.92-16.65,4.29-23.97,3.83-5.31-.34-10.7.49-15.09,3.31-6.92,4.43-10.22,11.99-8.71,20.18,1.17-2.32,12.87-.16,14.48-.1h-.02Z"/>
    <path class="cls-1" d="M24.58,133.2c-4.43-2.41-7.41-5.79-10.56-9.31C3.96,112.66-.82,98.42.11,83.23c.9-14.56,6.65-24.54,16.04-35.21,5.27-5.98,11.42-10.62,17.55-15.63C43.9,24.04,53.32,12.69,59.12,0c4.9,7.67,6.45,15.99,5.9,24.98-.8,13.07-6.48,24.77-15.03,34.57-14.85,17.01-40.92,30.42-34.12,57,1.62,6.32,4.43,11.58,8.73,16.64h-.02,0Z"/>
  </g>
</svg>