<svg xmlns="http://www.w3.org/2000/svg" xmlns:xlink="http://www.w3.org/1999/xlink" id="Lag_1" data-name="Lag 1" viewBox="0 0 2084.27 370.06"><defs><style>      .cls-1 {        fill: #21645a;      }      .cls-2 {        fill: #6bb59e;      }      .cls-3 {        fill: url(#Ikke-navngivet_forløb_4);      }      .cls-4 {        fill: #77d1bc;      }      .cls-5 {        fill: #328474;      }    </style><linearGradient id="Ikke-navngivet_forl&#xF8;b_4" data-name="Ikke-navngivet forl&#xF8;b 4" x1="2204.38" y1="-40.03" x2="211.09" y2="421.98" gradientUnits="userSpaceOnUse"><stop offset=".11" stop-color="#77d1bc"></stop><stop offset=".86" stop-color="#319b88"></stop></linearGradient></defs><g><path class="cls-3" d="M600.37,94.42c7.82,0,15.16,1.48,22.03,4.43,6.87,2.96,12.87,7.01,18.02,12.16s9.2,11.16,12.16,18.02c2.95,6.87,4.43,14.21,4.43,22.03v113.28c0,10.3-1.96,20.02-5.86,29.18-3.91,9.15-9.3,17.16-16.16,24.03s-14.88,12.3-24.03,16.31-18.88,6.01-29.18,6.01h-94.69l15.16-42.05h79.53c4.58,0,8.91-.91,13.02-2.72,4.1-1.81,7.62-4.2,10.58-7.15,2.96-2.96,5.34-6.49,7.15-10.58,1.81-4.1,2.72-8.44,2.72-13.02v-13.73c-3.25,2.67-6.58,4.72-10.01,6.15s-7.06,2.15-10.87,2.15h-71.23c-7.82,0-14.83-1.47-21.03-4.43-6.2-2.96-11.49-7.01-15.88-12.16-4.39-5.15-7.77-11.2-10.16-18.17-2.39-6.96-3.58-14.35-3.58-22.17v-50.92c0-7.82,1.48-15.16,4.43-22.03,2.95-6.87,7.01-12.87,12.16-18.02,5.15-5.15,11.16-9.2,18.02-12.16,6.87-2.95,14.21-4.43,22.03-4.43h71.23ZM615.24,149.63c0-4-1.43-7.44-4.29-10.3-2.86-2.86-6.39-4.29-10.58-4.29h-71.23c-4,0-7.44,1.43-10.3,4.29-2.86,2.86-4.29,6.29-4.29,10.3v54.07c0,4,1.43,7.44,4.29,10.3,2.86,2.86,6.29,4.29,10.3,4.29h71.23c4.19,0,7.72-1.43,10.58-4.29,2.86-2.86,4.29-6.29,4.29-10.3v-54.07Z"></path><path class="cls-3" d="M827.5,93.27c7.82,0,15.16,1.48,22.03,4.43,6.87,2.96,12.87,7.01,18.02,12.16,5.15,5.15,9.2,11.16,12.16,18.02,2.96,6.87,4.43,14.21,4.43,22.03v51.21c0,7.82-1.48,15.16-4.43,22.03-2.96,6.87-7.01,12.87-12.16,18.02-5.15,5.15-11.16,9.2-18.02,12.16-6.87,2.96-14.21,4.43-22.03,4.43h-77.24c-7.82,0-15.16-1.47-22.03-4.43-6.87-2.95-12.87-7.01-18.02-12.16-5.15-5.15-9.2-11.16-12.16-18.02-2.96-6.87-4.43-14.21-4.43-22.03v-51.21c0-7.82,1.48-15.16,4.43-22.03,2.95-6.87,7.01-12.87,12.16-18.02,5.15-5.15,11.16-9.2,18.02-12.16,6.87-2.95,14.21-4.43,22.03-4.43h77.24ZM842.38,148.49c0-4-1.43-7.44-4.29-10.3-2.86-2.86-6.39-4.29-10.58-4.29h-77.24c-4,0-7.44,1.43-10.3,4.29-2.86,2.86-4.29,6.29-4.29,10.3v54.07c0,4,1.43,7.44,4.29,10.3,2.86,2.86,6.29,4.29,10.3,4.29h77.24c4.19,0,7.72-1.43,10.58-4.29,2.86-2.86,4.29-6.29,4.29-10.3v-54.07Z"></path><path class="cls-3" d="M1034.62,94.99c7.82,0,15.16,1.48,22.03,4.43,6.87,2.96,12.87,7.01,18.02,12.16,5.15,5.15,9.2,11.16,12.16,18.02,2.96,6.87,4.43,14.21,4.43,22.03v51.21c0,7.82-1.48,15.16-4.43,22.03-2.96,6.87-7.01,12.87-12.16,18.02s-11.16,9.2-18.02,12.16c-6.87,2.96-14.21,4.43-22.03,4.43h-63.22c-7.82,0-15.16-1.19-22.03-3.58-6.87-2.38-12.87-5.77-18.02-10.15-5.15-4.39-9.2-9.73-12.16-16.02-2.96-6.29-4.43-13.35-4.43-21.17v-5.72c0-5.53,1.05-10.96,3.15-16.31,2.1-5.34,4.91-10.16,8.44-14.45,3.53-4.29,7.72-7.77,12.59-10.44,4.86-2.67,9.96-4,15.3-4h95.26v-7.44c0-4-1.43-7.44-4.29-10.3-2.86-2.86-6.39-4.29-10.58-4.29h-103.84l15.16-40.62h88.68ZM1049.49,191.97h-79.24c-3.62,0-6.77,1.24-9.44,3.72-2.67,2.48-4,5.15-4,8.01v1.43c0,4.2,1.43,7.29,4.29,9.3,2.86,2,6.29,3,10.3,3h63.22c4.19,0,7.72-1.43,10.58-4.29,2.86-2.86,4.29-6.29,4.29-10.3v-10.87Z"></path><path class="cls-3" d="M1304.66,94.99v107.28c0,7.82-1.48,15.21-4.43,22.17-2.96,6.96-7.01,13.02-12.16,18.17s-11.16,9.2-18.02,12.16c-6.87,2.96-14.21,4.43-22.03,4.43h-63.51c-7.82,0-15.16-1.47-22.03-4.43-6.87-2.95-12.87-7.01-18.02-12.16s-9.2-11.2-12.16-18.17c-2.96-6.96-4.43-14.35-4.43-22.17v-107.28h42.05v108.99c0,4,1.43,7.44,4.29,10.3,2.86,2.86,6.29,4.29,10.3,4.29h63.51c4.19,0,7.72-1.43,10.58-4.29s4.29-6.29,4.29-10.3v-108.99h41.77Z"></path><path class="cls-3" d="M1445.69,258.62h-45.77c-7.82,0-15.16-1.47-22.03-4.43-6.87-2.96-12.87-7.01-18.02-12.16-5.15-5.15-9.2-11.16-12.16-18.02-2.96-6.87-4.43-14.21-4.43-22.03v-127.3l42.05-26.03v46.34h58.36l-15.16,34.61h-43.2v72.38c0,4.2,1.43,7.72,4.29,10.58,2.86,2.86,6.29,4.29,10.3,4.29h30.9l14.88,41.77Z"></path><path class="cls-3" d="M1601.31,93.27c7.82,0,15.16,1.48,22.03,4.43,6.87,2.96,12.87,7.01,18.02,12.16,5.15,5.15,9.2,11.16,12.16,18.02,2.96,6.87,4.43,14.21,4.43,22.03v51.21c0,7.82-1.48,15.16-4.43,22.03-2.96,6.87-7.01,12.87-12.16,18.02-5.15,5.15-11.16,9.2-18.02,12.16-6.87,2.96-14.21,4.43-22.03,4.43h-77.24c-7.82,0-15.16-1.47-22.03-4.43-6.87-2.95-12.87-7.01-18.02-12.16-5.15-5.15-9.2-11.16-12.16-18.02-2.96-6.87-4.43-14.21-4.43-22.03v-51.21c0-7.82,1.48-15.16,4.43-22.03,2.95-6.87,7.01-12.87,12.16-18.02,5.15-5.15,11.16-9.2,18.02-12.16,6.87-2.95,14.21-4.43,22.03-4.43h77.24ZM1616.19,148.49c0-4-1.43-7.44-4.29-10.3-2.86-2.86-6.39-4.29-10.58-4.29h-77.24c-4,0-7.44,1.43-10.3,4.29-2.86,2.86-4.29,6.29-4.29,10.3v54.07c0,4,1.43,7.44,4.29,10.3,2.86,2.86,6.29,4.29,10.3,4.29h77.24c4.19,0,7.72-1.43,10.58-4.29,2.86-2.86,4.29-6.29,4.29-10.3v-54.07Z"></path><path class="cls-3" d="M1701.43,258.05c-2.67,0-4.96-.95-6.87-2.86-1.91-1.9-2.86-4.19-2.86-6.87v-23.17c0-2.67.95-4.96,2.86-6.87,1.9-1.9,4.19-2.86,6.87-2.86h27.46c2.67,0,4.96.96,6.87,2.86,1.9,1.91,2.86,4.2,2.86,6.87v23.17c0,2.67-.96,4.96-2.86,6.87s-4.2,2.86-6.87,2.86h-27.46Z"></path><path class="cls-3" d="M1888.24,94.99c7.82,0,15.16,1.48,22.03,4.43,6.87,2.96,12.87,7.01,18.02,12.16,5.15,5.15,9.2,11.16,12.16,18.02,2.96,6.87,4.43,14.21,4.43,22.03v51.21c0,7.82-1.48,15.16-4.43,22.03-2.96,6.87-7.01,12.87-12.16,18.02s-11.16,9.2-18.02,12.16c-6.87,2.96-14.21,4.43-22.03,4.43h-63.22c-7.82,0-15.16-1.19-22.03-3.58-6.87-2.38-12.87-5.77-18.02-10.15-5.15-4.39-9.2-9.73-12.16-16.02-2.96-6.29-4.43-13.35-4.43-21.17v-5.72c0-5.53,1.05-10.96,3.15-16.31,2.1-5.34,4.91-10.16,8.44-14.45,3.53-4.29,7.72-7.77,12.59-10.44,4.86-2.67,9.96-4,15.3-4h95.26v-7.44c0-4-1.43-7.44-4.29-10.3-2.86-2.86-6.39-4.29-10.58-4.29h-103.84l15.16-40.62h88.68ZM1903.11,191.97h-79.24c-3.62,0-6.77,1.24-9.44,3.72-2.67,2.48-4,5.15-4,8.01v1.43c0,4.2,1.43,7.29,4.29,9.3,2.86,2,6.29,3,10.3,3h63.22c4.19,0,7.72-1.43,10.58-4.29,2.86-2.86,4.29-6.29,4.29-10.3v-10.87Z"></path><path class="cls-3" d="M2005.24,27.48c6.87,0,12.73,2.43,17.59,7.29,4.86,4.86,7.29,10.83,7.29,17.88,0,3.43-.67,6.68-2,9.73-1.34,3.05-3.05,5.72-5.15,8.01-2.29,2.1-4.96,3.82-8.01,5.15-3.05,1.34-6.29,2-9.73,2h-6.87c-7.06,0-13.02-2.43-17.88-7.29-4.86-4.86-7.29-10.73-7.29-17.59s2.43-13.02,7.29-17.88c4.86-4.86,10.82-7.29,17.88-7.29h6.87ZM1980.64,94.99h42.05v162.49l-42.05.57V94.99Z"></path></g><g><polygon class="cls-5" points="329.67 67.78 426.09 67.78 312.16 148.48 329.67 67.78"></polygon><polygon class="cls-1" points="329.67 67.78 329.67 209.06 257.43 278.55 187.47 208.6 329.67 67.78"></polygon><polygon class="cls-4" points="329.67 209.06 187.47 209.06 187.47 67.78 329.67 209.06"></polygon><polygon class="cls-2" points="45.28 67.78 187.47 67.78 187.47 209.06 45.28 67.78"></polygon><polygon class="cls-4" points="257.43 278.55 45.28 350.99 187.47 209.06 257.43 278.55"></polygon></g></svg>