<svg id="Layer_1" data-name="Layer 1" xmlns="http://www.w3.org/2000/svg" viewBox="0 0 1542.17 368.26"><path d="M982.51,261.54v15.78c0,4-.36,5.47-1.7,6.84s-3.45,1.82-9.14,1.82c-6.38,0-8.81-.43-10.33-1.82-1.31-1.23-1.56-2.28-1.56-6.38v-.94h2.83v1.71c0,2.86.43,3.81,2,4.31a25.34,25.34,0,0,0,6.89.59c3.19,0,5.37-.26,6.38-.77,1.34-.69,1.74-2.07,1.74-6.27V261.54Z"/><path d="M1017.09,261.54h24.07V264H1020v8.09h20.41v2.28H1020v9h21.35v2.44H1017.1Z"/><path d="M1076,261.54l10,21.54,10.19-21.54h3.41l10.18,21.54,10.08-21.54h3l-11.42,24.19H1108l-10.07-21.36-10.12,21.36h-3.55l-11.42-24.19Z"/><path d="M1155.21,261.54h24.07V264h-21.17v8.09h20.41v2.28h-20.41v9h21.35v2.44h-24.25Z"/><path d="M1213,261.54h2.9v21.75h19.18v2.44H1213Z"/><path d="M1267.24,261.54h19.94c3.66,0,5.36.47,6.63,1.86,1,1.08,1.49,2.93,1.49,5.54,0,3.92-.91,5.29-3.88,6,2.46.48,3.4,1.74,3.4,4.53v6.28h-2.89v-4.61c.07-4.17-1-5.18-5.19-5.15h-16.6v9.76h-2.9Zm18.81,12.15c5,0,6.24-1,6.24-4.9S1291,264,1285.87,264h-15.73v9.72Z"/><path d="M1352.69,261.54h4l-14,14v10.15h-2.9V275.58l-14-14h4l11.53,11.64Z"/><path d="M773.19,133.51h32.07a37.46,37.46,0,0,1,7,.73,19.15,19.15,0,0,1,7.17,3,17.48,17.48,0,0,1,5.54,6.44q2.22,4.17,2.21,10.92,0,9.92-6.11,15.29t-17.52,5.38H777.83v33.55h-4.64Zm4.64,37.76h26.48a21.45,21.45,0,0,0,8.6-1.53,14.89,14.89,0,0,0,8.7-9.33,18.84,18.84,0,0,0,.95-5.91,24.1,24.1,0,0,0-.63-5,15.39,15.39,0,0,0-2.53-5.59,15.06,15.06,0,0,0-5.33-4.54,19.32,19.32,0,0,0-9.13-1.85H777.83Z"/><path d="M847.25,133.51h31.44a40.84,40.84,0,0,1,9.28,1,22,22,0,0,1,7.6,3.27,15.61,15.61,0,0,1,5.11,6,20.47,20.47,0,0,1,1.85,9.18,19.6,19.6,0,0,1-4.27,12.82,18.65,18.65,0,0,1-11.87,6.48v.21a17.94,17.94,0,0,1,8.18,2.75,13.48,13.48,0,0,1,4.48,5.17,20.94,20.94,0,0,1,1.9,6.75,64.94,64.94,0,0,1,.42,7.38v4.33a33.39,33.39,0,0,0,.21,4,20,20,0,0,0,.69,3.43,7.41,7.41,0,0,0,1.32,2.63h-5.17a13.59,13.59,0,0,1-1.64-6.17c-.1-2.35-.16-4.8-.16-7.33s-.1-5-.31-7.54a16.14,16.14,0,0,0-2-6.7,12,12,0,0,0-5.33-4.75q-3.63-1.8-10.28-1.79H851.9v34.28h-4.64Zm31.44,37a27.86,27.86,0,0,0,7.65-1,16,16,0,0,0,6.06-3.11,14.66,14.66,0,0,0,4-5.38,18.7,18.7,0,0,0,1.48-7.81A15.3,15.3,0,0,0,896.3,146a14.16,14.16,0,0,0-4.22-4.91,17.43,17.43,0,0,0-6.12-2.74,30.76,30.76,0,0,0-7.28-.85h-26.8v33Z"/><path d="M993.68,171.17a48,48,0,0,1-2.43,15.45,37.1,37.1,0,0,1-7,12.56A32.72,32.72,0,0,1,973,207.57a38.84,38.84,0,0,1-30.22,0,32.52,32.52,0,0,1-11.29-8.39,37.1,37.1,0,0,1-7-12.56,50.51,50.51,0,0,1,0-30.91,37.05,37.05,0,0,1,7-12.55,32.52,32.52,0,0,1,11.29-8.39,38.84,38.84,0,0,1,30.22,0,32.68,32.68,0,0,1,11.24,8.39,37.05,37.05,0,0,1,7,12.55A48.35,48.35,0,0,1,993.68,171.17Zm-67,0a43.72,43.72,0,0,0,2.11,13.71,33.65,33.65,0,0,0,6.12,11.24A30.84,30.84,0,0,0,971,203.77a29.81,29.81,0,0,0,9.76-7.65,33.82,33.82,0,0,0,6.12-11.24,45.68,45.68,0,0,0,0-27.43,33.78,33.78,0,0,0-6.12-11.23,29.81,29.81,0,0,0-9.76-7.65,30.84,30.84,0,0,0-36.13,7.65,33.6,33.6,0,0,0-6.12,11.23,43.73,43.73,0,0,0-2.1,13.72Z"/><path d="M1020,133.51v45.15c0,1.48.07,3.2.21,5.17a32.19,32.19,0,0,0,3.43,12.18,18.37,18.37,0,0,0,4.17,5.38,19.74,19.74,0,0,0,6.49,3.8,26.89,26.89,0,0,0,9.33,1.43,30.54,30.54,0,0,0,11.66-2,18.78,18.78,0,0,0,7.6-5.6,22.3,22.3,0,0,0,4.16-8.81,48.19,48.19,0,0,0,1.27-11.6v-45.1H1073v45.15a52.47,52.47,0,0,1-1.42,12.55,26.6,26.6,0,0,1-4.8,10.13,22.8,22.8,0,0,1-9,6.81,35.18,35.18,0,0,1-14.09,2.48,34.4,34.4,0,0,1-11.39-1.69,24.52,24.52,0,0,1-7.86-4.38,20.54,20.54,0,0,1-4.91-6.17,35.27,35.27,0,0,1-3.9-13.86q-.21-3.32-.21-5.85V133.51Z"/><path d="M1097.91,133.51h24.69q10.13,0,16.83,3.16a28.4,28.4,0,0,1,10.71,8.44,32.3,32.3,0,0,1,5.64,12,58.8,58.8,0,0,1,1.64,13.92,52,52,0,0,1-2.06,14.93,32.51,32.51,0,0,1-6.38,12,30.12,30.12,0,0,1-10.92,8,38.61,38.61,0,0,1-15.67,2.9h-24.48Zm24.9,71.31a36,36,0,0,0,10.61-1.63,25.78,25.78,0,0,0,9.65-5.49,27.79,27.79,0,0,0,7-10.34q2.7-6.48,2.69-16.3a49.61,49.61,0,0,0-1.53-13.18,32.11,32.11,0,0,0-4-9.23,21,21,0,0,0-5.7-5.91,28.17,28.17,0,0,0-6.65-3.33,32.12,32.12,0,0,0-6.86-1.53,60.62,60.62,0,0,0-6.17-.37h-19.3v67.31Z"/><path d="M1229.16,155a20.26,20.26,0,0,0-2.06-8.44,17.69,17.69,0,0,0-5-6,21.93,21.93,0,0,0-7.55-3.64,35.72,35.72,0,0,0-9.54-1.21,34.63,34.63,0,0,0-6.81.74,21.31,21.31,0,0,0-6.75,2.58,15.49,15.49,0,0,0-5.12,5,14.1,14.1,0,0,0-2,7.76,11.68,11.68,0,0,0,2.21,7.38,16.07,16.07,0,0,0,5.81,4.59,38.52,38.52,0,0,0,8.22,2.8l9.39,2c3.16.67,6.31,1.42,9.45,2.27a32.43,32.43,0,0,1,8.23,3.59,17.84,17.84,0,0,1,5.85,5.9,17.25,17.25,0,0,1,2.22,9.13,18.2,18.2,0,0,1-2.54,9.92,21.29,21.29,0,0,1-6.38,6.54,26.38,26.38,0,0,1-8.54,3.64,39,39,0,0,1-9,1.11,51.72,51.72,0,0,1-12.45-1.43,27.89,27.89,0,0,1-10.13-4.64,22.42,22.42,0,0,1-6.81-8.28,27,27,0,0,1-2.37-12.35h4.64a21.05,21.05,0,0,0,1.8,10.5,18.89,18.89,0,0,0,5.85,7,24.12,24.12,0,0,0,8.81,4,46.06,46.06,0,0,0,10.66,1.22,33.13,33.13,0,0,0,7.22-.85,22.08,22.08,0,0,0,7.07-2.85,17.34,17.34,0,0,0,5.38-5.27,14.63,14.63,0,0,0,2.16-8.23,12.74,12.74,0,0,0-2.21-7.75,16.23,16.23,0,0,0-5.86-4.86,37.59,37.59,0,0,0-8.23-3c-3.06-.74-6.2-1.43-9.44-2.06s-6.29-1.37-9.39-2.21a32.65,32.65,0,0,1-8.23-3.43,17.71,17.71,0,0,1-5.8-5.59,16,16,0,0,1-2.21-8.81,18,18,0,0,1,2.26-9.23,18.64,18.64,0,0,1,5.91-6.23,26.31,26.31,0,0,1,8.18-3.48,37.91,37.91,0,0,1,9-1.11,43.86,43.86,0,0,1,11,1.32,26.3,26.3,0,0,1,9,4.12,20.66,20.66,0,0,1,6.17,7.22A25.51,25.51,0,0,1,1233.8,155Z"/><path d="M1247.72,137.51v-4h57.71v4h-26.58v71.32h-4.65V137.51Z"/><path d="M1386.14,171.17a48,48,0,0,1-2.43,15.45,37.1,37.1,0,0,1-7,12.56,32.68,32.68,0,0,1-11.24,8.39,38.84,38.84,0,0,1-30.22,0,32.52,32.52,0,0,1-11.29-8.39,37.1,37.1,0,0,1-7-12.56,50.36,50.36,0,0,1,0-30.91,37.05,37.05,0,0,1,7-12.55,32.52,32.52,0,0,1,11.29-8.39,38.84,38.84,0,0,1,30.22,0,32.68,32.68,0,0,1,11.24,8.39,37.05,37.05,0,0,1,7,12.55A48.07,48.07,0,0,1,1386.14,171.17Zm-67,0a43.72,43.72,0,0,0,2.11,13.71,33.55,33.55,0,0,0,6.12,11.24,30.85,30.85,0,0,0,36.14,7.65,30,30,0,0,0,9.76-7.65,33.82,33.82,0,0,0,6.12-11.24,45.68,45.68,0,0,0,0-27.43,33.78,33.78,0,0,0-6.12-11.23,30,30,0,0,0-9.76-7.65,31.81,31.81,0,0,0-26.32,0,29.54,29.54,0,0,0-9.81,7.65,33.5,33.5,0,0,0-6.12,11.23,43.73,43.73,0,0,0-2.11,13.72Z"/><path d="M1407.77,133.51h5.8l47.58,69.1h.21v-69.1H1466v75.32h-5.48l-47.9-69.63h-.21v69.63h-4.64Z"/><path d="M1491,133.51h50.64v4h-46v30.18h43.25v4h-43.25v33.12h46.52v4H1491Z"/><path d="M214.91.3,94.71,0,270.12,278.29a146.58,146.58,0,0,1,21-35.73Z"/><path d="M365.37,111.64l3.1-14a8.43,8.43,0,1,1,3.86.86l-3.33,15a44.63,44.63,0,0,1,5.05,3.35l10.5-10.95a8.43,8.43,0,1,1,2.85,2.74l-10.35,10.79a38.36,38.36,0,0,1,4.36,4.91L394.36,121a8.45,8.45,0,1,1,1,3.82l-11.62,3c.69,1.15,1.33,2.34,1.93,3.58,7,14.48,8.64,36.47-3.21,64.43-14.29,31.63-30.26,86.64-10.24,133.58L475.68.33,355.41.63V108.7a31.59,31.59,0,0,1,7.36,1.82C363.66,110.88,364.53,111.25,365.37,111.64Z"/><path d="M345.65,159.6c-1.14-27-30.26-28.31-37.42-26.38,10.77-15.93,25-23.08,37.42-24.54V.63L225.15.33l73.34,233.29c22.36-25.59,46.12-42.41,47.16-70.43Z"/><path d="M606.24,0,485.92.3,378.54,341.87a106.42,106.42,0,0,0,6.29,9.42Z"/><path d="M398.23,366.14l2.51,2.12L701.08,88.32,615.62,3.43,391.37,359.21Q394.58,362.75,398.23,366.14Z"/><path d="M266,290,85.39,3.51,0,88.32l257.48,240,2-1.33A160.79,160.79,0,0,1,266,290Z"/><circle cx="357.4" cy="132.17" r="8.5"/></svg>