<svg xmlns="http://www.w3.org/2000/svg" id="Lag_1" data-name="Lag 1" viewBox="0 0 459.11 71.16"><defs><style>.cls-1{fill:#06233f;}</style></defs><path class="cls-1" d="M82.27,51.12a1.43,1.43,0,0,1-1.62-1.62V23.88a1.41,1.41,0,0,1,1.62-1.58,1.39,1.39,0,0,1,1.58,1.58v2.93c1.94-3,5.43-4.51,10.5-4.51h1.7c3.81,0,6.59.87,8.35,2.63S107,29.47,107,33.28V49.5a1.41,1.41,0,0,1-1.58,1.62,1.43,1.43,0,0,1-1.62-1.62V33.28c0-2.91-.57-4.94-1.72-6.07s-3.17-1.71-6.06-1.71h-1.7A15.62,15.62,0,0,0,86.9,27a5.72,5.72,0,0,0-3.05,4.67V49.5A1.41,1.41,0,0,1,82.27,51.12Z"></path><path class="cls-1" d="M120.27,37.94v2.23q0,4.29,1.72,6t6.09,1.72h5a11.93,11.93,0,0,0,5.6-1,4.34,4.34,0,0,0,2.09-3.43,2.18,2.18,0,0,1,.5-1.16,1.92,1.92,0,0,1,2.38.05,1.49,1.49,0,0,1,.32,1.23,7.38,7.38,0,0,1-3.08,5.68q-2.69,1.83-7.81,1.83h-5q-5.7,0-8.36-2.64t-2.65-8.31V33.28q0-5.78,2.65-8.41t8.36-2.57h5c3.8,0,6.58.87,8.34,2.63s2.64,4.54,2.64,8.35v3a1.42,1.42,0,0,1-1.59,1.62Zm7.81-12.44q-4.37-.06-6.09,1.66t-1.72,6.12v1.46h20.59V33.28c0-2.91-.57-4.94-1.71-6.07S136,25.5,133.08,25.5Z"></path><path class="cls-1" d="M186.94,22.23q4.92,0,7,2.51c1.42,1.66,2.12,4.42,2.12,8.26V49.56a1.4,1.4,0,0,1-1.58,1.59,1.42,1.42,0,0,1-1.62-1.59V33c0-2.68-.46-4.62-1.37-5.79s-2.44-1.77-4.58-1.77h-2.53q-4,0-5.72,1.77C177.54,28.38,177,30.32,177,33V49.56a1.6,1.6,0,0,1-3.2,0V33c0-2.68-.46-4.62-1.38-5.79s-2.44-1.77-4.57-1.77h-2.53c-2.67,0-4.57.59-5.72,1.77s-1.72,3.11-1.72,5.79V49.56a1.61,1.61,0,0,1-3.21,0V23.88a1.61,1.61,0,0,1,3.21,0v2.38a8.1,8.1,0,0,1,3.18-3.1,10.39,10.39,0,0,1,4.69-.93h2.1A10.31,10.31,0,0,1,173,23.35,7.52,7.52,0,0,1,176,27a8.75,8.75,0,0,1,3.3-3.64,10.24,10.24,0,0,1,5.09-1.12Z"></path><path class="cls-1" d="M217.14,51.12q-5.7,0-8.36-2.66t-2.65-8.35V33.28q0-5.72,2.65-8.35c1.77-1.76,4.56-2.63,8.36-2.63h12.78V10.4a1.6,1.6,0,0,1,3.2,0V49.5a1.6,1.6,0,1,1-3.2,0V46.88a8.1,8.1,0,0,1-3.85,3.17,17.22,17.22,0,0,1-6.61,1.07Zm0-3.21h2.32a16.31,16.31,0,0,0,7.61-1.51,4.84,4.84,0,0,0,2.85-4.52V25.5H217.14q-4.37,0-6.09,1.72t-1.72,6.06v6.83c0,2.91.57,4.93,1.72,6.08S214.23,47.91,217.14,47.91Z"></path><path class="cls-1" d="M244.92,16.71a1.88,1.88,0,0,1-2.11-2.15V13.18a1.85,1.85,0,0,1,2.11-2.08h1.35a1.84,1.84,0,0,1,2.08,2.08v1.38c0,1.44-.69,2.15-2.08,2.15Zm.67,34.41A1.43,1.43,0,0,1,244,49.5V23.88a1.6,1.6,0,0,1,3.2,0V49.5A1.42,1.42,0,0,1,245.59,51.12Z"></path><path class="cls-1" d="M265.6,63.32a8.8,8.8,0,0,1-5.49-1.48,6.46,6.46,0,0,1-2.22-4.65,1.47,1.47,0,0,1,.33-1.25,1.54,1.54,0,0,1,1.19-.46,1.56,1.56,0,0,1,1.16.4,2.09,2.09,0,0,1,.52,1.19,3,3,0,0,0,1.25,2.4,6.36,6.36,0,0,0,3.26.64H277c1.79,0,3-.32,3.64-1s1-1.87,1-3.66V46.76a8.74,8.74,0,0,1-4,3.24,16.24,16.24,0,0,1-6.5,1.12h-2.32q-5.7,0-8.35-2.64t-2.66-8.31V33.28q0-5.78,2.64-8.38c1.76-1.74,4.55-2.6,8.37-2.6h5a12.5,12.5,0,0,1,4.85.79,6.3,6.3,0,0,1,2.92,2.47V23.88a1.61,1.61,0,0,1,3.21,0v31.6q0,4-1.89,5.93T277,63.32Zm3.17-15.41h2.32a16.42,16.42,0,0,0,7.61-1.49,4.84,4.84,0,0,0,2.85-4.54V31.69q0-3.45-1.92-4.82c-1.28-.92-3.23-1.37-5.85-1.37h-5q-4.35,0-6.08,1.69T261,33.28v6.89q0,4.29,1.72,6T268.77,47.91Z"></path><path class="cls-1" d="M296.56,16.71a1.88,1.88,0,0,1-2.11-2.15V13.18a1.85,1.85,0,0,1,2.11-2.08h1.35A1.84,1.84,0,0,1,300,13.18v1.38a1.87,1.87,0,0,1-2.08,2.15Zm.67,34.41a1.43,1.43,0,0,1-1.62-1.62V23.88a1.61,1.61,0,0,1,3.21,0V49.5A1.42,1.42,0,0,1,297.23,51.12Z"></path><path class="cls-1" d="M322,51.12c-3.75,0-6.48-.87-8.21-2.59s-2.59-4.46-2.59-8.18V25.5h-3.63A1.43,1.43,0,0,1,306,23.88a1.41,1.41,0,0,1,1.62-1.58h3.63V15.74a1.42,1.42,0,0,1,1.58-1.62,1.43,1.43,0,0,1,1.62,1.62V22.3h7.66a1.4,1.4,0,0,1,1.58,1.58,1.42,1.42,0,0,1-1.58,1.62H314.4V40.35q0,4.27,1.66,5.92c1.11,1.1,3.09,1.64,5.94,1.64a1.7,1.7,0,0,1,1.26.4,1.64,1.64,0,0,1,.38,1.19A1.44,1.44,0,0,1,322,51.12Z"></path><path class="cls-1" d="M338.83,51.12q-4.75,0-7-2.21t-2.21-7q0-4.75,2.23-7t6.95-2.22h13.88c0-2.69-.65-4.56-1.82-5.63s-3.15-1.6-6-1.6h-3.54a14.48,14.48,0,0,0-5.67.82,3.82,3.82,0,0,0-2.23,2.81,2.5,2.5,0,0,1-.56,1.11,1.54,1.54,0,0,1-1.11.35,1.71,1.71,0,0,1-1.24-.44,1.34,1.34,0,0,1-.32-1.21,6.3,6.3,0,0,1,3.16-5.06c1.84-1.06,4.5-1.58,8-1.58h3.54c3.8,0,6.58.87,8.34,2.63s2.64,4.54,2.64,8.35V49.5a1.6,1.6,0,1,1-3.2,0v-3q-2.93,4.64-10.46,4.64Zm0-3.21h3.42a18.53,18.53,0,0,0,5.2-.65,7.82,7.82,0,0,0,3.61-2.12,6.58,6.58,0,0,0,1.65-3.9V35.93H338.83c-2.26,0-3.82.43-4.68,1.3s-1.3,2.43-1.3,4.71.43,3.81,1.3,4.68S336.57,47.91,338.83,47.91Z"></path><path class="cls-1" d="M375.16,51.12q-4.34,0-6.36-2c-1.36-1.34-2-3.44-2-6.31V10.4a1.42,1.42,0,0,1,1.62-1.59A1.4,1.4,0,0,1,370,10.4V42.79c0,2,.37,3.32,1.1,4s2.08,1.08,4.06,1.08a1.43,1.43,0,0,1,1.64,1.59A1.41,1.41,0,0,1,375.16,51.12Z"></path><path class="cls-1" d="M385.1,51.12a1.58,1.58,0,0,1-1.77-1.8V48.16a1.55,1.55,0,0,1,1.77-1.74h1.13A1.54,1.54,0,0,1,388,48.16v1.16a1.57,1.57,0,0,1-1.74,1.8Z"></path><path class="cls-1" d="M408.34,51.12q-5.7,0-8.36-2.66t-2.65-8.35V33.28q0-5.72,2.65-8.35c1.77-1.76,4.56-2.63,8.36-2.63h12.78V10.4a1.42,1.42,0,0,1,1.62-1.59,1.4,1.4,0,0,1,1.58,1.59V49.5a1.42,1.42,0,0,1-1.58,1.62,1.43,1.43,0,0,1-1.62-1.62V46.88a8.13,8.13,0,0,1-3.84,3.17,17.31,17.31,0,0,1-6.62,1.07Zm0-3.21h2.32a16.28,16.28,0,0,0,7.61-1.51,4.84,4.84,0,0,0,2.85-4.52V25.5H408.34q-4.36,0-6.09,1.72c-1.14,1.15-1.72,3.17-1.72,6.06v6.83c0,2.91.58,4.93,1.72,6.08S405.43,47.91,408.34,47.91Z"></path><path class="cls-1" d="M436.8,51.12a1.43,1.43,0,0,1-1.62-1.62V10.4a1.42,1.42,0,0,1,1.62-1.59,1.4,1.4,0,0,1,1.58,1.59V35.75l15.5-13.3a1.39,1.39,0,0,1,2.22.15,1.43,1.43,0,0,1-.15,2.26l-11.22,9.67,12.2,13.84a1.59,1.59,0,0,1-2.38,2.11l-12.3-13.85L438.38,40V49.5A1.42,1.42,0,0,1,436.8,51.12Z"></path><polygon class="cls-1" points="9.31 22.77 9.29 22.73 1.36 18.12 1.22 53.09 9.29 57.69 9.29 57.57 9.32 41.95 9.31 41.95 9.31 22.77"></polygon><polygon class="cls-1" points="23.32 24.25 31.75 29.09 31.75 11.75 23.32 6.75 23.32 24.25"></polygon><polygon class="cls-1" points="61.99 17.75 31.9 0.59 23.32 5.48 31.75 10.48 52.21 22.29 61.99 17.75"></polygon><polygon class="cls-1" points="10.42 37.63 22.27 63.4 22.27 48.59 10.42 24.98 10.42 37.63"></polygon><polygon class="cls-1" points="31.75 59.4 31.75 35.8 23.35 30.91 23.39 39.09 23.39 50.81 23.38 50.8 23.38 65.72 31.75 70.51 31.75 59.4 31.75 59.4"></polygon><polygon class="cls-1" points="52.94 47.17 32.87 58.76 32.87 70.04 62.58 53.09 62.58 18.7 52.94 23.18 52.94 47.17"></polygon></svg>