<?xml version="1.0" encoding="UTF-8"?>
<svg id="a" xmlns="http://www.w3.org/2000/svg" viewBox="0 0 744.39 94.16">
  <defs>
    <style>
      .cls-1 {
        fill: #151515;
      }
    </style>
  </defs>
  <rect class="cls-1" x="138.11" y="2.57" width="13.47" height="89.25"/>
  <polygon class="cls-1" points="271.14 2.58 271.14 14.52 245.85 14.52 245.85 91.82 232.65 91.82 232.65 14.52 207.37 14.52 207.37 2.58 271.14 2.58"/>
  <path class="cls-1" d="M356.88,2.84v-.26h-13.25v.26l-34.83,89h13.26l8.94-22.84h38.5l8.95,22.85h13.26L356.88,2.84ZM335.56,57.35l8.07-20.62,6.63-16.91,6.62,16.91,8.12,20.62h-29.44Z"/>
  <polygon class="cls-1" points="640.62 2.58 640.62 35.63 561.12 35.63 561.12 2.58 573.07 2.58 573.07 22.13 592.62 22.13 592.62 7.81 604.51 7.81 604.51 22.9 627.16 22.9 627.16 2.58 640.62 2.58"/>
  <rect class="cls-1" x="561.11" y="50.68" width="79.5" height="13.45"/>
  <rect class="cls-1" x="561.11" y="78.37" width="79.5" height="13.45"/>
  <polygon class="cls-1" points="741.84 79.85 741.84 93.31 690.07 93.31 690.07 2.56 703.6 2.56 703.6 79.85 741.84 79.85"/>
  <path class="cls-1" d="M473.48,2.58h-32.32v89.68h32.32s41-.26,41-44.35c.03-45.06-41-45.33-41-45.33h0ZM500.38,50c0,16.44-12.68,29.77-29.13,29.77h-16.67V16h16.67c16.45,0,29.13,13.33,29.13,29.78v4.22Z"/>
  <path class="cls-1" d="M50.94,80.44c-19.19,0-34.74-11.32-34.74-33.24S31.75,14,50.94,14c8.02.09,15.77,2.88,22,7.93l8.51-11.45C72.78,4.03,62.29.5,51.48.39,24.05.39,1.81,17,1.81,47.2s22.24,46.8,49.67,46.8c10.89-.03,21.49-3.54,30.25-10l-8.57-11.52c-6.28,5.11-14.12,7.92-22.22,7.96Z"/>
</svg>