<?xml version="1.0" encoding="UTF-8"?>
<svg id="Layer_1" data-name="Layer 1" xmlns="http://www.w3.org/2000/svg" viewBox="0 0 914.48 136.08">
  <defs>
    <style>
      .cls-1 {
        fill: #151515;
      }
    </style>
  </defs>
  <path class="cls-1" d="M0,23.14c16.59-.84,39.54-11.89,50.76-18.76v38.53l17.09-34.18c4.36-2.51,9.38-4.36,15.58-4.36,21.28,0,34.34,12.23,34.34,37.53v61.31c0,8.38,2.01,17.59,5.86,20.94h-46.07c3.85-3.35,5.86-12.4,5.86-20.77v-53.11c0-10.72-6.37-16.75-14.57-16.75-10.55,0-15.75,8.04-18.09,15.92v53.78c0,8.38,2.01,17.59,5.86,20.94H10.55c3.85-3.35,5.86-12.4,5.86-20.77v-55.45c0-4.69-.33-23.96-16.42-23.96v-.84h.01Z"/>
  <path class="cls-1" d="M132,65.52c0-36.69,22.78-61.15,56.79-61.15s56.96,24.46,56.96,61.15-22.78,61.15-56.96,61.15-56.79-24.46-56.79-61.15ZM188.79,95c13.4,0,21.78-11.73,21.78-29.32s-8.38-29.48-21.78-29.48-21.61,11.73-21.61,29.48,8.21,29.32,21.61,29.32Z"/>
  <path class="cls-1" d="M244.07,23.14c16.59-.84,39.54-11.89,50.76-18.76v38.53l17.09-34.18c4.36-2.51,9.38-4.36,15.58-4.36,21.28,0,34.34,12.23,34.34,37.53v61.31c0,8.38,2.01,17.59,5.86,20.94h-46.07c3.85-3.35,5.86-12.4,5.86-20.77v-53.11c0-10.72-6.37-16.75-14.57-16.75-10.55,0-15.75,8.04-18.09,15.92v53.78c0,8.38,2.01,17.59,5.86,20.94h-46.07c3.85-3.35,5.86-12.4,5.86-20.77v-55.45c0-4.69-.33-23.96-16.42-23.96v-.84h.01Z"/>
  <path class="cls-1" d="M423.32,4.37c15.75,0,34.68,4.52,45.23,11.39-3.18,8.38-7.54,23.29-9.88,34.01-5.86-6.03-26.97-15.08-41.88-15.08-5.36,0-8.54,2.01-8.54,5.36,0,11.39,60.31,8.38,60.31,46.74,0,25.13-25.3,39.87-50.26,39.87-17.59,0-30.32-4.36-43.89-12.56,3.52-10.05,6.2-21.78,8.38-32.33,4.52,3.85,21.44,12.9,38.87,12.9,4.86,0,12.9-.5,12.9-5.53,0-12.56-60.14-6.2-60.14-47.41,0-25.46,24.96-37.36,48.92-37.36h-.02Z"/>
  <path class="cls-1" d="M476.92,65.52c0-33.17,19.6-61.15,59.64-61.15,25.46,0,42.38,18.26,42.38,36.02s-12.06,34.01-46.4,34.01h-19.6c2.68,11.89,10.89,18.93,23.45,18.93s19.6-9.38,22.11-13.74c5.53,8.71,13.9,17.26,20.77,23.45-9.88,15.58-26.97,23.62-44.39,23.62-39.54,0-57.96-27.98-57.96-61.15h0ZM545.61,44.91c0-4.52-2.85-9.72-10.05-9.72-9.72,0-23.45,10.55-23.45,30.32,0,2.51.17,4.86.5,7.04,16.08-3.02,33-13.07,33-27.64Z"/>
  <path class="cls-1" d="M575.92,23.14c16.58-.84,39.54-11.89,50.76-18.76v38.53l17.09-34.18c4.36-2.51,9.38-4.36,15.58-4.36,21.28,0,34.34,12.23,34.34,37.53v61.31c0,8.38,2.01,17.59,5.86,20.94h-46.07c3.85-3.35,5.86-12.4,5.86-20.77v-53.11c0-10.72-6.37-16.75-14.57-16.75-10.55,0-15.75,8.04-18.09,15.92v53.78c0,8.38,2.01,17.59,5.86,20.94h-46.07c3.85-3.35,5.86-12.4,5.86-20.77v-55.45c0-4.69-.33-23.96-16.42-23.96v-.84h.01Z"/>
  <path class="cls-1" d="M755.17,4.37c15.75,0,34.68,4.52,45.23,11.39-3.18,8.38-7.54,23.29-9.88,34.01-5.86-6.03-26.97-15.08-41.88-15.08-5.36,0-8.54,2.01-8.54,5.36,0,11.39,60.31,8.38,60.31,46.74,0,25.13-25.3,39.87-50.26,39.87-17.59,0-30.32-4.36-43.89-12.56,3.52-10.05,6.2-21.78,8.38-32.33,4.52,3.85,21.44,12.9,38.87,12.9,4.86,0,12.9-.5,12.9-5.53,0-12.56-60.14-6.2-60.14-47.41,0-25.46,24.96-37.36,48.92-37.36h-.02Z"/>
  <path class="cls-1" d="M808.77,65.52c0-33.17,19.6-61.15,59.64-61.15,25.46,0,42.38,18.26,42.38,36.02s-12.06,34.01-46.4,34.01h-19.6c2.68,11.89,10.89,18.93,23.45,18.93s19.6-9.38,22.11-13.74c5.53,8.71,13.9,17.26,20.77,23.45-9.88,15.58-26.97,23.62-44.39,23.62-39.54,0-57.96-27.98-57.96-61.15h0ZM877.46,44.91c0-4.52-2.85-9.72-10.05-9.72-9.72,0-23.45,10.55-23.45,30.32,0,2.51.17,4.86.5,7.04,16.08-3.02,33-13.07,33-27.64Z"/>
</svg>