<?xml version="1.0" encoding="UTF-8"?>
<svg id="Layer_1" data-name="Layer 1" xmlns="http://www.w3.org/2000/svg" viewBox="0 0 247.44 96">
  <defs>
    <style>
      .cls-1 {
        fill: #151515;
      }
    </style>
  </defs>
  <polygon class="cls-1" points="154.35 46.18 141.11 46.2 124.22 23.05 124.19 46.19 110.96 46.19 110.96 3.74 124.06 3.71 141.02 26.96 141.12 3.72 154.35 3.74 154.35 46.18"/>
  <path class="cls-1" d="M197.9,33.21l7.13,12.97-15.88.03-8.21-14.18c-1.35-2.31-3.7-3.4-6.44-2.95v17.11s-14.09,0-14.09,0V3.72s24.19.01,24.19.01c2.9,0,5.59.28,8.35.83,5,1.17,8.23,5.31,8.41,10.37.25,6.83-4.23,11.26-10.78,12.5l3.64,1.57,3.68,4.21ZM187.19,16.9c.1-1.43-.34-2.89-1.67-3.63-1.09-.61-2.58-.89-3.85-.89l-7.16-.02v8.58s5.11,0,5.11,0c2.96,0,7.34-.51,7.58-4.04Z"/>
  <path class="cls-1" d="M238.14,43.05c-5.9,3.87-15.34,3.74-22,2.46-2.2-.42-4.15-1.23-6.02-2.39-3.51-2.72-5.62-6.72-5.92-11.22l13.03-.76c.24,4.01,3.03,6.86,6.95,6.97,2.98.4,6.92-1.26,6.71-4.39-.23-3.29-4.85-4.23-7.68-4.84-5.23-1.14-12.67-2.88-15.76-7.61-2.63-4.02-1.99-9.24,1.32-12.73,2.04-2.14,4.71-3.46,7.67-4.09,4.93-1.05,9.98-1.08,14.95-.19,6.51,1.17,10.64,5.05,11.32,11.73l-12.9.67c-.38-3.16-2.48-4.96-5.33-5.22-2.36-.36-5.95.34-5.99,3.07-.03,2.17,3.2,2.83,4.98,3.2,3.46.71,6.79,1.45,10.16,2.51,6.06,1.91,10.94,5.65,10.53,12.68-.25,4.17-2.51,7.84-6.01,10.14Z"/>
  <path class="cls-1" d="M2.65,63.04l.23-4.03,17.45.99,20.97-11.16-19.5-11.46-18.96.63-.17-4.03,12.48-.48L1.77,25.63c.63-1.21,1.26-2.29,2.01-3.53l11.77,6.88-4.82-9.24,3.59-1.89,7.96,15.09,20.51,12.02v-25.2s-9.88-12.41-9.88-12.41c1.03-.91,2-1.69,3.13-2.58l6.71,8.33.07-12.22h3.98s.04,10.71.04,10.71v74.77s-.03,9.06-.03,9.06c-1.31.11-2.64.11-3.99,0l-.05-11.75-6.71,8.09-3.16-2.56,9.91-12.08v-24.42s-20.51,10.86-20.51,10.86l-7.92,16.68-3.67-1.73,5.47-11.66-12.46,6.56-1.91-3.57,11.46-6.12-10.61-.67Z"/>
  <path class="cls-1" d="M52.3,65.64l-.03-34.95c8.87.99,15.5,8.44,15.61,17.2s-6.08,16.54-15.58,17.75Z"/>
  <path class="cls-1" d="M206.26,82.16c2.05.13,4.12,1.21,5.03,2.96,1.81,3.51-.18,7.51-3.84,8.87-3.71,1.38-7.95,1.33-11.69.07-2.73-.92-4.07-3.41-3.41-6.17.38-1.6,1.46-2.8,2.78-3.91-1.6-.91-2.38-2.46-2.09-4.28.22-1.37.94-2.55,1.92-3.67-1.11-1.48-1.55-3.16-1.5-5,.1-3.45,2.23-6.16,5.56-7.01,1.99-.51,3.92-.06,5.99,0l6.68.18c.71.57.73,2.31,0,3.01l-3.04.18c1.97,3.08,1.51,7.34-1.31,9.64s-6.8,2.38-9.94.77c-.68.6-1.04,1.54-.88,2.38.12.64,1.07,1.44,1.9,1.49l7.83.48ZM206.23,71.29c0-2.53-2.05-4.59-4.58-4.59s-4.58,2.05-4.58,4.59,2.05,4.59,4.58,4.59,4.58-2.05,4.58-4.59ZM205.71,91.29c1.87-.74,2.89-2.8,2-4.54-.49-.95-1.86-1.55-2.93-1.59l-6.25-.26c-.99.82-1.96,1.75-2.33,2.92-.49,1.54.2,2.98,1.7,3.51,2.45.86,5.27.96,7.8-.04Z"/>
  <path class="cls-1" d="M115.04,72.24v10.79s12.29,0,12.29,0c.76.99.75,2.35,0,3.41h-14.86c-.8,0-1.51-.66-1.51-1.5v-27.34c0-.88.64-1.51,1.49-1.51h14.8c.58,1.16.62,2.34-.05,3.4l-12.16.03v9.4s10.45.02,10.45.02c.71,1.01.67,2.14.12,3.28h-10.56Z"/>
  <path class="cls-1" d="M159.56,76.08c-.11,3.78,1.27,7.02,5.5,7.54,2.91.36,5.54-.48,8.36-1.61.74.59.98,2.7-.03,3.22-3.26,1.69-7.12,2.01-10.66,1.29-7.25-1.47-8.17-9.92-6.68-15.66,1.25-4.81,5.41-7.46,10.26-7.21,3.95.21,7.26,2.53,8.17,6.54.28,1.26,1.22,5.88-.91,5.88h-14.01ZM170.95,73.2c.03-2.18-.45-3.82-1.77-5.2-2.08-1.63-5.19-1.73-7.29-.04-1.59,1.28-2.29,3.27-2.3,5.24h11.37Z"/>
  <path class="cls-1" d="M140.24,67.81c-1.46.92-2.62,2.14-3.52,3.43v14.96c-1.26.55-2.48.52-3.88.06v-21.92c1.17-.45,2.27-.41,3.44-.06l.19,3c2.06-2.18,4.39-3.68,7.31-3.62,3.23.07,5.92,1.91,6.73,5.1.36,1.41.5,2.93.5,4.44l-.02,12.99c-1.32.56-2.6.57-3.87,0l-.05-13.29c0-1.64-.36-3.39-1.44-4.6-1.34-1.5-3.65-1.61-5.39-.51Z"/>
  <rect class="cls-1" x="74.44" y="46.14" width="31" height="4.08"/>
  <rect class="cls-1" x="55.68" y="13.09" width="29.87" height="4.08" transform="translate(18.83 65.47) rotate(-56.28)"/>
  <rect class="cls-1" x="68.58" y="66.27" width="4.08" height="29.87" transform="translate(-33.17 52.76) rotate(-33.66)"/>
  <path class="cls-1" d="M183.54,86.12c-1.25.7-2.52.6-3.94.12v-21.84c1.12-.53,2.26-.47,3.45-.12l.19,3.18c2.49-3.13,4.59-4.9,8.54-3.07.24,1.06.2,2.36,0,3.49-.49.04-1.17-.03-1.56-.18-3.33-1.29-5.15,1.96-6.66,4.33v14.09Z"/>
  <path class="cls-1" d="M219.93,86.08c-1.24.76-2.66.66-3.95.09v-21.72c1.18-.65,2.53-.58,3.94-.08v21.71Z"/>
  <rect class="cls-1" x="69.56" y="31.4" width="20.17" height="4.11" transform="translate(-6.62 38.13) rotate(-25.88)"/>
  <rect class="cls-1" x="77.59" y="52.8" width="4.1" height="20.17" transform="translate(-11.73 107.01) rotate(-64.07)"/>
  <rect class="cls-1" x="52.27" y="70.62" width="2.04" height="21.96"/>
  <rect class="cls-1" x="52.27" y="3.72" width="2.04" height="22.02"/>
  <path class="cls-1" d="M219.82,59.39c-.82.91-2.91.89-3.74.08s-.84-2.91.07-3.67,2.73-.72,3.59,0,.91,2.66.08,3.58Z"/>
</svg>