<?xml version="1.0" encoding="UTF-8"?>
<svg id="Layer_1" data-name="Layer 1" xmlns="http://www.w3.org/2000/svg" viewBox="0 0 42.51 18.78">
  <defs>
    <style>
      .cls-1, .cls-2 {
        fill: #151515;
      }

      .cls-2 {
        fill-rule: evenodd;
      }
    </style>
  </defs>
  <g id="surface1">
    <path class="cls-2" d="M0,9.81c0,4.94,3.97,8.96,8.87,8.97,4.9,0,8.88-4,8.89-8.95-.41,4.26-4.25,7.71-8.88,7.71S.4,14.07,0,9.81Z"/>
    <path class="cls-2" d="M4.54,11.98c0,3.67,1.93,6.66,4.32,6.66s4.33-2.98,4.33-6.65c-.27,2.99-2.12,5.42-4.33,5.42s-4.06-2.43-4.32-5.43Z"/>
    <path class="cls-2" d="M2.55,13.33c0,.24,2.8.43,6.25.44,3.46,0,6.26-.18,6.26-.42s-2.8-.43-6.26-.44c-3.45,0-6.26.18-6.26.42h0Z"/>
    <path class="cls-2" d="M2.56,15.51c0,.24,2.8.43,6.25.44s6.26-.18,6.26-.42-2.8-.43-6.25-.44-6.26.18-6.26.42Z"/>
    <path class="cls-2" d="M8.8,11.86l.83,5.91-1.5.02s.67-5.93.67-5.93Z"/>
    <path class="cls-2" d="M17.81,8.95C17.81,4.01,13.83,0,8.93,0S.06,4.02.06,8.96C.47,4.7,4.3,1.24,8.93,1.24s8.47,3.46,8.88,7.71Z"/>
    <path class="cls-2" d="M13.27,6.79C13.27,3.12,11.33.14,8.94.14s-4.32,2.98-4.32,6.66c.27-2.99,2.11-5.42,4.32-5.42s4.06,2.43,4.33,5.42h0Z"/>
    <path class="cls-2" d="M15.26,5.44c0-.24-2.8-.43-6.25-.43s-6.26.19-6.26.43,2.8.43,6.26.43,6.25-.19,6.25-.43Z"/>
    <path class="cls-2" d="M15.25,3.26c0-.24-2.8-.43-6.26-.43s-6.25.19-6.25.43,2.8.43,6.25.43,6.26-.19,6.26-.43Z"/>
    <path class="cls-2" d="M9.01,6.92l-.84-5.91,1.5-.02-.66,5.93Z"/>
    <path class="cls-1" d="M6.35,6.91l.06,1.45h-.18c-.1-.21-.21-.39-.34-.55-.13-.16-.26-.29-.39-.4-.13-.1-.28-.18-.43-.23-.15-.05-.3-.07-.46-.07-.3,0-.57.09-.81.28-.24.19-.42.44-.55.77-.13.33-.2.71-.2,1.14s.07.8.21,1.13.34.59.58.77c.24.18.51.28.79.28.17,0,.33-.03.47-.1.15-.07.26-.15.33-.26.06-.08.1-.17.12-.26s.03-.21.03-.35c0-.22-.01-.38-.03-.46-.02-.09-.08-.15-.17-.19s-.24-.06-.45-.08v-.19h2.13v.19c-.22.02-.37.04-.45.08-.08.03-.14.1-.17.18-.03.09-.04.24-.04.45v.73c-.18.09-.38.18-.58.25-.21.07-.42.13-.63.17s-.42.06-.63.06c-.38,0-.73-.06-1.04-.18s-.57-.29-.78-.51-.37-.48-.48-.76c-.11-.29-.16-.59-.16-.91s.05-.61.16-.91c.11-.29.26-.56.46-.79s.44-.41.72-.54.59-.2.92-.2c.22,0,.48.03.78.1.29.06.48.1.55.1.2,0,.34-.05.42-.16h.24v-.03ZM6.03,7.79l-.05-.6c-.1.04-.18.06-.24.06h-.13s-.08-.01-.13-.03c-.05-.01-.08-.02-.1-.02.22.14.44.33.65.6h0ZM5.69,10.27v.43c0,.13-.03.27-.1.4s-.18.24-.34.32c.17-.04.31-.09.4-.16s.16-.16.2-.27c.04-.11.06-.25.06-.43,0-.22,0-.37-.02-.47s-.06-.17-.12-.22c-.07-.05-.17-.09-.32-.1.08.06.14.12.19.19.04.07.06.17.06.3h0ZM4.09,11.57c-.22-.1-.4-.19-.55-.28-.15-.09-.3-.22-.46-.39-.21-.22-.37-.48-.48-.76-.11-.28-.17-.56-.17-.84,0-.33.07-.65.22-.98.14-.33.34-.61.59-.85.12-.12.24-.2.35-.27.11-.06.24-.13.39-.19-.16.03-.28.06-.37.1-.19.07-.37.18-.54.33-.17.14-.32.32-.45.52-.13.2-.24.42-.3.65-.07.23-.1.46-.1.71,0,.31.06.61.17.91s.27.55.48.76c.12.12.25.22.38.3.13.07.25.13.38.18.12.04.28.09.47.13v-.03Z"/>
    <path class="cls-1" d="M7.36,6.97h3.82l.4,1.06h-.24c-.13-.15-.28-.29-.44-.41s-.32-.22-.48-.29-.31-.12-.45-.15c-.13-.02-.26-.03-.39-.03-.22,0-.38.02-.47.06s-.15.12-.18.23-.04.29-.04.55v1.13h.6c.3,0,.53-.07.68-.2s.23-.34.24-.62h.24v1.76h-.24c-.02-.22-.06-.38-.12-.49-.06-.1-.15-.17-.28-.21s-.31-.05-.55-.05h-.57v1.6c0,.19.05.32.16.4s.29.11.56.11h.09v.18h-2.33v-.18c.21,0,.37-.03.47-.06.1-.04.16-.1.19-.19.03-.09.05-.22.05-.41v-3.02c0-.21-.04-.36-.12-.45-.08-.09-.25-.14-.52-.14h-.08s0-.18,0-.18ZM11.18,7.7l-.32-.54h-.61c.13.04.26.09.36.15.11.05.2.11.27.16s.18.13.3.24h0ZM10.4,9.53v-.69c-.05.09-.1.16-.17.21s-.17.1-.3.14c.13.03.23.07.31.13.07.05.13.12.16.22h0ZM8.4,11v-3.09c0-.22,0-.39-.02-.49-.01-.1-.05-.17-.12-.22-.07-.05-.18-.06-.33-.05.12.04.19.1.22.18.03.08.04.22.04.44v3.07c0,.14,0,.24-.01.3-.01.07-.03.12-.06.16s-.08.08-.16.12c.16,0,.28-.03.34-.09.07-.06.1-.18.1-.33Z"/>
    <path class="cls-1" d="M12.12,9.93h.22c.12.35.26.64.43.87.17.24.35.41.55.52s.41.17.63.17c.27,0,.51-.09.7-.26s.29-.39.29-.66c0-.25-.06-.44-.19-.58-.13-.14-.28-.24-.46-.29s-.42-.11-.71-.16-.5-.09-.62-.13c-.19-.06-.35-.15-.49-.27-.13-.11-.23-.25-.3-.41-.07-.16-.1-.33-.1-.52s.03-.34.09-.51c.06-.16.15-.3.26-.43s.25-.22.41-.29.34-.11.54-.11c.14,0,.32.02.52.06.21.04.36.06.45.06.12,0,.23-.03.33-.08h.25l.14,1.35h-.23c-.21-.4-.44-.71-.67-.92-.23-.21-.51-.32-.83-.32-.16,0-.3.04-.44.11-.14.07-.25.18-.33.3-.08.13-.12.27-.12.43,0,.22.07.39.22.5.15.12.37.2.66.26s.55.11.78.15.41.09.55.16c.25.12.44.29.58.51s.21.46.21.74-.06.51-.19.73c-.13.23-.3.41-.53.55s-.49.2-.77.2c-.16,0-.28-.01-.36-.04-.08-.02-.22-.07-.42-.14-.2-.07-.35-.1-.45-.1-.18,0-.31.07-.42.2h-.19v-1.67.02ZM14.7,7.81l-.11-.63c-.07.02-.14.04-.22.04s-.16-.01-.26-.04c.09.06.16.12.23.19s.13.15.21.25c.07.1.12.16.14.18h.01ZM12.23,10.54v.88c.06-.08.12-.14.18-.16.05-.02.14-.03.25-.03-.07-.09-.12-.15-.15-.19s-.07-.1-.12-.18-.1-.19-.15-.32h-.01ZM12.23,7.84c-.04.17-.05.3-.05.4,0,.12.02.23.06.35s.1.23.17.33c.08.1.16.19.26.25.13.09.27.15.43.19.15.04.38.08.68.13s.5.1.62.14c.21.08.37.19.49.35s.18.34.18.56c0,.16-.04.32-.13.5.18-.19.27-.4.27-.65s-.07-.46-.2-.61-.29-.26-.49-.33-.46-.14-.8-.2-.51-.09-.52-.09c-.31-.08-.55-.22-.71-.42s-.24-.43-.24-.69v-.21h-.02Z"/>
    <path class="cls-1" d="M23.14,2.17v1.15h-.34c-.07-.3-.19-.52-.35-.66s-.4-.22-.72-.22c-.39,0-.67.14-.83.43s-.25.6-.26.94v.1c0,.35.07.67.21.96s.42.44.84.44h.16c.1-.01.19-.04.27-.09.08-.04.12-.12.12-.24v-.33c0-.15-.04-.24-.11-.27s-.18-.04-.31-.04h-.06v-.33h1.84v.33h-.08c-.12,0-.22.02-.29.06-.07.03-.1.12-.1.27v.81h-.07c-.13.01-.25.02-.38.04s-.25.04-.38.05c-.05.01-.1.02-.15.03s-.1.02-.15.02c-.09.01-.18.02-.26.03-.09,0-.18.01-.26.01-.53,0-.96-.16-1.31-.48-.34-.32-.51-.75-.51-1.29s.18-.99.55-1.31.82-.48,1.36-.48c.2,0,.4.02.59.07s.38.13.55.24c.03-.04.05-.07.06-.11l.03-.12h.34Z"/>
    <path class="cls-1" d="M27.17,4.45l-.07,1.12h-3.23v-.34c.22,0,.35-.03.41-.09.05-.06.08-.2.08-.41v-1.69c0-.21-.03-.34-.08-.41s-.19-.09-.41-.09v-.34h1.88v.34c-.22,0-.35.04-.4.1s-.08.2-.08.41v1.82c0,.17.04.27.14.3.09.03.2.05.34.05.34,0,.6-.03.78-.1.18-.07.29-.29.33-.67h.32-.01Z"/>
    <path class="cls-1" d="M31.2,3.89c0,.56-.19.99-.56,1.31s-.83.47-1.36.47-1-.15-1.36-.46-.55-.75-.55-1.32.19-.99.56-1.3.82-.48,1.35-.48.99.16,1.36.47c.37.32.56.75.56,1.32h0ZM30.26,3.88v-.15s0-.11-.01-.16c-.02-.28-.1-.54-.24-.77s-.37-.35-.72-.35c-.3,0-.52.11-.66.33s-.24.46-.28.72c-.01.07-.02.13-.02.2v.37c0,.05,0,.11.02.17.03.28.12.53.26.76.14.23.37.35.7.35s.57-.11.7-.35c.13-.23.22-.49.25-.76,0-.06.01-.11.01-.17v-.17h0v-.02Z"/>
    <path class="cls-1" d="M33.78,3.78c.28.02.53.09.74.2.22.12.33.34.33.67s-.12.56-.35.7-.49.21-.78.21h-2.19v-.34c.22,0,.35-.03.41-.09.05-.06.08-.2.08-.41v-1.69c0-.21-.03-.34-.08-.41s-.19-.09-.41-.09v-.34h2.23c.08,0,.16,0,.25.03.08,0,.16.04.23.07.14.06.25.16.33.29s.13.27.13.42c0,.26-.09.45-.28.58-.19.12-.4.19-.63.19h-.01ZM32.93,3.96v.92c0,.14.03.23.11.28.07.05.17.08.31.08.19,0,.33-.06.41-.18.08-.12.12-.26.12-.44,0-.24-.06-.41-.18-.51s-.29-.15-.53-.15h-.24ZM32.93,3.62c.23,0,.42-.02.57-.07s.22-.21.22-.49c0-.19-.04-.32-.13-.4-.08-.08-.22-.12-.4-.12h-.27v1.08h.01Z"/>
    <path class="cls-1" d="M37.42,2.2l.96,2.44s.02.05.03.07c0,.02.02.04.03.06.06.15.14.26.22.34s.22.12.41.12v.33h-1.94v-.34h.22s.1-.02.14-.04.06-.05.06-.11c0-.04,0-.09-.02-.14s-.03-.11-.05-.16l-.04-.1s-.03-.08-.05-.12-.03-.07-.04-.11h-1.16s-.03.07-.05.11-.04.08-.06.13c0,.01,0,.03-.02.04,0,.01,0,.03-.02.04-.02.06-.04.11-.06.17-.02.05-.03.1-.03.14,0,.06.02.1.07.12s.1.03.16.04h.17v.33h-1.33v-.34c.17,0,.29-.03.37-.11s.14-.18.2-.31c0-.02,0-.03.02-.05,0-.02.02-.03.02-.05l1.09-2.51h.7ZM37.21,4.13l-.35-.99s-.04-.1-.05-.16c0-.06-.02-.11-.02-.17,0,.06-.02.12-.03.18,0,.06-.03.12-.05.18l-.41.96s.91,0,.91,0Z"/>
    <path class="cls-1" d="M42.51,4.45l-.07,1.12h-3.23v-.34c.22,0,.35-.03.41-.09.05-.06.08-.2.08-.41v-1.69c0-.21-.03-.34-.08-.41s-.19-.09-.41-.09v-.34h1.88v.34c-.21,0-.35.04-.4.1s-.08.2-.08.41v1.82c0,.17.05.27.14.3s.2.05.34.05c.34,0,.6-.03.79-.1.18-.07.29-.29.33-.67h.32-.02Z"/>
    <path class="cls-1" d="M23.07,7.44l.11.92h-.35c-.02-.18-.07-.33-.15-.43s-.22-.15-.42-.15h-.77v1.09h.33c.17,0,.27-.03.32-.11s.08-.19.08-.33h.29v1.25h-.29c0-.14-.03-.26-.08-.35s-.16-.13-.33-.13h-.33v.77c0,.22.03.35.08.41.05.06.19.09.4.09v.33h-1.88v-.34c.22,0,.35-.02.41-.09s.08-.2.08-.41v-1.69c0-.21-.03-.34-.08-.41s-.19-.09-.41-.09v-.34h2.99Z"/>
    <path class="cls-1" d="M27.58,7.44v.34c-.17,0-.29.03-.38.07-.09.04-.13.15-.13.35v1.64c-.01.13-.03.26-.07.39s-.11.23-.21.33c-.12.11-.27.19-.42.25-.16.05-.32.09-.48.1-.05,0-.1.01-.16.01h-.4c-.35-.02-.66-.11-.96-.27-.29-.15-.44-.44-.44-.86v-1.49c0-.21-.03-.34-.08-.41s-.19-.09-.41-.09v-.34h1.88v.34c-.21,0-.35.04-.4.1s-.08.2-.08.41v1.35c0,.14.01.27.04.39s.09.23.21.32c.08.07.17.12.27.15s.2.05.31.05h.06c.31,0,.54-.07.7-.21s.24-.37.24-.68v-1.46c0-.17-.03-.27-.08-.33s-.16-.08-.33-.08h-.06v-.34h1.4l-.02-.03Z"/>
    <path class="cls-1" d="M30.85,7.44l.09.94h-.34c0-.21-.05-.36-.14-.46-.09-.1-.24-.14-.46-.14h-.76v1.08h.33c.17,0,.28-.03.33-.11.06-.08.09-.19.09-.35h.28v1.25h-.28c0-.16-.03-.28-.08-.36s-.16-.12-.34-.12h-.33v.86c0,.19.06.31.17.35s.25.06.4.06c.27,0,.5-.04.68-.12.19-.08.3-.27.33-.58h.32l-.07,1.03h-3.23v-.34c.22,0,.35-.02.41-.09s.08-.2.08-.41v-1.69c0-.21-.03-.34-.08-.41s-.19-.09-.41-.09v-.34h3v.04Z"/>
    <path class="cls-1" d="M34.73,9.68l-.07,1.12h-3.23v-.34c.22,0,.35-.02.41-.09s.08-.2.08-.41v-1.69c0-.21-.03-.34-.08-.41s-.19-.09-.41-.09v-.34h1.88v.34c-.21,0-.35.04-.4.1-.05.06-.08.2-.08.41v1.82c0,.17.05.27.14.3s.2.05.34.05c.34,0,.6-.03.78-.1s.29-.29.33-.67h.32,0Z"/>
    <path class="cls-1" d="M21.99,12.38v.91h-.15c-.04-.24-.13-.43-.27-.58s-.32-.23-.55-.23c-.15,0-.28.04-.39.13-.11.09-.17.2-.17.34,0,.15.06.28.18.39.12.11.26.21.44.29.17.08.34.16.51.25s.32.21.44.37.18.34.18.56c0,.3-.09.55-.28.75s-.43.3-.73.3c-.33,0-.64-.12-.92-.37-.05.1-.09.2-.11.28h-.16v-1.06h.16c.03.25.14.46.31.65s.38.28.62.28c.2,0,.38-.05.52-.16.14-.11.21-.26.21-.46,0-.17-.06-.31-.18-.44-.12-.12-.27-.22-.44-.3s-.34-.16-.52-.25c-.17-.09-.32-.2-.44-.35s-.18-.32-.18-.51c0-.26.09-.46.27-.62s.41-.24.66-.24c.31,0,.56.08.75.25.02-.03.06-.09.11-.2h.12v.02Z"/>
    <path class="cls-1" d="M24.61,12.42h1.21v.15c-.19.02-.32.04-.39.08-.08.05-.12.17-.12.36v1.62c0,.39-.07.7-.23.91s-.42.32-.81.32c-.25,0-.46-.02-.61-.05-.15-.03-.29-.09-.41-.18-.12-.09-.2-.21-.25-.37s-.07-.36-.07-.62v-1.68c0-.09,0-.17-.03-.22-.02-.05-.05-.09-.11-.12s-.1-.04-.15-.05c-.05,0-.12-.01-.22-.02v-.15h1.51v.15h-.18s-.04,0-.08.01c-.04,0-.07.02-.08.03s-.04.03-.06.05c-.02.02-.04.04-.05.07-.01.03-.02.06-.03.11s-.01.09-.01.14v1.61c0,.14,0,.26.02.36s.03.2.06.3c.03.1.08.18.14.24.06.06.14.11.24.14s.23.06.38.06c.17,0,.31-.03.42-.08s.2-.13.26-.23c.06-.1.1-.21.12-.33s.03-.26.03-.42v-1.63c0-.17-.04-.28-.11-.34-.07-.05-.21-.09-.39-.1v-.15.03Z"/>
    <path class="cls-1" d="M26.96,14.18v1.04c0,.09,0,.17.03.22.02.05.05.09.11.12s.1.04.15.05c.04,0,.12.01.22.02v.16h-1.51v-.16c.1,0,.18,0,.22-.02.05,0,.09-.02.15-.05s.09-.06.11-.12c.02-.05.03-.13.03-.22v-2.25c0-.09,0-.16-.03-.22-.02-.05-.05-.1-.11-.12s-.1-.04-.15-.05c-.05,0-.12-.01-.22-.02v-.16h1.48c.07,0,.17,0,.28.02.11.01.21.03.28.05.07.02.15.05.23.1.08.04.15.1.2.16.05.06.09.14.12.24.03.1.05.2.05.33,0,.16-.04.3-.11.44-.07.13-.18.24-.31.31-.16.08-.4.13-.72.13h-.5ZM26.96,14.03h.39c.22,0,.39-.07.51-.2s.18-.31.18-.54c0-.26-.06-.45-.19-.56-.12-.11-.32-.17-.58-.17-.07,0-.17,0-.31.01v1.46Z"/>
    <path class="cls-1" d="M29.66,14.18v1.04c0,.09,0,.17.03.22.02.05.05.09.11.12s.1.04.15.05c.04,0,.12.01.22.02v.16h-1.51v-.16c.1,0,.18,0,.22-.02.05,0,.09-.02.15-.05s.09-.06.11-.12c.02-.05.03-.13.03-.22v-2.25c0-.09,0-.16-.03-.22-.02-.05-.05-.1-.11-.12s-.1-.04-.15-.05c-.05,0-.12-.01-.22-.02v-.16h1.48c.07,0,.17,0,.28.02.11.01.21.03.28.05.07.02.15.05.23.1.08.04.15.1.2.16.05.06.09.14.12.24.03.1.05.2.05.33,0,.16-.04.3-.11.44-.07.13-.18.24-.31.31-.16.08-.4.13-.72.13h-.5ZM29.66,14.03h.39c.22,0,.39-.07.51-.2s.18-.31.18-.54c0-.26-.06-.45-.19-.56-.12-.11-.32-.17-.58-.17-.07,0-.17,0-.31.01v1.46Z"/>
    <path class="cls-1" d="M34.18,14.74l-.07,1.04h-2.76v-.16c.1,0,.18,0,.22-.02.05,0,.09-.02.15-.05s.09-.06.11-.12c.02-.05.03-.13.03-.22v-2.25c0-.09,0-.16-.03-.22-.02-.05-.05-.1-.11-.12s-.1-.04-.15-.05c-.05,0-.12-.01-.22-.02v-.16h1.51v.16c-.18,0-.31.03-.39.07s-.12.15-.12.33v2.19c0,.17.04.28.13.35s.22.1.4.1c.13,0,.23,0,.3-.01.07,0,.16-.02.25-.05s.17-.07.24-.13c.07-.06.13-.13.19-.23.1-.17.15-.32.16-.45h.15v.02Z"/>
    <path class="cls-1" d="M36.09,14.28v.94c0,.09,0,.16.03.22s.06.1.11.12c.05.03.1.04.15.05.05,0,.12.01.21.02v.16h-1.5v-.16c.1,0,.18,0,.22-.02.05,0,.1-.02.15-.05.05-.03.08-.06.1-.12.02-.05.03-.13.03-.22v-.94l-.92-1.44c-.06-.1-.14-.17-.21-.2-.08-.04-.18-.06-.3-.07v-.16h1.44v.16h-.13c-.16,0-.24.04-.24.13,0,.03.02.08.05.15l.72,1.24.75-1.24c.03-.06.04-.1.04-.13,0-.09-.15-.14-.46-.14v-.16h1.21v.16c-.14,0-.26.04-.35.08s-.18.13-.24.24l-.85,1.39h-.01Z"/>
  </g>
</svg>