<?xml version="1.0" encoding="UTF-8"?>
<svg id="Lag_1" data-name="Lag 1" xmlns="http://www.w3.org/2000/svg" viewBox="0 0 459.11 71.16">
  <defs>
    <style>
      .cls-1 {
        fill: #fff;
      }
    </style>
  </defs>
  <path class="cls-1" d="M82.27,51.12c-.78.11-1.51-.43-1.62-1.21-.02-.14-.02-.27,0-.41v-25.62c-.1-.77.44-1.48,1.21-1.59.14-.02.27-.02.41,0,.76-.11,1.47.41,1.58,1.17.02.14.02.27,0,.41v2.93c1.94-3,5.43-4.51,10.5-4.51h1.7c3.81,0,6.59.87,8.35,2.63s2.6,4.54,2.6,8.35v16.22c.12.77-.4,1.49-1.17,1.61-.14.02-.27.02-.41,0-.78.11-1.51-.43-1.62-1.21-.02-.14-.02-.27,0-.41v-16.22c0-2.91-.57-4.94-1.72-6.07s-3.17-1.71-6.06-1.71h-1.7c-2.56-.12-5.11.4-7.42,1.5-1.76.92-2.91,2.69-3.05,4.67v17.83c.12.77-.4,1.49-1.17,1.61-.14.02-.27.02-.41,0Z"/>
  <path class="cls-1" d="M120.27,37.94v2.23c0,2.86.57,4.86,1.72,6s3.18,1.71,6.09,1.72h5c1.92.12,3.84-.22,5.6-1,1.22-.73,2-2.01,2.09-3.43.05-.43.22-.83.5-1.16.71-.54,1.69-.52,2.38.05.28.34.4.79.32,1.23-.1,2.27-1.24,4.36-3.08,5.68-1.79,1.22-4.4,1.83-7.81,1.83h-5c-3.8,0-6.59-.88-8.36-2.64-1.77-1.76-2.66-4.53-2.65-8.31v-6.86c0-3.85.88-6.66,2.65-8.41s4.55-2.61,8.36-2.57h5c3.8,0,6.58.87,8.34,2.63s2.64,4.54,2.64,8.35v3c.12.78-.42,1.5-1.19,1.62-.13.02-.27.02-.4,0l-22.2.04ZM128.08,25.5c-2.91-.04-4.94.51-6.09,1.66s-1.72,3.19-1.72,6.12v1.46h20.59v-1.46c0-2.91-.57-4.94-1.71-6.07s-3.15-1.71-6.07-1.71h-5Z"/>
  <path class="cls-1" d="M186.94,22.23c3.28,0,5.61.84,7,2.51,1.42,1.66,2.12,4.42,2.12,8.26v16.56c.11.76-.42,1.48-1.18,1.59-.13.02-.27.02-.4,0-.78.12-1.5-.42-1.62-1.19-.02-.13-.02-.27,0-.4v-16.56c0-2.68-.46-4.62-1.37-5.79s-2.44-1.77-4.58-1.77h-2.53c-2.67,0-4.57.59-5.72,1.77-1.12,1.17-1.66,3.11-1.66,5.79v16.56c0,.88-.72,1.6-1.6,1.6-.88,0-1.6-.72-1.6-1.6v-16.56c0-2.68-.46-4.62-1.38-5.79s-2.44-1.77-4.57-1.77h-2.53c-2.67,0-4.57.59-5.72,1.77s-1.72,3.11-1.72,5.79v16.56c-.07.89-.85,1.55-1.73,1.48-.79-.06-1.42-.69-1.48-1.48v-25.68c.07-.89.85-1.55,1.73-1.48.79.06,1.42.69,1.48,1.48v2.38c.75-1.31,1.85-2.38,3.18-3.1,1.47-.67,3.08-.99,4.69-.93h2.1c1.78-.08,3.56.31,5.15,1.12,1.37.86,2.42,2.14,3,3.65.73-1.5,1.87-2.77,3.3-3.64,1.57-.81,3.33-1.19,5.09-1.12h2.55Z"/>
  <path class="cls-1" d="M217.14,51.12c-3.8,0-6.59-.89-8.36-2.66-1.77-1.77-2.66-4.56-2.65-8.35v-6.83c0-3.81.88-6.6,2.65-8.35,1.77-1.76,4.56-2.63,8.36-2.63h12.78v-11.9c0-.88.72-1.6,1.6-1.6.88,0,1.6.72,1.6,1.6v39.1c0,.88-.71,1.6-1.6,1.6s-1.6-.71-1.6-1.6h0v-2.62c-.92,1.44-2.27,2.54-3.85,3.17-2.11.79-4.36,1.15-6.61,1.07h-2.32ZM217.14,47.91h2.32c2.62.12,5.23-.4,7.61-1.51,1.77-.8,2.89-2.58,2.85-4.52v-16.38h-12.78c-2.91,0-4.94.57-6.09,1.72-1.15,1.15-1.72,3.17-1.72,6.06v6.83c0,2.91.57,4.93,1.72,6.08s3.18,1.72,6.09,1.72Z"/>
  <path class="cls-1" d="M244.92,16.71c-1.03.14-1.98-.58-2.12-1.61-.02-.18-.02-.36,0-.54v-1.38c-.14-1.01.57-1.95,1.58-2.08.18-.02.35-.02.53,0h1.35c1.01-.14,1.94.56,2.08,1.56.02.17.02.35,0,.52v1.38c0,1.44-.69,2.15-2.08,2.15h-1.35ZM245.59,51.12c-.78.1-1.5-.46-1.59-1.25-.02-.12-.01-.25,0-.37v-25.62c0-.88.72-1.6,1.6-1.6.88,0,1.6.72,1.6,1.6v25.62c.12.78-.41,1.5-1.19,1.62-.14.02-.28.02-.42,0Z"/>
  <path class="cls-1" d="M265.6,63.32c-1.94.13-3.87-.39-5.49-1.48-1.35-1.18-2.16-2.86-2.22-4.65-.09-.45.03-.91.33-1.25.31-.32.75-.49,1.19-.46.43-.03.84.11,1.16.4.3.33.48.75.52,1.19.01.95.48,1.84,1.25,2.4,1.01.5,2.14.72,3.26.64h11.4c1.79,0,3-.32,3.64-1s1-1.87,1-3.66v-8.69c-.98,1.46-2.37,2.59-4,3.24-2.07.81-4.28,1.2-6.5,1.12h-2.32c-3.8,0-6.58-.88-8.35-2.64-1.77-1.76-2.65-4.53-2.66-8.31v-6.89c0-3.85.88-6.65,2.64-8.38,1.76-1.74,4.55-2.6,8.37-2.6h5c1.65-.06,3.3.21,4.85.79,1.21.5,2.23,1.36,2.92,2.47v-1.68c.07-.89.85-1.55,1.73-1.48.79.06,1.42.69,1.48,1.48v31.6c0,2.67-.63,4.64-1.89,5.93s-3.23,1.92-5.91,1.91h-11.4ZM268.77,47.91h2.32c2.62.12,5.23-.39,7.61-1.49,1.78-.8,2.9-2.59,2.85-4.54v-10.19c0-2.3-.64-3.91-1.92-4.82-1.28-.92-3.23-1.37-5.85-1.37h-5c-2.9,0-4.93.56-6.08,1.69s-1.72,3.16-1.7,6.09v6.89c0,2.86.57,4.86,1.72,6s3.16,1.72,6.05,1.74h0Z"/>
  <path class="cls-1" d="M296.56,16.71c-1.03.14-1.98-.58-2.12-1.61-.02-.18-.02-.36,0-.54v-1.38c-.14-1.01.57-1.95,1.58-2.08.18-.02.35-.02.53,0h1.35c1.01-.15,1.94.55,2.09,1.55.03.18.03.35,0,.53v1.38c.16,1.02-.53,1.98-1.55,2.14-.17.03-.35.03-.53,0h-1.36ZM297.23,51.12c-.78.11-1.51-.43-1.62-1.21-.02-.14-.02-.27,0-.41v-25.62c.07-.89.85-1.55,1.73-1.48.79.06,1.42.69,1.48,1.48v25.62c.12.78-.42,1.5-1.19,1.62-.13.02-.27.02-.4,0Z"/>
  <path class="cls-1" d="M322,51.12c-3.75,0-6.48-.87-8.21-2.59s-2.59-4.46-2.59-8.18v-14.85h-3.63c-.79.08-1.49-.48-1.58-1.27-.01-.12-.01-.24,0-.35-.1-.77.44-1.48,1.21-1.59.14-.02.27-.02.41,0h3.63v-6.56c-.12-.78.42-1.5,1.19-1.62.13-.02.26-.02.39,0,.78-.11,1.51.43,1.62,1.21.02.14.02.27,0,.41v6.56h7.66c.77-.11,1.47.43,1.58,1.19.02.13.02.26,0,.39.12.78-.42,1.5-1.19,1.62-.13.02-.26.02-.39,0h-7.71v14.85c0,2.85.55,4.82,1.66,5.92,1.11,1.1,3.09,1.64,5.94,1.64.46-.04.91.1,1.26.4.28.33.42.76.38,1.19.11.79-.44,1.51-1.23,1.62-.14.02-.27.02-.41,0Z"/>
  <path class="cls-1" d="M338.83,51.12c-3.17,0-5.5-.74-7-2.21-1.5-1.47-2.24-3.81-2.21-7,0-3.17.74-5.5,2.23-7,1.49-1.5,3.8-2.24,6.95-2.22h13.88c0-2.69-.65-4.56-1.82-5.63s-3.15-1.6-6-1.6h-3.54c-1.93-.11-3.85.17-5.67.82-1.16.51-2,1.56-2.23,2.81-.09.41-.28.79-.56,1.11-.31.26-.71.38-1.11.35-.46.02-.9-.13-1.24-.44-.3-.33-.42-.78-.32-1.21.14-2.11,1.32-4.01,3.16-5.06,1.84-1.06,4.5-1.58,8-1.58h3.54c3.8,0,6.58.87,8.34,2.63s2.64,4.54,2.64,8.35v16.26c0,.88-.72,1.6-1.6,1.6s-1.6-.72-1.6-1.6v-3c-1.95,3.09-5.44,4.64-10.46,4.64l-3.38-.02ZM338.83,47.91h3.42c1.76.03,3.51-.19,5.2-.65,1.37-.37,2.62-1.1,3.61-2.12.96-1.08,1.54-2.45,1.65-3.9v-5.31h-13.88c-2.26,0-3.82.43-4.68,1.3s-1.3,2.43-1.3,4.71.43,3.81,1.3,4.68,2.42,1.29,4.68,1.29Z"/>
  <path class="cls-1" d="M375.16,51.12c-2.89,0-5.01-.67-6.36-2-1.36-1.34-2-3.44-2-6.31V10.4c-.1-.78.44-1.49,1.22-1.59.13-.02.27-.02.4,0,.77-.11,1.47.43,1.58,1.19.02.13.02.27,0,.4v32.39c0,2,.37,3.32,1.1,4s2.08,1.08,4.06,1.08c.78-.12,1.51.41,1.63,1.19.02.13.02.27,0,.4.15.76-.35,1.51-1.11,1.66-.18.03-.35.04-.53,0Z"/>
  <path class="cls-1" d="M385.1,51.12c-.87.11-1.66-.49-1.77-1.36-.02-.15-.02-.29,0-.44v-1.16c-.11-.85.48-1.63,1.33-1.74.15-.02.3-.02.44,0h1.13c.84-.14,1.63.43,1.77,1.27.02.15.03.31,0,.47v1.16c.13.86-.45,1.66-1.31,1.79-.14.02-.29.02-.43,0h-1.16Z"/>
  <path class="cls-1" d="M408.34,51.12c-3.8,0-6.59-.89-8.36-2.66s-2.66-4.56-2.65-8.35v-6.83c0-3.81.88-6.6,2.65-8.35,1.77-1.76,4.56-2.63,8.36-2.63h12.78v-11.9c-.1-.78.44-1.49,1.22-1.59.13-.02.27-.02.4,0,.77-.11,1.47.43,1.58,1.19.02.13.02.27,0,.4v39.1c.12.78-.42,1.5-1.19,1.62-.13.02-.26.02-.39,0-.78.11-1.51-.43-1.62-1.21-.02-.14-.02-.27,0-.41v-2.62c-.92,1.43-2.26,2.54-3.84,3.17-2.12.78-4.36,1.15-6.62,1.07h-2.32ZM408.34,47.91h2.32c2.62.12,5.23-.4,7.61-1.51,1.77-.8,2.89-2.58,2.85-4.52v-16.38h-12.78c-2.91,0-4.94.57-6.09,1.72-1.14,1.15-1.72,3.17-1.72,6.06v6.83c0,2.91.58,4.93,1.72,6.08s3.18,1.72,6.09,1.72Z"/>
  <path class="cls-1" d="M436.8,51.12c-.78.11-1.51-.43-1.62-1.21-.02-.14-.02-.27,0-.41V10.4c-.1-.78.44-1.49,1.22-1.59.13-.02.27-.02.4,0,.77-.11,1.47.43,1.58,1.19.02.13.02.27,0,.4v25.35l15.5-13.3c.5-.58,1.38-.65,1.96-.15.1.09.19.19.26.3.59.52.65,1.43.13,2.02-.08.09-.17.17-.28.24l-11.22,9.67,12.2,13.84c.58.66.52,1.66-.14,2.25s-1.66.52-2.24-.14h0l-12.3-13.85-3.87,3.37v9.5c.12.78-.42,1.5-1.19,1.62-.13.02-.26.02-.39,0Z"/>
  <polygon class="cls-1" points="9.31 22.77 9.29 22.73 1.36 18.12 1.22 53.09 9.29 57.69 9.29 57.57 9.32 41.95 9.31 41.95 9.31 22.77"/>
  <polygon class="cls-1" points="23.32 24.25 31.75 29.09 31.75 11.75 23.32 6.75 23.32 24.25"/>
  <polygon class="cls-1" points="61.99 17.75 31.9 .59 23.32 5.48 31.75 10.48 52.21 22.29 61.99 17.75"/>
  <polygon class="cls-1" points="10.42 37.63 22.27 63.4 22.27 48.59 10.42 24.98 10.42 37.63"/>
  <polygon class="cls-1" points="31.75 59.4 31.75 35.8 23.35 30.91 23.39 39.09 23.39 50.81 23.38 50.8 23.38 65.72 31.75 70.51 31.75 59.4 31.75 59.4"/>
  <polygon class="cls-1" points="52.94 47.17 32.87 58.76 32.87 70.04 62.58 53.09 62.58 18.7 52.94 23.18 52.94 47.17"/>
</svg>