<?xml version="1.0" encoding="UTF-8"?>
<svg id="Layer_1" data-name="Layer 1" xmlns="http://www.w3.org/2000/svg" viewBox="0 0 1009.08 124.81">
  <defs>
    <style>
      .cls-1 {
        fill: #fff;
      }
    </style>
  </defs>
  <path class="cls-1" d="M212.05,73.26c10.39,17.7,1.61,39.18-17.09,46.34-9.27,3.55-18.76,5.2-28.9,5.2h-54.93s-.01-124.15-.01-124.15l55.96.13c11.38.03,22.23,2.87,31.78,8.1,10.06,6.3,15.22,16.39,14.09,28.24-1.02,10.69-9.09,19.47-20.21,23.24,7.88,3.03,15.06,5.66,19.31,12.9ZM166.55,54.38c11.76-.67,19.7-11.42,19.27-21.91s-8.71-20.27-19.75-20.37l-26.39-.23v42.83c9.48-.02,17.55.21,26.87-.32ZM169.75,111.94c12.07-.6,20.78-10.84,20.95-21.65.17-10.68-8.3-21.28-19.89-22.1-10.44-.74-20.66-.35-31.18-.23l.04,44.24c10.36.05,19.49.26,30.08-.27Z"/>
  <path class="cls-1" d="M495.83,90.33c-11.08,20.47-31.4,34.13-54.7,34.19l-50.27.14V.64s51.26.22,51.26.22c21.7.09,40.68,12.87,51.91,30.84,10.35,18.34,11.18,39.19,1.81,58.62ZM464.67,29.51c-12.4-19.4-27.54-16.14-47.62-15.89v98.08c8.85-.01,17.3.63,25.9-.42,25.46-3.1,42.95-48.55,21.72-81.77Z"/>
  <path class="cls-1" d="M656.68,80.37c-8.01,36.65-44.29,50.23-78.22,42.01-35.57-8.62-48.03-43.23-41.27-76.6,4.45-21.98,20.67-38.57,42.61-43.36,32.9-7.18,67.52,5.71,76.36,40.23,3.2,12.48,3.26,25.17.52,37.72ZM612.08,111.1c27.45-20.2,26.83-76.39-.29-95.8-9.36-6.7-21.49-6.31-30.47.74-27.49,21.59-25.84,77.9,2.36,96.17,8.72,5.65,19.67,5.31,28.39-1.11Z"/>
  <path class="cls-1" d="M355.73,90.44c-13.09,31.96-50.43,40.3-80.46,30.25-32.48-10.87-42.34-45.31-35.48-76.28,4.77-21.55,21.18-37.47,42.73-42.08,32.92-7.04,67.64,6.25,76.06,40.84,3.86,15.85,3.3,32.22-2.86,47.26ZM315.25,110.48c26.27-20.66,25.61-74.93-.28-94.53-8.94-6.77-20.66-7.34-29.87-1.04-28.44,19.48-28.09,78.55.6,97.16,9.22,5.98,20.6,5.44,29.55-1.59Z"/>
  <polygon class="cls-1" points="1009.08 124.51 976.16 124.68 943.07 76.52 904.78 124.59 883.98 124.48 933.41 62.43 891.17 .34 923.91 0 951.35 39.93 982.95 .23 1003.67 .29 960.94 54.06 1009.08 124.51"/>
  <polygon class="cls-1" points="868.98 61.83 820.15 61.9 820.15 108.83 877.11 108.89 877.16 124.63 793.44 124.68 793.42 .03 877.13 .02 876.86 10.94 820.2 11.01 820.12 50.37 868.66 50.5 868.98 61.83"/>
  <path class="cls-1" d="M739.44,124.29l-30.66.36-.04-113.59-37.38-.16c-.12-3.88-.09-6.89.2-10.86l105.64-.03.28,10.59-38.01.11-.03,113.58Z"/>
  <path class="cls-1" d="M27.28,111.38c0,8.23-7.94,13.67-14.45,13.2C5.12,124.02-.02,117.6,0,109.82L.23,11.83C.25,4.68,8.06.6,13.6.6c6.34,0,13.6,4.7,13.61,12.18l.07,98.61Z"/>
  <path class="cls-1" d="M70.68,110.28c0,8.08-5.53,13.37-12.19,14.14-6.24.72-14.83-3.91-14.82-11.62l.06-100.89c0-7.36,8.05-11.52,13.79-11.3,6.74.26,13.13,5.63,13.14,13.22l.04,96.44Z"/>
</svg>