<?xml version="1.0" encoding="UTF-8"?>
<svg id="a" xmlns="http://www.w3.org/2000/svg" viewBox="0 0 740.03 93.61">
  <defs>
    <style>
      .cls-1 {
        fill: #fff;
      }
    </style>
  </defs>
  <rect class="cls-1" x="136.3" y="2.18" width="13.47" height="89.25"/>
  <polygon class="cls-1" points="269.33 2.19 269.33 14.13 244.04 14.13 244.04 91.43 230.84 91.43 230.84 14.13 205.56 14.13 205.56 2.19 269.33 2.19"/>
  <path class="cls-1" d="M355.07,2.45v-.26h-13.25v.26l-34.83,89h13.26l8.94-22.84h38.5l8.95,22.85h13.26L355.07,2.45ZM333.75,56.96l8.07-20.62,6.63-16.91,6.62,16.91,8.12,20.62h-29.44Z"/>
  <polygon class="cls-1" points="638.81 2.19 638.81 35.24 559.31 35.24 559.31 2.19 571.26 2.19 571.26 21.74 590.81 21.74 590.81 7.42 602.7 7.42 602.7 22.51 625.35 22.51 625.35 2.19 638.81 2.19"/>
  <rect class="cls-1" x="559.3" y="50.29" width="79.5" height="13.45"/>
  <rect class="cls-1" x="559.3" y="77.98" width="79.5" height="13.45"/>
  <polygon class="cls-1" points="740.03 79.46 740.03 92.92 688.26 92.92 688.26 2.17 701.79 2.17 701.79 79.46 740.03 79.46"/>
  <path class="cls-1" d="M471.67,2.19h-32.32v89.68h32.32s41-.26,41-44.35c.03-45.06-41-45.33-41-45.33h0ZM498.57,49.61c0,16.44-12.68,29.77-29.13,29.77h-16.67V15.61h16.67c16.45,0,29.13,13.33,29.13,29.78v4.22Z"/>
  <path class="cls-1" d="M49.13,80.05c-19.19,0-34.74-11.32-34.74-33.24S29.94,13.61,49.13,13.61c8.02.09,15.77,2.88,22,7.93l8.51-11.45C70.97,3.64,60.48.11,49.67,0,22.24,0,0,16.61,0,46.81s22.24,46.8,49.67,46.8c10.89-.03,21.49-3.54,30.25-10l-8.57-11.52c-6.28,5.11-14.12,7.92-22.22,7.96Z"/>
</svg>