<?xml version="1.0" encoding="UTF-8"?>
<svg id="a" xmlns="http://www.w3.org/2000/svg" viewBox="0 0 377.18 113.54">
  <defs>
    <style>
      .cls-1 {
        fill-rule: evenodd;
      }

      .cls-1, .cls-2 {
        fill: #fff;
      }
    </style>
  </defs>
  <polygon class="cls-1" points="147.47 46.47 139.72 64.29 132.04 46.47 126.95 46.47 138.08 70.99 141.32 70.99 152.56 46.47 147.47 46.47"/>
  <path class="cls-1" d="M156.78,67.76c1.13,1.19,2.49,2.15,4,2.8,1.7.7,3.52,1.04,5.36,1,1.83.03,3.65-.31,5.34-1,1.54-.64,2.94-1.59,4.09-2.8,1.12-1.19,2.01-2.59,2.61-4.11.62-1.56.94-3.23.93-4.91,0-1.69-.31-3.37-.93-4.94-.59-1.54-1.48-2.94-2.61-4.14-1.16-1.21-2.55-2.16-4.09-2.81-3.41-1.35-7.22-1.35-10.63,0-1.55.64-2.94,1.59-4.09,2.81-1.12,1.2-2,2.61-2.6,4.14-.62,1.57-.94,3.25-.93,4.94,0,1.68.31,3.35.93,4.91.6,1.53,1.49,2.92,2.62,4.11h0ZM158.57,55.41c.38-1.01.94-1.95,1.67-2.75s1.6-1.44,2.58-1.9c2.17-.95,4.64-.95,6.81,0,.98.46,1.86,1.1,2.59,1.9.72.8,1.29,1.73,1.67,2.74.79,2.16.79,4.53,0,6.69-.38,1.01-.94,1.94-1.67,2.73-2.43,2.53-6.18,3.27-9.4,1.87-.97-.45-1.85-1.08-2.58-1.87s-1.29-1.72-1.67-2.73c-.79-2.15-.79-4.52,0-6.67h0Z"/>
  <polygon class="cls-1" points="190.17 59.86 200.43 70.99 206.36 70.99 195.18 58.73 206.36 46.47 200.43 46.47 190.17 57.65 190.17 33.18 185.48 33.18 185.48 70.99 190.17 70.99 190.17 59.86"/>
  <path class="cls-1" d="M223.11,67c-1.08.6-2.31.89-3.55.83-1.48.06-2.94-.35-4.18-1.16-1.2-.96-1.82-2.47-1.65-4h-4.54c-.03,1.34.24,2.67.8,3.89.51,1.08,1.26,2.04,2.2,2.78.97.76,2.09,1.33,3.28,1.66,2.53.69,5.2.72,7.74.08,1.08-.27,2.09-.74,3-1.38,1.8-1.25,2.84-3.31,2.79-5.5.04-1.01-.19-2.02-.65-2.92-.41-.78-.99-1.46-1.68-2-.72-.54-1.52-.98-2.37-1.3-.89-.35-1.78-.66-2.65-.94l-3-.92c-.75-.22-1.49-.49-2.2-.82-.53-.22-1-.57-1.38-1-.32-.44-.48-.97-.46-1.51-.05-.99.45-1.93,1.29-2.45,1-.59,2.14-.88,3.3-.83,1.33-.09,2.65.33,3.69,1.17.89.88,1.35,2.1,1.27,3.34h4.61c.02-1.16-.23-2.31-.73-3.35-.48-1-1.16-1.89-2-2.61-.91-.76-1.97-1.34-3.1-1.7-1.27-.41-2.59-.6-3.92-.59-1.14,0-2.28.13-3.39.42-1.02.26-1.98.7-2.83,1.31-1.8,1.24-2.84,3.32-2.74,5.5-.07,1.74.67,3.41,2,4.53.63.54,1.34.99,2.11,1.31.83.36,1.68.67,2.54.94l3.54,1.09c.83.24,1.64.55,2.42.92.52.24.97.59,1.33,1.03.31.46.46,1.01.43,1.57.07,1.05-.43,2.05-1.32,2.61Z"/>
  <path class="cls-1" d="M253.87,49c-1.05-1.03-2.3-1.83-3.67-2.35-1.49-.57-3.07-.85-4.67-.83-1.69,0-3.35.33-4.9,1-1.42.61-2.69,1.53-3.72,2.69-1.04,1.19-1.85,2.57-2.37,4.06-.57,1.63-.86,3.35-.84,5.08,0,1.66.25,3.3.75,4.88.48,1.52,1.25,2.92,2.27,4.14,1.05,1.22,2.35,2.2,3.81,2.87,1.69.75,3.53,1.12,5.38,1.08,1.44.02,2.87-.21,4.23-.66,1.19-.39,2.3-.98,3.3-1.74.89-.69,1.67-1.53,2.28-2.48.59-.91,1-1.93,1.21-3h-4.77c-.41,1.07-1.1,2.01-2,2.72-1.24.86-2.73,1.27-4.23,1.16-1.15.03-2.29-.18-3.35-.62-.88-.38-1.66-.95-2.29-1.67-.59-.72-1.02-1.54-1.29-2.43-.29-.95-.44-1.94-.43-2.94h18.43c.09-.59.15-1.19.18-1.79v-1.29c.01-1.49-.28-2.97-.87-4.34-.58-1.33-1.41-2.53-2.44-3.54h0ZM238.57,56.4c-.06-1.88.73-3.69,2.14-4.94,1.41-1.15,3.19-1.74,5-1.68,1.84-.07,3.63.57,5,1.79,1.32,1.25,2.03,3.01,1.94,4.83h-14.08Z"/>
  <polygon class="cls-1" points="271.35 64.29 263.68 46.47 258.59 46.47 269.71 70.99 272.96 70.99 284.19 46.47 279.1 46.47 271.35 64.29"/>
  <path class="cls-1" d="M326.57,49c-1.02-1.01-2.23-1.81-3.57-2.34-1.43-.56-2.95-.84-4.48-.83-1.42-.02-2.83.23-4.15.75-1.17.46-2.25,1.14-3.17,2v-2.12h-4.69v4.24c-.8-1.45-1.97-2.66-3.4-3.5-1.64-.95-3.51-1.43-5.4-1.38-1.7-.03-3.39.32-4.95,1-1.48.67-2.82,1.62-3.93,2.81-1.13,1.2-2.01,2.61-2.61,4.14-1.23,3.17-1.23,6.68,0,9.85.59,1.52,1.47,2.91,2.58,4.11,1.1,1.19,2.43,2.14,3.9,2.81,1.56.69,3.25,1.03,4.95,1,1.91.06,3.8-.42,5.45-1.38,1.43-.84,2.6-2.04,3.4-3.49v4.27h4.69v-2.21c2.03,1.95,4.77,2.98,7.58,2.84,1.41.02,2.82-.2,4.16-.66,1.17-.41,2.27-1.01,3.25-1.77.89-.69,1.66-1.54,2.25-2.5.55-.89.95-1.87,1.17-2.9h-4.7c-.41,1.07-1.1,2.01-2,2.72-1.23.86-2.72,1.27-4.22,1.16-2.49,0-4.34-.71-5.54-2.14-1.25-1.57-1.91-3.53-1.85-5.54h18.38c.11-.59.18-1.19.21-1.79v-1.29c.01-1.49-.29-2.97-.89-4.34-.58-1.32-1.4-2.51-2.42-3.52h0ZM305.87,62.07c-.38,1.01-.94,1.94-1.67,2.73-2.43,2.53-6.18,3.27-9.4,1.87-.98-.45-1.85-1.08-2.58-1.87-.73-.79-1.29-1.72-1.67-2.73-.79-2.15-.79-4.52,0-6.67.38-1.01.94-1.94,1.65-2.75,1.51-1.69,3.68-2.64,5.95-2.6,1.16,0,2.31.22,3.38.68,1,.44,1.9,1.07,2.65,1.87.74.8,1.32,1.74,1.7,2.76.79,2.17.79,4.54,0,6.71h-.01ZM311.31,56.4c-.04-1.84.72-3.61,2.09-4.85,2.93-2.34,7.11-2.31,10,.08,1.34,1.22,2.07,2.96,2,4.77,0,0-14.09,0-14.09,0Z"/>
  <path class="cls-1" d="M344.57,47.52c-1.45.87-2.58,2.18-3.24,3.74v-4.8h-4.76v24.54h4.69v-10.77c-.12-2.49.58-4.95,2-7,1.33-1.77,3.43-2.66,6.29-2.65.32-.02.63-.02.95,0,.41.04.81.11,1.21.21v-4.33c-.73-.27-1.5-.39-2.27-.37-1.73,0-3.41.5-4.87,1.43h0Z"/>
  <polygon class="cls-1" points="377.18 46.47 371.25 46.47 360.99 57.65 360.99 33.18 356.3 33.18 356.3 70.99 360.99 70.99 360.99 59.86 371.25 70.99 377.18 70.99 366 58.73 377.18 46.47"/>
  <path class="cls-2" d="M90.65,28.46l-1.5-1.67-5.4,5.53-3,3c-.01-.19-.01-.37,0-.56.7-8.93-4.08-19-14.21-29.91l-4.43-4.85.89,6.56c1.16,8.83,0,16.77-3.45,23.58-.6,1.16-1.26,2.29-2,3.37-5.46-6.3-3.51-15.93-3.49-16l.86-4-3.75,1.62c-5.89,2.9-10.74,7.56-13.87,13.33-12.95-6.21-28.48-.76-34.69,12.19-4.76,9.9-2.77,21.73,4.96,29.54l43.35,43.35,33.5-33.37c.43-.43,1-.93,1.57-1.5,7.4-6.93,27.01-25.34,4.66-50.21ZM49.5,21c-.11,4.29.65,10.89,5.41,15.89h0l-3.56,3.56-7-7c-1.06-1.06-2.21-2.02-3.43-2.88,2.08-3.82,5.02-7.1,8.58-9.59v.02ZM83.14,75.63c-.64.6-1.2,1.13-1.66,1.58l-30.48,30.41L10.57,67.22c-8.34-8.67-8.08-22.47.59-30.81,8.44-8.12,21.78-8.12,30.22,0l7,7-4.57,4.59-11.3,11.3,3,3,21.29-21.3c1.13-1,11.1-10.08,10.89-28.47,6.36,8,9.47,15.51,9,21.85-.17,3.07-1.31,6.01-3.26,8.39l-8.15,8.15h0l-4.48,4.47,3,3,11.39-11.39c.45-.39.88-.82,1.27-1.27l10.36-10.36h0l2.25-2.3c17.2,20.8,1.65,35.39-5.93,42.54v.02Z"/>
</svg>