<?xml version="1.0" encoding="UTF-8"?>
<svg id="a" xmlns="http://www.w3.org/2000/svg" viewBox="0 0 368.64 139.64">
  <defs>
    <style>
      .cls-1 {
        fill: #fff;
      }
    </style>
  </defs>
  <path class="cls-1" d="M368.64,82.9h-20.76v-41.68c.01-.6-.02-1.2-.1-1.79-.3-1.84-1.86-3.22-3.73-3.28-4.78-.18-9.36.91-13.91,2.2-.26.08-.47.51-.59.82-.05.27-.05.56,0,.83v42.8h-20.79v-41.8c0-2.87-1.63-5-4.92-4.9-4.35.25-8.66.99-12.84,2.2-.76.2-.64.69-.64,1.18v43.31h-20.62V20.26h18.29c.39,1.83.78,3.69,1.19,5.63,1.78-.95,3.45-1.94,5.19-2.78,5.45-2.74,11.46-4.16,17.56-4.15,5.62.07,10.38,2,14,6.38.15.19.31.36.49.57,1.77-1,3.47-2,5.27-2.8,6.81-3.27,14.38-4.65,21.91-4,7.66.65,13.82,6.59,14.75,14.22.06.3.14.61.24.9v48.67h.01Z"/>
  <path class="cls-1" d="M20.64,0v42.05c2.38.07,3.8.15,6.08.2,2.65.09,4-.87,5.2-3.1,3.33-6,7-11.82,10.44-17.74.4-.86,1.31-1.37,2.26-1.27,6.32.06,12.64,0,19,0h1.49c-.58,1-1.06,1.86-1.55,2.7-5.19,8.8-10.39,17.59-15.6,26.38-.48.68-.48,1.58,0,2.26,5.52,10.05,11.01,20.11,16.46,30.17.19.34.35.7.57,1.16h-20.59c-.79.08-1.54-.38-1.83-1.12-4.14-7.52-8.33-15.13-12.46-22.7-.27-.67-.95-1.08-1.67-1h-7.69v24.91H0V0h20.64Z"/>
  <path class="cls-1" d="M0,125.56h91.74c.37.83.14,1.18-.7,1.12H1.66c-.55,0-1.11.07-1.66.11v-1.23Z"/>
  <path class="cls-1" d="M368.64,126.56c-.48,0-.95.12-1.43.12h-88.9c-.61,0-1.61.36-1.26-1.11h91.59v.99Z"/>
  <path class="cls-1" d="M183.3,59.89h-40.62c-.09,1.74-.09,3.48,0,5.22.12,2.07,1.9,3.65,3.98,3.53.04,0,.09,0,.13-.01,6.39-.18,12.77-.37,19.16-.69,4.82-.24,9.64-.68,14.46-1,.21,0,.43.02.64.06v14.56c-1.64.18-3.29.42-4.95.53-9.92.61-19.85,1.26-29.78,1.74-3.55.27-7.11.19-10.64-.24-7.85-.98-13.75-7.66-13.75-15.57-.19-10.69-.22-21.4,0-32.09.2-9.7,7.06-16.53,16.78-16.77,9.15-.23,18.3-.23,27.46,0,10.22.26,16.85,7,17.12,17.18.2,7.62.05,15.25.05,22.87,0,.23,0,.45-.04.68h0ZM162.68,44.99v-6c0-3.67-1.41-5.06-5.07-5.08s-7.11-.07-10.67-.12c-2,0-3.88,1.08-4,2.88-.24,2.75-.07,5.53-.07,8.32h19.81Z"/>
  <path class="cls-1" d="M237.16,20.23h20.72v62.56h-18.3c-.4-1.89-.79-3.74-1.21-5.78-.49.29-.86.49-1.22.71-7.67,4.75-16.64,6.95-25.64,6.3-2.75-.01-5.47-.58-8-1.66-6.39-3.14-9.42-8.53-9.48-15.44-.14-15.25,0-30.5,0-45.75,0-.27,0-.54.06-.91h20.74v41.91c0,3.18,1.47,4.66,4.68,4.72,5.6.12,11.19-.61,16.58-2.15.72-.07,1.25-.71,1.17-1.43V21.77l-.09-1.54h0Z"/>
  <path class="cls-1" d="M117.05,19.14v18.2h-1.57c-4.55.16-9.13,0-13.63.59-3.08.37-6,1.66-9.08,2.51-.83.23-1.08.69-1.07,1.55v40.78h-20.65V20.17h17.15c.93,0,1.22.29,1.34,1.18.25,2.1.63,4.17,1,6.51,7.63-6.83,16.35-9.92,26.51-8.72Z"/>
  <path class="cls-1" d="M155.22,116.22l3.1-2.93,1.82,1.9-3.16,2.65c3.93,7.16,3.58,13.05-.8,17.5s-10.29,5-17.76,1.15c-.74.8-1.56,1.61-2.3,2.5s-1.15.84-1.8,0c-.34-.33-.71-.61-1.12-.84l3.4-3.67c-2.4-2.96-3.4-6.81-2.73-10.56.48-2.86,1.91-5.47,4.06-7.41,4.05-3.75,11.09-5.17,17.29-.29h0ZM152.85,118.22c-3.47-3.24-9.93-2.74-13.42,1.18-3.67,4.13-2.86,10.44-.12,12.91l13.54-14.09ZM141.11,134.22c3.46,2.83,9,2.47,12.48-1s4-9.31,1-13l-13.48,14Z"/>
  <path class="cls-1" d="M256.99,139.64l-18.64-19.5v18.42h-3.1v-26l18.6,19.45v-18.25h3.14v25.88Z"/>
  <path class="cls-1" d="M166.78,113.74h3v10.27l.28.15c.49-.48,1-.95,1.47-1.44,2.6-2.65,5.23-5.27,7.79-8,.62-.79,1.61-1.2,2.61-1.09.86.05,1.73.05,2.59,0l-11.21,11.21,11.44,13.72h-4c-.31,0-.64-.42-.88-.71-2.73-3.33-5.45-6.67-8.17-10-.17-.21-.36-.41-.55-.63-.94.4-1.51,1.38-1.37,2.4.08,2.94,0,5.89,0,8.93h-3v-24.81h0Z"/>
  <path class="cls-1" d="M129.66,138.61c-1.47,0-2.59.07-3.69,0-.49-.09-.93-.36-1.23-.76-2.62-3.17-5.2-6.37-7.79-9.56l-.89-1.06c-.93.38-1.49,1.34-1.37,2.34.07,3,0,6,0,9h-3.08v-24.8h3.1v10.36l.29.17c.35-.41.68-.85,1-1.23,2.71-2.77,5.47-5.49,8.13-8.3.66-.81,1.69-1.22,2.72-1.09.74.07,1.5,0,2.36,0l-11.1,11.08,11.55,13.85h0Z"/>
  <path class="cls-1" d="M208.11,113.97l-11,11,11.44,13.59c-1.52,0-2.75.06-4,0-.35,0-.71-.45-1-.77-2.69-3.28-5.35-6.57-8-9.86-.2-.24-.41-.47-.63-.72-.93.35-1.48,1.29-1.34,2.27.06,3,0,6,0,9.05h-3.06v-24.77h3v10.5c.26-.17.52-.35.76-.55,2.89-2.93,5.8-5.84,8.63-8.83.7-.88,1.8-1.34,2.92-1.21.71.05,1.42.05,2.13,0,0,0,.15.3.15.3Z"/>
  <path class="cls-1" d="M214.36,113.77h13.31v2.79h-10.17v7h9.79v2.78h-9.75v9.37h10.08v2.8h-13.26v-24.74Z"/>
</svg>