<?xml version="1.0" encoding="UTF-8"?>
<svg id="Layer_1" data-name="Layer 1" xmlns="http://www.w3.org/2000/svg" viewBox="0 0 506.64 77.59">
  <defs>
    <style>
      .cls-1 {
        fill: #fff;
      }
    </style>
  </defs>
  <path class="cls-1" d="M101.4,73.18c15.52-11.55,29.67-27.62,25.86-46.53-1.04,18.55-10.35,33.66-26.39,42.11-18.82,9.92-39.63,11.12-60.17,5.4C17.64,67.75.93,48.37,0,24.73c2.48,7.51,4.84,13.75,9.07,19.99L63.04,2.06c3.03-2.39,6.97-2.92,10.09-.45l29.17,23.04c12.27-4.8,22.95-10.71,31.31-20.67,9.9,12.99,9.11,32.31,4.08,46.54-5.37,15.18-20.07,24.43-36.28,22.65ZM93.48,65.05c-3.76-11.93-3.61-22.4,1.2-32.6l-21.98-17.43c-2.2-1.75-6.4-1.87-8.74-.02L15.91,53.08c18.13,19.08,54.74,24.21,77.57,11.98Z"/>
  <path class="cls-1" d="M371.76,35.03c-11.72,3.44-4.77,24.58-7.51,24.58h-2.67c-.82,0-.24-14.67-1.32-21.22-.46-2.76-5.42-3.99-7.54-3.41-10.69,2.93-5.78,17.11-7.64,24.64-.19.78-3.31-.23-3.31-1.32v-24.98c.01-.97,2.9-2,3.18-1.26l1.17,3.19c2.93-2.3,6.37-3.79,10.19-3.42,3.08.29,6.07,3.2,8.1,5.85,2.64-3.35,6.28-5.87,10.04-5.87,3.51,0,8.2,2.43,8.83,6.69.76,5.13,1.37,17.87.26,21.32-.19.58-2.68.26-2.85-.32-1.16-3.98.62-11.55-1.26-21.35-.53-2.76-5.54-3.74-7.66-3.12Z"/>
  <path class="cls-1" d="M311.34,69.45c-7.3,1.21-14.91-.26-18.05-7.06-.2-.44,2.85-.56,3.22-.16,3.85,4.21,13.71,7.5,19.49,1.49,1.78-1.85,2.33-5.57,1.86-8.23-4.75,3.58-9.47,5.35-14.75,3.89s-9.66-5.42-10.43-11.47c-.84-6.61,2.78-12.2,8.26-14.68s11.85-1.65,16.67,2.53l.8-3.11c.2-.78,2.47-.74,3.53-.51l-.11,24.66c-.03,6.6-4.15,11.6-10.48,12.65ZM318.47,45.96c0-6.14-4.98-11.11-11.11-11.11s-11.11,4.98-11.11,11.11,4.98,11.11,11.11,11.11,11.11-4.98,11.11-11.11Z"/>
  <path class="cls-1" d="M252.04,56.15c11.01,3.81,13.13-7.17,16.16-5.64,3.44,1.73-4.44,10.86-14.4,9.28-5.42-.86-10.51-4.53-11.81-10.98-1.7-8.45,4.17-16.04,12.44-16.89,8.13-.84,16.19,4.48,16.12,13.83l-25.18.26c.08,5.01,3.18,8.94,6.67,10.15ZM266.54,42.74c-1.52-5.99-6.33-8-11.13-7.85-4.44.14-8.45,2.94-9.59,8.01l20.73-.16Z"/>
  <path class="cls-1" d="M420.16,58.73c0,.86-3.33,1.32-3.44.66l-.55-3.42c-4.55,3.42-10.16,5.01-15.76,3.14-5.36-1.79-9.7-6.76-9.74-13.24-.04-6.24,4.06-11.05,9.05-12.94,5.66-2.15,11.29-1.28,16.4,3.15l.26-2.96c.07-.83,3.65-1.53,3.65-.55l.12,26.17ZM416.59,45.86c0-6.12-4.96-11.07-11.07-11.07s-11.07,4.96-11.07,11.07,4.96,11.07,11.07,11.07,11.07-4.96,11.07-11.07Z"/>
  <path class="cls-1" d="M502.9,59.38l-.15-16.57c-.03-2.83-1.58-6.43-4.15-7.39-3.07-1.14-6.59-.39-9.07,1.5-1.76,1.34-3.76,4.96-3.82,7.72l-.3,14.81-3.49.2.02-38.44c.59-.2,3.29-.05,3.45.35l.35,14.93c3.79-2.62,7.11-4.79,10.7-4.67,13.68.47,9.41,18.14,10.06,27.52.08,0-2.93.04-3.59.04Z"/>
  <path class="cls-1" d="M202.38,40.69l-17.07.32.09,15.73,16.88.23c.44,0,1.3,2.3.88,2.41s-1.75.47-2.52.47h-18.97s.06-38,.06-38l20.7.03c.59,0,.66,2.92.1,2.92l-17.02.08-.18,12.9,16.39.05c.96,0,1.6,2.83.66,2.85Z"/>
  <path class="cls-1" d="M230.72,42.37c-.04-4.96-3.42-7.88-7.82-7.51-5.81.5-9.2,5.27-9.27,10.99l-.18,13.58-3.53.29v-27.55c.63-.18,2.97-.58,3.15,0l1.07,3.43c3.02-2.17,6.54-3.83,10.25-3.79,13.55.14,9.59,18.59,10.08,27.61l-3.59.28-.15-17.32Z"/>
  <path class="cls-1" d="M449.39,44.66c-.6,5.33,2.89,9.48,6.25,10.98,8.93,3.98,12.89-1.88,16.46-3.38.58-.25,1.79,2.13,1.32,2.63-4.81,5.19-15.17,7.06-21.75,2.31-6.98-5.05-8.33-14.35-1.97-20.76,10.43-10.5,27.18-.09,23.68,2.36s-5.07-6.29-15.59-3.56c-3.58.93-7.8,4.07-8.4,9.42Z"/>
  <path class="cls-1" d="M435.72,58.38c0,.76-1.89,2.01-2.37,1.69s-1.26-1.53-1.27-2.19l-.17-22.91c-3.17-.35-4.17-.53-5.42-1.99l5.49-1.73.11-9.31c.01-.85,3.41-1.31,3.44-.5l.37,9.9,6.31,1.52c-1.48,1.9-2.8,1.87-6.31,2.19l-.19,23.32Z"/>
  <path class="cls-1" d="M280.72,41.88l-.48,14.94c-.03.88-.5,2.56-.86,3.13-.49.76-2.95-1.03-2.94-2.13l.24-25.06c0-.77,3-.93,3.22-.41l.94,2.28c3.15-2.04,7.36-5.23,9.94-.35-5.5.39-9.9,2.39-10.06,7.59Z"/>
  <rect class="cls-1" x="330.47" y="31.86" width="3.57" height="28"/>
  <circle class="cls-1" cx="332.24" cy="23.86" r="2.92"/>
  <rect class="cls-1" x="67.39" y="31.33" width="13.53" height="13.77"/>
  <rect class="cls-1" x="67.39" y="48.1" width="13.53" height="13.53"/>
  <rect class="cls-1" x="50.68" y="31.33" width="13.47" height="13.77"/>
  <rect class="cls-1" x="50.68" y="48.1" width="13.47" height="13.53"/>
</svg>