<?xml version="1.0" encoding="UTF-8"?>
<svg id="uuid-df4b29be-3e52-4648-aed5-7e7591f183cb" xmlns="http://www.w3.org/2000/svg" viewBox="0 0 158 60">
  <defs>
    <style>
      .cls-1 {
        fill: #fff;
      }
    </style>
  </defs>
  <path class="cls-1" d="M136.21.73c-1.24,1.24-2.45,2.5-3.72,3.7-2.16,2.04-3.76,4.44-4.76,7.23-.93,2.61-1.93,5.21-2.77,7.85-.57,1.8-.89,3.68-1.39,5.51-.68,2.5-1.36,5.01-2.15,7.49-.56,1.76-1.2,3.51-1.96,5.19-.31.69-.98,1.28-1.6,1.77-1.15.91-2.37,1.74-3.58,2.56-.27.19-.63.24-.86.32.25-.64.54-1.23.72-1.85,1.07-3.62,2.07-7.26,3.17-10.87,1.63-5.36,3.44-10.64,6.01-15.65,2.31-4.5,5.45-8.26,9.63-11.14,1.07-.73,2.12-1.48,3.19-2.23.02.03.04.06.07.09v.03h0Z"/>
  <path class="cls-1" d="M35.85.73c-1.24,1.24-2.45,2.5-3.72,3.7-2.16,2.04-3.76,4.44-4.76,7.23-.94,2.61-1.93,5.21-2.77,7.85-.57,1.8-.9,3.68-1.39,5.51-.68,2.5-1.36,5.01-2.14,7.49-.56,1.76-1.2,3.51-1.96,5.19-.31.69-.98,1.28-1.6,1.77-1.15.91-2.37,1.74-3.58,2.56-.27.19-.63.24-.86.32.25-.64.54-1.23.72-1.85,1.07-3.62,2.07-7.26,3.17-10.87,1.63-5.36,3.44-10.64,6.01-15.65,2.31-4.5,5.45-8.26,9.63-11.14,1.07-.73,2.12-1.48,3.19-2.23.02.03.04.06.07.09v.03h0Z"/>
  <path class="cls-1" d="M112.52,41.31c.08-1.66.09-3.26.23-4.86.22-2.6-.62-4.85-1.91-7.06-1.85-3.18-4.2-5.96-6.52-8.78-1.09-1.33-2.09-2.79-2.82-4.34-.57-1.2-.63-2.63-.08-3.97.22-.54.36-1.11.59-1.65.12-.28.4-.73.53-.7.4.08.9.26,1.12.57.69.95,1.23,2,1.89,2.97,1.64,2.45,3.35,4.86,4.94,7.34,1.35,2.12,2.4,4.39,3,6.86.45,1.89.86,3.78.6,5.71-.36,2.65-.43,5.37-1.56,7.91h-.01Z"/>
  <path class="cls-1" d="M12.17,41.31c.08-1.66.09-3.26.23-4.86.22-2.6-.62-4.85-1.91-7.06-1.85-3.18-4.2-5.96-6.52-8.78-1.09-1.33-2.09-2.79-2.82-4.34-.57-1.2-.63-2.63-.09-3.97.22-.54.36-1.11.59-1.65.12-.28.4-.73.53-.7.4.08.9.26,1.12.57.69.95,1.23,2,1.88,2.97,1.64,2.45,3.35,4.86,4.94,7.34,1.35,2.12,2.4,4.39,3,6.86.45,1.89.87,3.78.6,5.71-.36,2.65-.43,5.37-1.56,7.91h.01Z"/>
  <path class="cls-1" d="M97.28,39.71c-.65,0-1.18.04-1.69-.02-.2-.03-.44-.28-.52-.48-.59-1.44-1.14-2.89-1.72-4.36-2.71,0-5.39,0-8.07.02-.22,0-.52.31-.63.55-.54,1.22-1.07,2.44-1.52,3.69-.19.51-.44.66-.94.61-.4-.04-.81,0-1.35,0,.37-.92.7-1.77,1.05-2.61,1.49-3.59,2.98-7.17,4.47-10.76.58-1.39,1.21-2.77,1.74-4.18.31-.83.95-.46,1.48-.55.48-.08.61.24.76.6,1.53,3.86,3.08,7.72,4.62,11.57.76,1.92,1.52,3.85,2.33,5.92h-.01ZM92.7,33.16c-1.16-2.99-2.29-5.89-3.42-8.79h-.19c-1.18,2.91-2.36,5.82-3.56,8.79h7.17Z"/>
  <path class="cls-1" d="M148.56,31.4v2.22c0,1.23.02,2.46,0,3.68-.02.55.18.7.71.7,2.43-.02,4.86,0,7.29,0,.61,0,.88.3.81.89-.03.25-.06.49-.1.79-.21.02-.41.05-.61.05h-9.41c-.53,0-.71-.14-.71-.69.02-5.59,0-11.18,0-16.77,0-.37,0-.66.53-.66,3.23.02,6.45.01,9.68.01.09,0,.17.03.3.05v1.6c-.3.02-.59.06-.88.06-2.3,0-4.59.02-6.88,0-.57,0-.75.17-.74.74.03,1.63.03,3.27,0,4.91,0,.56.21.69.72.69,2.27-.02,4.54-.01,6.82,0,.25,0,.69.11.7.21.07.46.04.94-.03,1.41,0,.07-.4.11-.62.11h-7.58,0,0Z"/>
  <path class="cls-1" d="M66.24,37.94h1.25c2.14,0,4.27.02,6.41,0,.63,0,.89.16.72.82-.07.28-.05.58-.08.92h-10.25v-18h1.96v16.28h0v-.02Z"/>
  <path class="cls-1" d="M47.96,37.88c.34.02.6.05.87.05,2.25,0,4.5.02,6.75,0,.57,0,.82.11.76.75-.1,1.03-.06,1.03-1.07,1.03h-9.25v-18.05h1.95v16.22h0Z"/>
  <path class="cls-1" d="M41.7,59.58c.52-.61.87-1.07,1.65-1.04.76.03,1.07-.65,1.22-1.26.37-1.59.67-3.19.99-4.78.13-.66.27-1.33.4-1.99-1.31-.29-2.66.58-2.87,1.93-.13.84-.66,1.02-1.3,1.21-.12-1.42.97-2.9,2.36-3.38,1.79-.62,3.63-.48,5.46-.36.78.05,1.58.32,1.87,1.22.29.9-.04,1.67-.63,2.3-.39.42-.9.74-1.4,1.04-.3.18-.37.36-.2.64.64,1.03,1.26,2.08,1.94,3.09.47.69.72.69,1.37.17.24-.19.48-.39.72-.58.05.04.11.08.16.13-.19.27-.34.56-.57.79-1.48,1.5-2.19,1.43-3.3-.35-.56-.9-1.09-1.82-1.55-2.77-.26-.54-.65-.54-1.12-.53-.49,0-.48.36-.56.7-.23.97-.7,1.8-1.48,2.44-.12.1-.27.17-.41.25.03.08.07.16.1.24h2.15c-.46.76-.86,1.19-1.68,1.1-1.06-.12-2.12-.13-3.34-.2h.02,0ZM46.62,54.44c1.62.21,2.25.05,2.88-.82.81-1.13,1-2.84-.77-3.3-.4-.1-.84-.07-1.26-.1-.29,1.45-.57,2.82-.85,4.23h0Z"/>
  <path class="cls-1" d="M33.87,21.66h1.92v18.01h-1.92s0-18.01,0-18.01Z"/>
  <path class="cls-1" d="M136.38,21.62v18.09c-.57,0-1.11.02-1.64-.02-.13,0-.28-.23-.35-.38-.06-.13,0-.31,0-.47v-16.35c0-.67.14-.98.86-.88.35.05.71.01,1.15.01h-.02Z"/>
  <path class="cls-1" d="M84.85,48.09c-.44.91-.61,1-1.44.78-1.25-.33-2.25.16-2.58,1.42-.52,1.99-.93,4-1.38,6.01-.14.62-.27,1.24-.35,1.87-.03.25.08.51.12.76.25-.06.55-.05.75-.18.43-.28.8-.63,1.37-1.08-.12.34-.14.59-.26.69-.6.46-1.19.98-1.87,1.3-.95.45-1.73-.25-1.54-1.3.1-.56.23-1.11.34-1.67.01-.06-.01-.13-.03-.28-.47.67-.85,1.33-1.35,1.87-.48.52-1.06,1-1.68,1.33-.99.52-1.93-.11-2-1.22-.15-2.34,1.37-4.87,3.54-5.77.55-.23,1.19-.28,1.79-.31.46-.02.69-.15.82-.61.43-1.54,1.4-2.66,2.85-3.33.92-.43,1.87-.48,2.92-.29h-.02ZM77.24,53.05c-.79-.02-1.24.13-1.64.75-.79,1.21-1.29,2.53-1.25,4.01.01.29.18.7.41.84.17.1.6-.09.83-.26,1.21-.91,2.06-2.15,2.73-3.48.7-1.38.41-1.81-1.08-1.85h0Z"/>
  <path class="cls-1" d="M96.79,59.06c.36-.18.74-.33,1.08-.55.32-.22.6-.51.89-.77.05.03.09.07.14.1-.1.18-.15.42-.3.54-.57.44-1.12.92-1.76,1.23-.97.48-1.71-.04-1.59-1.11.1-.94.34-1.87.51-2.8.11-.6.24-1.2.28-1.81.05-.66-.34-.92-.82-.48-.8.74-1.5,1.6-2.17,2.46-.61.78-.92,1.68-1.05,2.68-.14,1.08-.31,1.15-1.63,1.02.1-.5.2-.99.3-1.48.31-1.48.64-2.96.93-4.45.1-.53-.15-.75-.65-.56-.33.12-.61.37-.9.59-.21.15-.39.34-.66.59-.01-.22-.05-.32-.02-.39.37-.86,1.94-1.72,2.87-1.6.63.08.75.54.73,1.04-.03.49-.16.98-.25,1.47-.04.24-.08.48-.15.87.63-.84,1.13-1.59,1.71-2.25.54-.62,1.16-1.15,2.07-1.13.78,0,1.19.34,1.13,1.11-.09,1.01-.32,2.01-.49,3.01-.14.83-.28,1.67-.42,2.5.08.06.16.12.24.18h-.02Z"/>
  <path class="cls-1" d="M83.78,56.84c-.26,1.63.67,2.46,2.2,1.92.65-.23,1.28-.54,2.04-.87-.08.22-.1.43-.2.5-.96.65-1.96,1.26-3.13,1.36-1.65.15-2.77-1.32-2.38-3.12.37-1.71,1.28-3.11,2.83-3.95.56-.3,1.3-.37,1.95-.38.68,0,1.11.79.99,1.59-.18,1.21-1.3,2.32-2.64,2.61-.55.12-1.1.22-1.65.33h-.01ZM83.74,56.27c.43-.06.8-.06,1.13-.17,1.41-.48,2.05-1.2,1.88-2.56-.06-.5-.4-.67-.81-.57-.31.07-.64.26-.87.48-.76.73-1.15,1.66-1.32,2.83h0Z"/>
  <path class="cls-1" d="M59.61,58.1c-.39.28-.75.6-1.16.82-.54.28-1.11.52-1.69.71-1.54.51-2.86-.36-3.03-1.96-.21-1.96,1.51-4.66,3.4-5.25.44-.14.94-.17,1.41-.12.82.08,1.27,1.12.92,2.04-.44,1.16-1.37,1.76-2.47,2.15-.42.15-.88.23-1.33.25-.47.02-.58.22-.52.64.18,1.34.97,1.86,2.24,1.4.71-.25,1.39-.59,2.08-.88.04.07.09.14.14.2,0,0,0,0,.01,0ZM55.27,56.21c1.53.02,2.58-.66,2.96-1.84.16-.5.12-.97-.3-1.29-.47-.36-.93-.06-1.28.25-.83.75-1.32,1.69-1.39,2.88h0Z"/>
  <path class="cls-1" d="M108.9,56.84c-.31,1.64.62,2.48,2.15,1.93.65-.24,1.28-.54,2.05-.87-.08.21-.1.43-.21.51-.98.66-2,1.27-3.21,1.36-1.06.08-1.85-.47-2.18-1.47-.88-2.65,2.09-6.15,4.15-6.05,1.06.06,1.58.54,1.5,1.61-.1,1.35-1.32,2.25-2.6,2.64-.53.16-1.1.23-1.65.34ZM108.79,56.29c.5-.08.86-.11,1.2-.19,1.21-.29,1.97-1.27,1.87-2.4-.06-.66-.46-.93-1.07-.65-1.32.61-1.65,1.85-2,3.24Z"/>
  <path class="cls-1" d="M105.32,54.23c-.29-.52-.43-1.08-.76-1.26-.66-.35-1.39-.13-1.96.35-1.06.89-1.71,3.48-1.25,4.79.24.66.97.99,1.74.75.39-.12.78-.24,1.15-.41.37-.16.71-.38,1.19-.47-.09.16-.15.4-.29.47-.89.44-1.76.96-2.7,1.25-1.34.42-2.64-.59-2.74-1.98-.14-2.1,1.26-4.49,3.23-5.2.74-.27,1.64-.14,2.47-.14.37,0,.5.26.4.62-.1.37-.19.75-.31,1.11-.04.1-.21.15-.18.12h0Z"/>
  <path class="cls-1" d="M60.48,59.32c.72-.9.7-.84,1.59-.51.46.17,1.03.2,1.52.12.67-.1.91-.91.47-1.51-.36-.49-.78-.92-1.19-1.38-1.27-1.42-.83-3.08,1.01-3.65.4-.12.85-.14,1.27-.13,1.48.04,1.11.3.91,1.4-.02.1-.17.17-.26.26-.09-.09-.2-.17-.25-.28-.32-.76-.94-1.04-1.7-.76-.64.24-.84.98-.39,1.64.35.52.78.99,1.18,1.47,1.1,1.34,1,2.24-.44,3.18-1.17.76-2.41.78-3.72.13v.02h0Z"/>
  <path class="cls-1" d="M114.21,59.3c.6-.9.58-.87,1.53-.47.61.26,1.26.35,1.87-.08.46-.33.51-.75.2-1.17-.39-.54-.83-1.05-1.28-1.55-1.22-1.39-.8-3.02.98-3.6.81-.27,1.64-.26,2.48.09-.08.39-.14.74-.24,1.09-.04.13-.18.22-.28.33-.09-.11-.24-.21-.25-.32-.04-.47-.34-.74-.74-.73-.47.02-1.03.09-1.36.36-.2.17-.19.83-.03,1.15.26.53.71.97,1.11,1.42.89,1.03,1.06,1.9.49,2.68-.94,1.29-3.08,1.67-4.48.8Z"/>
  <path class="cls-1" d="M67.86,53.42c.97-.61,2.12-.78,3.3-1.21-.18.83-.33,1.5-.47,2.18-.25,1.22-.52,2.43-.74,3.65-.05.28.07.6.11.89.29-.08.62-.11.86-.26.39-.25.73-.58,1.25-1.01-.11.33-.12.58-.24.68-.58.46-1.15.95-1.81,1.27-.34.16-.97.14-1.23-.08-.27-.22-.41-.81-.36-1.2.15-1.14.43-2.26.66-3.39.02-.11.05-.22.07-.33.14-1.03-.03-1.18-1.03-.96-.08.02-.17,0-.26,0-.04-.08-.08-.15-.12-.23h0Z"/>
  <path class="cls-1" d="M71.94,48.98c-.11,1.39-1.12,1.58-2.03,2.05.2-1.21,1.3-1.32,2.03-2.05Z"/>
</svg>